SplineFontDB: 3.2
FontName: TDATextCondensed
FullName: TDAText Condensed
FamilyName: TDAText Condensed
Weight: Regular
Copyright: Copyright (c) 2024-2025 Dmitry Tretyakov\n\nBased on Philips SAA52XX/SAA55XX/TDA93XX IC character set:\nCopyright (c) 1985-2001 NXP Semiconductors N.V.
Version: 0.1.5.20251023-0816
ItalicAngle: 0
UnderlinePosition: -100
UnderlineWidth: 50
Ascent: 800
Descent: 200
InvalidEm: 0
LayerCount: 2
Layer: 0 1 "+BBcEMAQ0BD0EOAQ5 +BD8EOwQwBD0A" 1
Layer: 1 1 "+BB8ENQRABDUENAQ9BDgEOQAA +BD8EOwQwBD0A" 0
XUID: [1021 189 -1959298516 7771]
StyleMap: 0x0000
FSType: 0
OS2Version: 4
OS2_WeightWidthSlopeOnly: 0
OS2_UseTypoMetrics: 1
CreationTime: 1720191932
ModificationTime: 1761202157
PfmFamily: 17
TTFWeight: 400
TTFWidth: 5
LineGap: 90
VLineGap: 0
Panose: 2 0 5 3 0 0 0 0 0 0
OS2TypoAscent: 800
OS2TypoAOffset: 0
OS2TypoDescent: -200
OS2TypoDOffset: 0
OS2TypoLinegap: 90
OS2WinAscent: 800
OS2WinAOffset: 0
OS2WinDescent: 200
OS2WinDOffset: 0
HheadAscent: 800
HheadAOffset: 0
HheadDescent: -200
HheadDOffset: 0
OS2SubXSize: 650
OS2SubYSize: 700
OS2SubXOff: 0
OS2SubYOff: 140
OS2SupXSize: 650
OS2SupYSize: 700
OS2SupXOff: 0
OS2SupYOff: 480
OS2StrikeYSize: 49
OS2StrikeYPos: 258
OS2CapHeight: 700
OS2XHeight: 500
OS2Vendor: 'PfEd'
OS2CodePages: 00000004.c2960000
OS2UnicodeRanges: 8000028f.1200f8ea.00000020.00000000
MarkAttachClasses: 1
DEI: 91125
ShortTable: maxp 16
  1
  0
  604
  240
  60
  0
  0
  2
  0
  1
  1
  0
  64
  0
  0
  0
EndShort

StartChar: exclam
Encoding: 33 33 4
Width: 450
GlyphClass: 2
Flags: W
LayerCount: 2
Back
Fore
SplineSet
125 700 m 1,0,1
 175 700 l 1,2,3
 175 200 l 1,4,5
 125 200 l 1,6,7
 125 700 l 1,0,1
175 0 m 1,8,9
 125 0 l 1,10,11
 125 100 l 1,12,13
 175 100 l 1,14,15
 175 0 l 1,8,9
EndSplineSet
Validated: 1
EndChar

StartChar: quotedbl
Encoding: 34 34 5
Width: 450
GlyphClass: 2
Flags: W
LayerCount: 2
Back
Fore
SplineSet
175 500 m 1,0,1
 175 700 l 1,2,3
 225 700 l 1,4,5
 225 500 l 1,6,7
 175 500 l 1,0,1
75 500 m 1,8,9
 75 700 l 1,10,11
 125 700 l 1,12,13
 125 500 l 1,14,15
 75 500 l 1,8,9
EndSplineSet
Validated: 1
EndChar

StartChar: numbersign
Encoding: 35 35 6
Width: 300
GlyphClass: 2
Flags: W
LayerCount: 2
Back
Fore
SplineSet
125 300 m 1,0,1
 175 300 l 1,2,3
 175 400 l 1,4,5
 125 400 l 1,6,7
 125 300 l 1,0,1
75 700 m 1,8,9
 125 700 l 1,10,11
 125 500 l 1,12,13
 175 500 l 1,14,15
 175 700 l 1,16,17
 225 700 l 1,18,19
 225 500 l 1,20,21
 275 500 l 1,22,23
 275 400 l 1,24,25
 225 400 l 1,26,27
 225 300 l 1,28,29
 275 300 l 1,30,31
 275 200 l 1,32,33
 225 200 l 1,34,35
 225 0 l 1,36,37
 175 0 l 1,38,39
 175 200 l 1,40,41
 125 200 l 1,42,43
 125 0 l 1,44,45
 75 0 l 1,46,47
 75 200 l 1,48,49
 25 200 l 1,50,51
 25 300 l 1,52,53
 75 300 l 1,54,55
 75 400 l 1,56,57
 25 400 l 1,58,59
 25 500 l 1,60,61
 75 500 l 1,62,63
 75 700 l 1,8,9
EndSplineSet
Validated: 1
EndChar

StartChar: dollar
Encoding: 36 36 7
Width: 300
GlyphClass: 2
Flags: W
LayerCount: 2
Back
Fore
SplineSet
225 100 m 1,0,1
 225 300 l 1,2,3
 175 300 l 1,4,5
 175 100 l 1,6,7
 225 100 l 1,0,1
125 600 m 1,8,9
 75 600 l 1,10,11
 75 400 l 1,12,13
 125 400 l 1,14,15
 125 600 l 1,8,9
175 800 m 1,16,17
 175 700 l 1,18,19
 250 700 l 1,20,21
 250 600 l 1,22,23
 275 600 l 1,24,25
 275 500 l 1,26,27
 225 500 l 1,28,29
 225 600 l 1,30,31
 175 600 l 1,32,33
 175 400 l 1,34,35
 250 400 l 1,36,37
 250 300 l 1,38,39
 275 300 l 1,40,41
 275 100 l 1,42,43
 250 100 l 1,44,45
 250 0 l 1,46,47
 175 0 l 1,48,49
 175 -100 l 1,50,51
 125 -100 l 1,52,53
 125 0 l 1,54,55
 50 0 l 1,56,57
 50 100 l 1,58,59
 25 100 l 1,60,61
 25 200 l 1,62,63
 75 200 l 1,64,65
 75 100 l 1,66,67
 125 100 l 1,68,69
 125 300 l 1,70,71
 50 300 l 1,72,73
 50 400 l 1,74,75
 25 400 l 1,76,77
 25 600 l 1,78,79
 50 600 l 1,80,81
 50 700 l 1,82,83
 125 700 l 1,84,85
 125 800 l 1,86,87
 175 800 l 1,16,17
EndSplineSet
Validated: 1
EndChar

StartChar: percent
Encoding: 37 37 8
Width: 300
GlyphClass: 2
Flags: W
LayerCount: 2
Back
Fore
SplineSet
200 700 m 1,0,1
 250 700 l 1,2,3
 250 600 l 1,4,5
 225 600 l 1,6,7
 225 500 l 1,8,9
 200 500 l 1,10,11
 200 400 l 1,12,13
 175 400 l 1,14,15
 175 300 l 1,16,17
 150 300 l 1,18,19
 150 200 l 1,20,21
 125 200 l 1,22,23
 125 100 l 1,24,25
 100 100 l 1,26,27
 100 0 l 1,28,29
 50 0 l 1,30,31
 50 100 l 1,32,33
 75 100 l 1,34,35
 75 200 l 1,36,37
 100 200 l 1,38,39
 100 300 l 1,40,41
 125 300 l 1,42,43
 125 400 l 1,44,45
 150 400 l 1,46,47
 150 500 l 1,48,49
 175 500 l 1,50,51
 175 600 l 1,52,53
 200 600 l 1,54,55
 200 700 l 1,0,1
225 100 m 1,56,57
 250 100 l 1,58,59
 250 200 l 1,60,61
 225 200 l 1,62,63
 225 100 l 1,56,57
200 300 m 1,64,65
 275 300 l 1,66,67
 275 200 l 1,68,69
 300 200 l 1,70,71
 300 100 l 1,72,73
 275 100 l 1,74,75
 275 0 l 1,76,77
 200 0 l 1,78,79
 200 100 l 1,80,81
 175 100 l 1,82,83
 175 200 l 1,84,85
 200 200 l 1,86,87
 200 300 l 1,64,65
50 600 m 1,88,89
 50 500 l 1,90,91
 75 500 l 1,92,93
 75 600 l 1,94,95
 50 600 l 1,88,89
0 600 m 1,96,97
 25 600 l 1,98,99
 25 700 l 1,100,101
 100 700 l 1,102,103
 100 600 l 1,104,105
 125 600 l 1,106,107
 125 500 l 1,108,109
 100 500 l 1,110,111
 100 400 l 1,112,113
 25 400 l 1,114,115
 25 500 l 1,116,117
 0 500 l 1,118,119
 0 600 l 1,96,97
EndSplineSet
Validated: 1
EndChar

StartChar: ampersand
Encoding: 38 38 9
Width: 300
GlyphClass: 2
Flags: W
LayerCount: 2
Back
Fore
SplineSet
113 300 m 1,0,1
 113 200 l 1,2,3
 87 200 l 1,4,5
 87 100 l 1,6,7
 187 100 l 1,8,9
 187 200 l 1,10,11
 163 200 l 1,12,13
 163 300 l 1,14,15
 113 300 l 1,0,1
113 600 m 1,16,17
 113 400 l 1,18,19
 163 400 l 1,20,21
 163 600 l 1,22,23
 113 600 l 1,16,17
87 700 m 1,24,25
 187 700 l 1,26,27
 187 600 l 1,28,29
 213 600 l 1,30,31
 213 400 l 1,32,33
 187 400 l 1,34,35
 187 300 l 1,36,37
 213 300 l 1,38,39
 213 200 l 1,40,41
 237 200 l 1,42,43
 237 300 l 1,44,45
 287 300 l 1,46,47
 287 200 l 1,48,49
 263 200 l 1,50,51
 263 100 l 1,52,53
 313 100 l 1,54,55
 313 0 l 1,56,57
 237 0 l 1,58,59
 237 100 l 1,60,61
 213 100 l 1,62,63
 213 0 l 1,64,65
 63 0 l 1,66,67
 63 100 l 1,68,69
 37 100 l 1,70,71
 37 200 l 1,72,73
 63 200 l 1,74,75
 63 300 l 1,76,77
 87 300 l 1,78,79
 87 400 l 1,80,81
 63 400 l 1,82,83
 63 600 l 1,84,85
 87 600 l 1,86,87
 87 700 l 1,24,25
EndSplineSet
Validated: 1
EndChar

StartChar: quotesingle
Encoding: 39 39 10
Width: 300
GlyphClass: 2
Flags: W
LayerCount: 2
Back
Fore
SplineSet
125 700 m 1,0,1
 175 700 l 1,2,3
 175 500 l 1,4,5
 125 500 l 1,6,7
 125 700 l 1,0,1
EndSplineSet
Validated: 1
EndChar

StartChar: parenleft
Encoding: 40 40 11
Width: 300
GlyphClass: 2
Flags: W
LayerCount: 2
Back
Fore
SplineSet
113 600 m 1,0,1
 113 700 l 1,2,3
 187 700 l 1,4,5
 187 600 l 1,6,7
 137 600 l 1,8,9
 137 500 l 1,10,11
 113 500 l 1,12,13
 113 200 l 1,14,15
 137 200 l 1,16,17
 137 100 l 1,18,19
 187 100 l 1,20,21
 187 0 l 1,22,23
 113 0 l 1,24,25
 113 100 l 1,26,27
 87 100 l 1,28,29
 87 200 l 1,30,31
 63 200 l 1,32,33
 63 500 l 1,34,35
 87 500 l 1,36,37
 87 600 l 1,38,39
 113 600 l 1,0,1
EndSplineSet
Validated: 1
EndChar

StartChar: parenright
Encoding: 41 41 12
Width: 300
GlyphClass: 2
Flags: W
LayerCount: 2
Back
Fore
SplineSet
113 700 m 1,0,1
 187 700 l 1,2,3
 187 600 l 1,4,5
 213 600 l 1,6,7
 213 500 l 1,8,9
 237 500 l 1,10,11
 237 200 l 1,12,13
 213 200 l 1,14,15
 213 100 l 1,16,17
 187 100 l 1,18,19
 187 0 l 1,20,21
 113 0 l 1,22,23
 113 100 l 1,24,25
 163 100 l 1,26,27
 163 200 l 1,28,29
 187 200 l 1,30,31
 187 500 l 1,32,33
 163 500 l 1,34,35
 163 600 l 1,36,37
 113 600 l 1,38,39
 113 700 l 1,0,1
EndSplineSet
Validated: 1
EndChar

StartChar: asterisk
Encoding: 42 42 13
Width: 300
GlyphClass: 2
Flags: W
LayerCount: 2
Back
Fore
SplineSet
25 600 m 1,0,1
 75 600 l 1,2,3
 75 500 l 1,4,5
 99 500 l 1,6,7
 99 484 99 484 99.5 450 c 0
 100 416 100 416 100 400 c 1,8,9
 125 400 l 1,10,11
 125 700 l 1,12,13
 175 700 l 1,14,15
 175 400 l 1,16,17
 200 400 l 1,18,19
 200 500 l 1,20,21
 225 500 l 1,22,23
 225 600 l 1,24,25
 275 600 l 1,26,27
 275 500 l 1,28,29
 250 500 l 1,30,31
 250 400 l 1,32,33
 225 400 l 1,34,35
 225 300 l 1,36,37
 250 300 l 1,38,39
 250 200 l 1,40,41
 275 200 l 1,42,43
 275 100 l 1,44,45
 225 100 l 1,46,47
 225 200 l 1,48,49
 200 200 l 1,50,51
 200 300 l 1,52,53
 175 300 l 1,54,55
 175 0 l 1,56,57
 125 0 l 1,58,59
 125 300 l 1,60,61
 100 300 l 1,62,63
 100 200 l 1,64,65
 75 200 l 1,66,67
 75 100 l 1,68,69
 25 100 l 1,70,71
 25 200 l 1,72,73
 50 200 l 1,74,75
 50 300 l 1,76,77
 75 300 l 1,78,79
 75 400 l 1,80,81
 50 400 l 1,82,83
 50 500 l 1,84,85
 25 500 l 1,86,87
 25 600 l 1,0,1
EndSplineSet
Validated: 1
EndChar

StartChar: plus
Encoding: 43 43 14
Width: 300
GlyphClass: 2
Flags: W
LayerCount: 2
Back
Fore
SplineSet
125 550 m 1,0,1
 175 550 l 1,2,3
 175 350 l 1,4,5
 250 350 l 1,6,7
 250 250 l 1,8,9
 175 250 l 1,10,11
 175 50 l 1,12,13
 125 50 l 1,14,15
 125 250 l 1,16,17
 50 250 l 1,18,19
 50 350 l 1,20,21
 125 350 l 1,22,23
 125 550 l 1,0,1
EndSplineSet
Validated: 1
EndChar

StartChar: comma
Encoding: 44 44 15
Width: 300
GlyphClass: 2
Flags: W
LayerCount: 2
Back
Fore
SplineSet
87 -100 m 1,0,1
 111 -100 l 1,2,3
 111 0 l 1,4,5
 87 0 l 1,6,7
 87 100 l 1,8,9
 161 100 l 1,10,11
 161 -100 l 1,12,13
 137 -100 l 1,14,15
 137 -200 l 1,16,17
 87 -200 l 1,18,19
 87 -100 l 1,0,1
EndSplineSet
Validated: 1
EndChar

StartChar: hyphen
Encoding: 45 45 16
Width: 300
GlyphClass: 2
Flags: W
LayerCount: 2
Back
Fore
SplineSet
50 250 m 1,0,1
 50 350 l 1,2,3
 250 350 l 1,4,5
 250 250 l 1,6,7
 50 250 l 1,0,1
EndSplineSet
Validated: 1
EndChar

StartChar: period
Encoding: 46 46 17
Width: 300
GlyphClass: 2
Flags: W
LayerCount: 2
Back
Fore
SplineSet
175 0 m 1,0,1
 125 0 l 1,2,3
 125 100 l 1,4,5
 175 100 l 1,6,7
 175 0 l 1,0,1
EndSplineSet
Validated: 1
EndChar

StartChar: slash
Encoding: 47 47 18
Width: 300
GlyphClass: 2
Flags: W
LayerCount: 2
Back
Fore
SplineSet
200 700 m 1,0,1
 250 700 l 1,2,3
 250 600 l 1,4,5
 225 600 l 1,6,7
 225 500 l 1,8,9
 200 500 l 1,10,11
 200 400 l 1,12,13
 175 400 l 1,14,15
 175 300 l 1,16,17
 150 300 l 1,18,19
 150 200 l 1,20,21
 125 200 l 1,22,23
 125 100 l 1,24,25
 100 100 l 1,26,27
 100 0 l 1,28,29
 50 0 l 1,30,31
 50 100 l 1,32,33
 75 100 l 1,34,35
 75 200 l 1,36,37
 100 200 l 1,38,39
 100 300 l 1,40,41
 125 300 l 1,42,43
 125 400 l 1,44,45
 150 400 l 1,46,47
 150 500 l 1,48,49
 175 500 l 1,50,51
 175 600 l 1,52,53
 200 600 l 1,54,55
 200 700 l 1,0,1
EndSplineSet
Validated: 1
EndChar

StartChar: zero
Encoding: 48 48 19
Width: 300
GlyphClass: 2
Flags: W
LayerCount: 2
Back
Fore
SplineSet
213 600 m 1,0,1
 137 600 l 1,2,3
 137 100 l 1,4,5
 213 100 l 1,6,7
 213 600 l 1,0,1
87 700 m 1,8,9
 263 700 l 1,10,11
 263 600 l 1,12,13
 287 600 l 1,14,15
 287 100 l 1,16,17
 263 100 l 1,18,19
 263 0 l 1,20,21
 87 0 l 1,22,23
 87 100 l 1,24,25
 63 100 l 1,26,27
 63 600 l 1,28,29
 87 600 l 1,30,31
 87 700 l 1,8,9
EndSplineSet
Validated: 1
EndChar

StartChar: one
Encoding: 49 49 20
Width: 300
GlyphClass: 2
Flags: W
LayerCount: 2
Back
Fore
SplineSet
113 500 m 1,0,1
 113 600 l 1,2,3
 163 600 l 1,4,5
 163 700 l 1,6,7
 237 700 l 1,8,9
 237 0 l 1,10,11
 163 0 l 1,12,13
 163 500 l 1,14,15
 113 500 l 1,0,1
EndSplineSet
Validated: 1
EndChar

StartChar: two
Encoding: 50 50 21
Width: 300
GlyphClass: 2
Flags: W
LayerCount: 2
Back
Fore
SplineSet
113 500 m 1,0,1
 63 500 l 1,2,3
 63 600 l 1,4,5
 87 600 l 1,6,7
 87 700 l 1,8,9
 263 700 l 1,10,11
 263 600 l 1,12,13
 287 600 l 1,14,15
 287 400 l 1,16,17
 263 400 l 1,18,19
 263 300 l 1,20,21
 237 300 l 1,22,23
 237 200 l 1,24,25
 187 200 l 1,26,27
 187 100 l 1,28,29
 287 100 l 1,30,31
 287 0 l 1,32,33
 63 0 l 1,34,35
 63 100 l 1,36,37
 87 100 l 1,38,39
 87 200 l 1,40,41
 137 200 l 1,42,43
 137 300 l 1,44,45
 187 300 l 1,46,47
 187 400 l 1,48,49
 213 400 l 1,50,51
 213 600 l 1,52,53
 113 600 l 1,54,55
 113 500 l 1,0,1
EndSplineSet
Validated: 1
EndChar

StartChar: three
Encoding: 51 51 22
Width: 300
GlyphClass: 2
Flags: W
LayerCount: 2
Back
Fore
SplineSet
63 700 m 1,0,1
 287 700 l 1,2,3
 287 600 l 1,4,5
 263 600 l 1,6,7
 263 500 l 1,8,9
 237 500 l 1,10,11
 237 400 l 1,12,13
 287 400 l 1,14,15
 287 100 l 1,16,17
 263 100 l 1,18,19
 263 0 l 1,20,21
 63 0 l 1,22,23
 63 100 l 1,24,25
 237 100 l 1,26,27
 237 300 l 1,28,29
 137 300 l 1,30,31
 137 400 l 1,32,33
 187 400 l 1,34,35
 187 500 l 1,36,37
 213 500 l 1,38,39
 213 600 l 1,40,41
 188 600 188 600 138 600.5 c 0
 88 601 88 601 63 601 c 1,42,43
 63 700 l 1,0,1
EndSplineSet
Validated: 1
EndChar

StartChar: four
Encoding: 52 52 23
Width: 300
GlyphClass: 2
Flags: W
LayerCount: 2
Back
Fore
SplineSet
213 700 m 1,0,1
 287 700 l 1,2,3
 287 600 l 1,4,5
 263 600 l 1,6,7
 263 500 l 1,8,9
 213 500 l 1,10,11
 213 400 l 1,12,13
 163 400 l 1,14,15
 163 300 l 1,16,17
 137 300 l 1,18,19
 137 200 l 1,20,21
 213 200 l 1,22,23
 213 300 l 1,24,25
 287 300 l 1,26,27
 287 0 l 1,28,29
 213 0 l 1,30,31
 213 100 l 1,32,33
 63 100 l 1,34,35
 63 300 l 1,36,37
 87 300 l 1,38,39
 87 400 l 1,40,41
 137 400 l 1,42,43
 137 500 l 1,44,45
 163 500 l 1,46,47
 163 600 l 1,48,49
 213 600 l 1,50,51
 213 700 l 1,0,1
EndSplineSet
Validated: 1
EndChar

StartChar: five
Encoding: 53 53 24
Width: 300
GlyphClass: 2
Flags: W
LayerCount: 2
Back
Fore
SplineSet
263 700 m 1,0,1
 263 600 l 1,2,3
 113 600 l 1,4,5
 113 400 l 1,6,7
 263 400 l 1,8,9
 263 300 l 1,10,11
 287 300 l 1,12,13
 287 100 l 1,14,15
 263 100 l 1,16,17
 263 0 l 1,18,19
 87 0 l 1,20,21
 87 100 l 1,22,23
 63 100 l 1,24,25
 63 200 l 1,26,27
 113 200 l 1,28,29
 113 100 l 1,30,31
 213 100 l 1,32,33
 213 300 l 1,34,35
 63 300 l 1,36,37
 63 700 l 1,38,39
 263 700 l 1,0,1
EndSplineSet
Validated: 1
EndChar

StartChar: six
Encoding: 54 54 25
Width: 300
GlyphClass: 2
Flags: W
LayerCount: 2
Back
Fore
SplineSet
237 300 m 1,0,1
 137 300 l 1,2,3
 137 100 l 1,4,5
 237 100 l 1,6,7
 237 300 l 1,0,1
213 700 m 1,8,9
 213 600 l 1,10,11
 187 600 l 1,12,13
 187 500 l 1,14,15
 163 500 l 1,16,17
 163 400 l 1,18,19
 263 400 l 1,20,21
 263 300 l 1,22,23
 287 300 l 1,24,25
 287 100 l 1,26,27
 263 100 l 1,28,29
 263 0 l 1,30,31
 87 0 l 1,32,33
 87 100 l 1,34,35
 63 100 l 1,36,37
 63 400 l 1,38,39
 87 400 l 1,40,41
 87 500 l 1,42,43
 113 500 l 1,44,45
 113 600 l 1,46,47
 137 600 l 1,48,49
 137 700 l 1,50,51
 213 700 l 1,8,9
EndSplineSet
Validated: 1
EndChar

StartChar: seven
Encoding: 55 55 26
Width: 300
GlyphClass: 2
Flags: W
LayerCount: 2
Back
Fore
SplineSet
25 700 m 1,0,1
 275 700 l 1,2,3
 275 600 l 1,4,5
 250 600 l 1,6,7
 250 500 l 1,8,9
 225 500 l 1,10,11
 225 400 l 1,12,13
 200 400 l 1,14,15
 200 300 l 1,16,17
 175 300 l 1,18,19
 175 200 l 1,20,21
 150 200 l 1,22,23
 150 100 l 1,24,25
 125 100 l 1,26,27
 125 0 l 1,28,29
 50 0 l 1,30,31
 50 100 l 1,32,33
 75 100 l 1,34,35
 75 200 l 1,36,37
 100 200 l 1,38,39
 100 300 l 1,40,41
 125 300 l 1,42,43
 125 400 l 1,44,45
 150 400 l 1,46,47
 150 500 l 1,48,49
 175 500 l 1,50,51
 175 600 l 1,52,53
 25 600 l 1,54,55
 25 700 l 1,0,1
EndSplineSet
Validated: 1
EndChar

StartChar: eight
Encoding: 56 56 27
Width: 300
GlyphClass: 2
Flags: W
LayerCount: 2
Back
Fore
SplineSet
137 100 m 1,0,1
 213 100 l 1,2,3
 213 300 l 1,4,5
 137 300 l 1,6,7
 137 100 l 1,0,1
137 600 m 1,8,9
 137 400 l 1,10,11
 213 400 l 1,12,13
 213 600 l 1,14,15
 137 600 l 1,8,9
87 700 m 1,16,17
 263 700 l 1,18,19
 263 600 l 1,20,21
 287 600 l 1,22,23
 287 400 l 1,24,25
 237 400 l 1,26,27
 237 300 l 1,28,29
 287 300 l 1,30,31
 287 100 l 1,32,33
 263 100 l 1,34,35
 263 0 l 1,36,37
 87 0 l 1,38,39
 87 100 l 1,40,41
 63 100 l 1,42,43
 63 300 l 1,44,45
 113 300 l 1,46,47
 113 400 l 1,48,49
 63 400 l 1,50,51
 63 600 l 1,52,53
 87 600 l 1,54,55
 87 700 l 1,16,17
EndSplineSet
Validated: 1
EndChar

StartChar: nine
Encoding: 57 57 28
Width: 300
GlyphClass: 2
Flags: W
LayerCount: 2
Back
Fore
SplineSet
113 600 m 1,0,1
 113 400 l 1,2,3
 213 400 l 1,4,5
 213 600 l 1,6,7
 113 600 l 1,0,1
87 600 m 1,8,9
 87 700 l 1,10,11
 263 700 l 1,12,13
 263 600 l 1,14,15
 287 600 l 1,16,17
 287 300 l 1,18,19
 262 300 l 1,20,21
 262 284 262 284 262.5 250 c 0
 263 216 263 216 263 200 c 1,22,23
 237 200 l 1,24,25
 237 100 l 1,26,27
 213 100 l 1,28,29
 213 0 l 1,30,31
 137 0 l 1,32,33
 137 100 l 1,34,35
 163 100 l 1,36,37
 163 200 l 1,38,39
 187 200 l 1,40,41
 187 300 l 1,42,43
 87 300 l 1,44,45
 87 400 l 1,46,47
 63 400 l 1,48,49
 63 600 l 1,50,51
 87 600 l 1,8,9
EndSplineSet
Validated: 1
EndChar

StartChar: colon
Encoding: 58 58 29
Width: 300
GlyphClass: 2
Flags: W
LayerCount: 2
Back
Fore
SplineSet
125 200 m 1,0,1
 175 200 l 1,2,3
 175 0 l 1,4,5
 125 0 l 1,6,7
 125 200 l 1,0,1
125 500 m 1,8,9
 175 500 l 1,10,11
 175 300 l 1,12,13
 125 300 l 1,14,15
 125 500 l 1,8,9
EndSplineSet
Validated: 1
EndChar

StartChar: semicolon
Encoding: 59 59 30
Width: 300
GlyphClass: 2
Flags: W
LayerCount: 2
Back
Fore
SplineSet
113 100 m 1,0,1
 163 100 l 1,2,3
 163 -100 l 1,4,5
 137 -100 l 1,6,7
 137 -200 l 1,8,9
 87 -200 l 1,10,11
 87 -100 l 1,12,13
 113 -100 l 1,14,15
 113 100 l 1,0,1
113 500 m 1,16,17
 163 500 l 1,18,19
 163 300 l 1,20,21
 113 300 l 1,22,23
 113 500 l 1,16,17
EndSplineSet
Validated: 1
EndChar

StartChar: less
Encoding: 60 60 31
Width: 300
GlyphClass: 2
Flags: W
LayerCount: 2
Back
Fore
SplineSet
213 700 m 1,0,1
 287 700 l 1,2,3
 287 600 l 1,4,5
 237 600 l 1,6,7
 237 500 l 1,8,9
 187 500 l 1,10,11
 187 400 l 1,12,13
 137 400 l 1,14,15
 137 300 l 1,16,17
 187 300 l 1,18,19
 187 200 l 1,20,21
 237 200 l 1,22,23
 237 100 l 1,24,25
 287 100 l 1,26,27
 287 0 l 1,28,29
 213 0 l 1,30,31
 213 100 l 1,32,33
 163 100 l 1,34,35
 163 200 l 1,36,37
 113 200 l 1,38,39
 113 300 l 1,40,41
 63 300 l 1,42,43
 63 400 l 1,44,45
 113 400 l 1,46,47
 113 500 l 1,48,49
 163 500 l 1,50,51
 163 600 l 1,52,53
 213 600 l 1,54,55
 213 700 l 1,0,1
EndSplineSet
Validated: 1
EndChar

StartChar: equal
Encoding: 61 61 32
Width: 300
GlyphClass: 2
Flags: W
LayerCount: 2
Back
Fore
SplineSet
50 500 m 1,0,1
 250 500 l 1,2,3
 250 400 l 1,4,5
 50 400 l 1,6,7
 50 500 l 1,0,1
50 300 m 1,8,9
 250 300 l 1,10,11
 250 200 l 1,12,13
 50 200 l 1,14,15
 50 300 l 1,8,9
EndSplineSet
Validated: 1
EndChar

StartChar: greater
Encoding: 62 62 33
Width: 300
GlyphClass: 2
Flags: W
LayerCount: 2
Back
Fore
SplineSet
63 600 m 1,0,1
 63 700 l 1,2,3
 137 700 l 1,4,5
 137 600 l 1,6,7
 187 600 l 1,8,9
 187 500 l 1,10,11
 237 500 l 1,12,13
 237 400 l 1,14,15
 287 400 l 1,16,17
 287 300 l 1,18,19
 237 300 l 1,20,21
 237 200 l 1,22,23
 187 200 l 1,24,25
 187 100 l 1,26,27
 137 100 l 1,28,29
 137 0 l 1,30,31
 63 0 l 1,32,33
 63 100 l 1,34,35
 113 100 l 1,36,37
 113 200 l 1,38,39
 163 200 l 1,40,41
 163 300 l 1,42,43
 213 300 l 1,44,45
 213 400 l 1,46,47
 163 400 l 1,48,49
 163 500 l 1,50,51
 113 500 l 1,52,53
 113 600 l 1,54,55
 63 600 l 1,0,1
EndSplineSet
Validated: 1
EndChar

StartChar: question
Encoding: 63 63 34
Width: 300
GlyphClass: 2
Flags: W
LayerCount: 2
Back
Fore
SplineSet
163 300 m 1,0,1
 213 300 l 1,2,3
 213 200 l 1,4,5
 163 200 l 1,6,7
 163 300 l 1,0,1
213 0 m 1,8,9
 163 0 l 1,10,11
 163 100 l 1,12,13
 213 100 l 1,14,15
 213 0 l 1,8,9
63 600 m 1,16,17
 87 600 l 1,18,19
 87 700 l 1,20,21
 263 700 l 1,22,23
 263 600 l 1,24,25
 287 600 l 1,26,27
 287 400 l 1,28,29
 262 400 l 1,30,31
 262 384 262 384 262.5 350 c 0
 263 316 263 316 263 300 c 1,32,33
 213 300 l 1,34,35
 213 400 l 1,36,37
 237 400 l 1,38,39
 237 600 l 1,40,41
 113 600 l 1,42,43
 113 400 l 1,44,45
 63 400 l 1,46,47
 63 600 l 1,16,17
EndSplineSet
Validated: 5
EndChar

StartChar: at
Encoding: 64 64 35
Width: 300
GlyphClass: 2
Flags: W
LayerCount: 2
Back
Fore
SplineSet
175 400 m 1,0,1
 175 200 l 1,2,3
 225 200 l 1,4,5
 225 400 l 1,6,7
 175 400 l 1,0,1
75 600 m 1,8,9
 75 700 l 1,10,11
 250 700 l 1,12,13
 250 600 l 1,14,15
 275 600 l 1,16,17
 275 100 l 1,18,19
 150 100 l 1,20,21
 150 200 l 1,22,23
 125 200 l 1,24,25
 125 400 l 1,26,27
 150 400 l 1,28,29
 150 500 l 1,30,31
 225 500 l 1,32,33
 225 600 l 1,34,35
 100 600 l 1,36,37
 100 500 l 1,38,39
 75 500 l 1,40,41
 75 100 l 1,42,43
 100 100 l 1,44,45
 100 0 l 1,46,47
 250 0 l 1,48,49
 250 -100 l 1,50,51
 75 -100 l 1,52,53
 75 0 l 1,54,55
 50 0 l 1,56,57
 50 100 l 1,58,59
 25 100 l 1,60,61
 25 500 l 1,62,63
 50 500 l 1,64,65
 50 600 l 1,66,67
 75 600 l 1,8,9
EndSplineSet
Validated: 1
EndChar

StartChar: A
Encoding: 65 65 36
Width: 300
GlyphClass: 2
Flags: W
LayerCount: 2
Back
Fore
SplineSet
75 400 m 1,0,1
 75 300 l 1,2,3
 225 300 l 1,4,5
 225 400 l 1,6,7
 200 400 l 1,8,9
 200 500 l 1,10,11
 175 500 l 1,12,13
 175 600 l 1,14,15
 125 600 l 1,16,17
 125 500 l 1,18,19
 100 500 l 1,20,21
 100 400 l 1,22,23
 75 400 l 1,0,1
75 0 m 1,24,25
 25 0 l 1,26,27
 25 400 l 1,28,29
 50 400 l 1,30,31
 50 500 l 1,32,33
 75 500 l 1,34,35
 75 600 l 1,36,37
 100 600 l 1,38,39
 100 700 l 1,40,41
 199 700 l 1,42,43
 199 684 199 684 199.5 650 c 0
 200 616 200 616 200 600 c 1,44,45
 225 600 l 1,46,47
 225 500 l 1,48,49
 250 500 l 1,50,51
 250 400 l 1,52,53
 275 400 l 1,54,55
 275 0 l 1,56,57
 225 0 l 1,58,59
 225 200 l 1,60,61
 75 200 l 1,62,63
 75 0 l 1,24,25
EndSplineSet
Validated: 1
EndChar

StartChar: B
Encoding: 66 66 37
Width: 300
GlyphClass: 2
Flags: W
LayerCount: 2
Back
Fore
SplineSet
113 600 m 1,0,1
 113 400 l 1,2,3
 237 400 l 1,4,5
 237 600 l 1,6,7
 113 600 l 1,0,1
113 300 m 1,8,9
 113 100 l 1,10,11
 237 100 l 1,12,13
 237 300 l 1,14,15
 113 300 l 1,8,9
63 0 m 1,16,17
 63 700 l 1,18,19
 263 700 l 1,20,21
 263 600 l 1,22,23
 287 600 l 1,24,25
 287 400 l 1,26,27
 263 400 l 1,28,29
 263 300 l 1,30,31
 287 300 l 1,32,33
 287 100 l 1,34,35
 263 100 l 1,36,37
 263 0 l 1,38,39
 63 0 l 1,16,17
EndSplineSet
Validated: 1
EndChar

StartChar: C
Encoding: 67 67 38
Width: 300
GlyphClass: 2
Flags: W
LayerCount: 2
Back
Fore
SplineSet
113 700 m 1,0,1
 263 700 l 1,2,3
 263 600 l 1,4,5
 287 600 l 1,6,7
 287 500 l 1,8,9
 237 500 l 1,10,11
 237 600 l 1,12,13
 137 600 l 1,14,15
 137 500 l 1,16,17
 113 500 l 1,18,19
 113 200 l 1,20,21
 137 200 l 1,22,23
 137 100 l 1,24,25
 237 100 l 1,26,27
 237 200 l 1,28,29
 287 200 l 1,30,31
 287 100 l 1,32,33
 263 100 l 1,34,35
 263 0 l 1,36,37
 113 0 l 1,38,39
 113 100 l 1,40,41
 87 100 l 1,42,43
 87 200 l 1,44,45
 63 200 l 1,46,47
 63 500 l 1,48,49
 87 500 l 1,50,51
 87 600 l 1,52,53
 113 600 l 1,54,55
 113 700 l 1,0,1
EndSplineSet
Validated: 1
EndChar

StartChar: D
Encoding: 68 68 39
Width: 300
GlyphClass: 2
Flags: W
LayerCount: 2
Back
Fore
SplineSet
113 600 m 1,0,1
 113 100 l 1,2,3
 213 100 l 1,4,5
 213 200 l 1,6,7
 237 200 l 1,8,9
 237 500 l 1,10,11
 213 500 l 1,12,13
 213 600 l 1,14,15
 113 600 l 1,0,1
63 700 m 1,16,17
 237 700 l 1,18,19
 237 600 l 1,20,21
 263 600 l 1,22,23
 263 500 l 1,24,25
 287 500 l 1,26,27
 287 200 l 1,28,29
 263 200 l 1,30,31
 263 100 l 1,32,33
 237 100 l 1,34,35
 237 0 l 1,36,37
 63 0 l 1,38,39
 63 700 l 1,16,17
EndSplineSet
Validated: 1
EndChar

StartChar: E
Encoding: 69 69 40
Width: 300
GlyphClass: 2
Flags: W
LayerCount: 2
Back
Fore
SplineSet
287 600 m 1,0,1
 113 600 l 1,2,3
 113 400 l 1,4,5
 237 400 l 1,6,7
 237 300 l 1,8,9
 113 300 l 1,10,11
 113 100 l 1,12,13
 287 100 l 1,14,15
 287 0 l 1,16,17
 63 0 l 1,18,19
 63 700 l 1,20,21
 287 700 l 1,22,23
 287 600 l 1,0,1
EndSplineSet
Validated: 1
EndChar

StartChar: F
Encoding: 70 70 41
Width: 300
GlyphClass: 2
Flags: W
LayerCount: 2
Back
Fore
SplineSet
113 0 m 1,0,1
 63 0 l 1,2,3
 63 700 l 1,4,5
 287 700 l 1,6,7
 287 600 l 1,8,9
 113 600 l 1,10,11
 113 400 l 1,12,13
 237 400 l 1,14,15
 237 300 l 1,16,17
 113 300 l 1,18,19
 113 0 l 1,0,1
EndSplineSet
Validated: 1
EndChar

StartChar: G
Encoding: 71 71 42
Width: 300
GlyphClass: 2
Flags: W
LayerCount: 2
Back
Fore
SplineSet
237 600 m 1,0,1
 113 600 l 1,2,3
 113 100 l 1,4,5
 237 100 l 1,6,7
 237 200 l 1,8,9
 163 200 l 1,10,11
 163 300 l 1,12,13
 287 300 l 1,14,15
 287 100 l 1,16,17
 263 100 l 1,18,19
 263 0 l 1,20,21
 87 0 l 1,22,23
 87 100 l 1,24,25
 63 100 l 1,26,27
 63 600 l 1,28,29
 87 600 l 1,30,31
 87 700 l 1,32,33
 263 700 l 1,34,35
 263 600 l 1,36,37
 287 600 l 1,38,39
 287 500 l 1,40,41
 237 500 l 1,42,43
 237 600 l 1,0,1
EndSplineSet
Validated: 1
EndChar

StartChar: H
Encoding: 72 72 43
Width: 300
GlyphClass: 2
Flags: W
LayerCount: 2
Back
Fore
SplineSet
63 700 m 1,0,1
 113 700 l 1,2,3
 113 400 l 1,4,5
 237 400 l 1,6,7
 237 700 l 1,8,9
 287 700 l 1,10,11
 287 0 l 1,12,13
 237 0 l 1,14,15
 237 300 l 1,16,17
 113 300 l 1,18,19
 113 0 l 1,20,21
 63 0 l 1,22,23
 63 700 l 1,0,1
EndSplineSet
Validated: 1
EndChar

StartChar: I
Encoding: 73 73 44
Width: 300
GlyphClass: 2
Flags: W
LayerCount: 2
Back
Fore
SplineSet
50 700 m 1,0,1
 250 700 l 1,2,3
 250 600 l 1,4,5
 175 600 l 1,6,7
 175 100 l 1,8,9
 250 100 l 1,10,11
 250 0 l 1,12,13
 50 0 l 1,14,15
 50 100 l 1,16,17
 125 100 l 1,18,19
 125 600 l 1,20,21
 50 600 l 1,22,23
 50 700 l 1,0,1
EndSplineSet
Validated: 1
EndChar

StartChar: J
Encoding: 74 74 45
Width: 300
GlyphClass: 2
Flags: W
LayerCount: 2
Back
Fore
SplineSet
237 700 m 1,0,1
 287 700 l 1,2,3
 287 100 l 1,4,5
 263 100 l 1,6,7
 263 0 l 1,8,9
 87 0 l 1,10,11
 87 100 l 1,12,13
 63 100 l 1,14,15
 63 200 l 1,16,17
 113 200 l 1,18,19
 113 100 l 1,20,21
 237 100 l 1,22,23
 237 700 l 1,0,1
EndSplineSet
Validated: 1
EndChar

StartChar: K
Encoding: 75 75 46
Width: 300
GlyphClass: 2
Flags: W
LayerCount: 2
Back
Fore
SplineSet
63 700 m 1,0,1
 113 700 l 1,2,3
 113 400 l 1,4,5
 137 400 l 1,6,7
 137 500 l 1,8,9
 187 500 l 1,10,11
 187 600 l 1,12,13
 213 600 l 1,14,15
 213 700 l 1,16,17
 287 700 l 1,18,19
 287 600 l 1,20,21
 237 600 l 1,22,23
 237 500 l 1,24,25
 213 500 l 1,26,27
 213 400 l 1,28,29
 163 400 l 1,30,31
 163 300 l 1,32,33
 213 300 l 1,34,35
 213 200 l 1,36,37
 237 200 l 1,38,39
 237 100 l 1,40,41
 287 100 l 1,42,43
 287 0 l 1,44,45
 213 0 l 1,46,47
 213 100 l 1,48,49
 187 100 l 1,50,51
 187 200 l 1,52,53
 137 200 l 1,54,55
 137 300 l 1,56,57
 113 300 l 1,58,59
 113 0 l 1,60,61
 63 0 l 1,62,63
 63 700 l 1,0,1
EndSplineSet
Validated: 1
EndChar

StartChar: L
Encoding: 76 76 47
Width: 300
GlyphClass: 2
Flags: W
LayerCount: 2
Back
Fore
SplineSet
63 700 m 1,0,1
 113 700 l 1,2,3
 113 100 l 1,4,5
 287 100 l 1,6,7
 287 0 l 1,8,9
 63 0 l 1,10,11
 63 700 l 1,0,1
EndSplineSet
Validated: 1
EndChar

StartChar: M
Encoding: 77 77 48
Width: 300
GlyphClass: 2
Flags: W
LayerCount: 2
Back
Fore
SplineSet
75 0 m 1,0,1
 25 0 l 1,2,3
 25 700 l 1,4,5
 100 700 l 1,6,7
 100 600 l 1,8,9
 125 600 l 1,10,11
 125 500 l 1,12,13
 175 500 l 1,14,15
 175 600 l 1,16,17
 200 600 l 1,18,19
 200 700 l 1,20,21
 275 700 l 1,22,23
 275 0 l 1,24,25
 225 0 l 1,26,27
 225 500 l 1,28,29
 200 500 l 1,30,31
 200 400 l 1,32,33
 175 400 l 1,34,35
 175 300 l 1,36,37
 125 300 l 1,38,39
 125 400 l 1,40,41
 100 400 l 1,42,43
 100 500 l 1,44,45
 75 500 l 1,46,47
 75 0 l 1,0,1
EndSplineSet
Validated: 1
EndChar

StartChar: N
Encoding: 78 78 49
Width: 300
GlyphClass: 2
Flags: W
LayerCount: 2
Back
Fore
SplineSet
25 700 m 1,0,1
 100 700 l 1,2,3
 100 600 l 1,4,5
 125 600 l 1,6,7
 125 500 l 1,8,9
 150 500 l 1,10,11
 150 400 l 1,12,13
 175 400 l 1,14,15
 175 300 l 1,16,17
 200 300 l 1,18,19
 200 200 l 1,20,21
 225 200 l 1,22,23
 225 700 l 1,24,25
 275 700 l 1,26,27
 275 0 l 1,28,29
 200 0 l 1,30,31
 200 100 l 1,32,33
 175 100 l 1,34,35
 175 200 l 1,36,37
 150 200 l 1,38,39
 150 300 l 1,40,41
 125 300 l 1,42,43
 125 400 l 1,44,45
 100 400 l 1,46,47
 100 500 l 1,48,49
 75 500 l 1,50,51
 75 0 l 1,52,53
 25 0 l 1,54,55
 25 700 l 1,0,1
EndSplineSet
Validated: 1
EndChar

StartChar: O
Encoding: 79 79 50
Width: 300
GlyphClass: 2
Flags: W
LayerCount: 2
Back
Fore
SplineSet
200 100 m 1,0,1
 200 200 l 1,2,3
 225 200 l 1,4,5
 225 500 l 1,6,7
 200 500 l 1,8,9
 200 600 l 1,10,11
 100 600 l 1,12,13
 100 500 l 1,14,15
 75 500 l 1,16,17
 75 200 l 1,18,19
 100 200 l 1,20,21
 100 100 l 1,22,23
 200 100 l 1,0,1
225 0 m 1,24,25
 75 0 l 1,26,27
 75 100 l 1,28,29
 50 100 l 1,30,31
 50 200 l 1,32,33
 25 200 l 1,34,35
 25 500 l 1,36,37
 50 500 l 1,38,39
 50 600 l 1,40,41
 75 600 l 1,42,43
 75 700 l 1,44,45
 225 700 l 1,46,47
 225 600 l 1,48,49
 250 600 l 1,50,51
 250 500 l 1,52,53
 275 500 l 1,54,55
 275 200 l 1,56,57
 250 200 l 1,58,59
 250 100 l 1,60,61
 225 100 l 1,62,63
 225 0 l 1,24,25
EndSplineSet
Validated: 1
EndChar

StartChar: P
Encoding: 80 80 51
Width: 300
GlyphClass: 2
Flags: W
LayerCount: 2
Back
Fore
SplineSet
113 600 m 1,0,1
 113 400 l 1,2,3
 237 400 l 1,4,5
 237 600 l 1,6,7
 113 600 l 1,0,1
63 700 m 1,8,9
 263 700 l 1,10,11
 263 650 l 1,12,13
 287 650 l 1,14,15
 287 400 l 1,16,17
 263 400 l 1,18,19
 263 300 l 1,20,21
 113 300 l 1,22,23
 113 0 l 1,24,25
 63 0 l 1,26,27
 63 700 l 1,8,9
EndSplineSet
Validated: 1
EndChar

StartChar: Q
Encoding: 81 81 52
Width: 300
GlyphClass: 2
Flags: W
LayerCount: 2
Back
Fore
SplineSet
75 600 m 1,0,1
 75 100 l 1,2,3
 150 100 l 1,4,5
 150 200 l 1,6,7
 200 200 l 1,8,9
 200 100 l 1,10,11
 225 100 l 1,12,13
 225 600 l 1,14,15
 75 600 l 1,0,1
50 700 m 1,16,17
 250 700 l 1,18,19
 250 600 l 1,20,21
 275 600 l 1,22,23
 275 100 l 1,24,25
 250 100 l 1,26,27
 250 0 l 1,28,29
 225 0 l 1,30,31
 225 -100 l 1,32,33
 275 -100 l 1,34,35
 275 -200 l 1,36,37
 200 -200 l 1,38,39
 200 -100 l 1,40,41
 175 -100 l 1,42,43
 175 0 l 1,44,45
 50 0 l 1,46,47
 50 100 l 1,48,49
 25 100 l 1,50,51
 25 600 l 1,52,53
 50 600 l 1,54,55
 50 700 l 1,16,17
EndSplineSet
Validated: 1
EndChar

StartChar: R
Encoding: 82 82 53
Width: 300
GlyphClass: 2
Flags: W
LayerCount: 2
Back
Fore
SplineSet
113 600 m 1,0,1
 113 400 l 1,2,3
 237 400 l 1,4,5
 237 600 l 1,6,7
 113 600 l 1,0,1
63 700 m 1,8,9
 263 700 l 1,10,11
 263 650 l 1,12,13
 287 650 l 1,14,15
 287 400 l 1,16,17
 263 400 l 1,18,19
 263 300 l 1,20,21
 213 300 l 1,22,23
 213 200 l 1,24,25
 237 200 l 1,26,27
 237 100 l 1,28,29
 287 100 l 1,30,31
 287 0 l 1,32,33
 213 0 l 1,34,35
 213 100 l 1,36,37
 187 100 l 1,38,39
 187 200 l 1,40,41
 163 200 l 1,42,43
 163 300 l 1,44,45
 113 300 l 1,46,47
 113 0 l 1,48,49
 63 0 l 1,50,51
 63 700 l 1,8,9
EndSplineSet
Validated: 1
EndChar

StartChar: S
Encoding: 83 83 54
Width: 300
GlyphClass: 2
Flags: W
LayerCount: 2
Back
Fore
SplineSet
87 600 m 1,0,1
 87 700 l 1,2,3
 263 700 l 1,4,5
 263 600 l 1,6,7
 113 600 l 1,8,9
 113 400 l 1,10,11
 263 400 l 1,12,13
 263 300 l 1,14,15
 287 300 l 1,16,17
 287 100 l 1,18,19
 263 100 l 1,20,21
 263 0 l 1,22,23
 87 0 l 1,24,25
 87 100 l 1,26,27
 237 100 l 1,28,29
 237 300 l 1,30,31
 87 300 l 1,32,33
 87 400 l 1,34,35
 63 400 l 1,36,37
 63 600 l 1,38,39
 87 600 l 1,0,1
EndSplineSet
Validated: 1
EndChar

StartChar: T
Encoding: 84 84 55
Width: 300
GlyphClass: 2
Flags: W
LayerCount: 2
Back
Fore
SplineSet
25 700 m 1,0,1
 275 700 l 1,2,3
 275 600 l 1,4,5
 175 600 l 1,6,7
 175 0 l 1,8,9
 125 0 l 1,10,11
 125 600 l 1,12,13
 25 600 l 1,14,15
 25 700 l 1,0,1
EndSplineSet
Validated: 1
EndChar

StartChar: U
Encoding: 85 85 56
Width: 300
GlyphClass: 2
Flags: W
LayerCount: 2
Back
Fore
SplineSet
63 700 m 1,0,1
 113 700 l 1,2,3
 113 100 l 1,4,5
 237 100 l 1,6,7
 237 700 l 1,8,9
 287 700 l 1,10,11
 287 100 l 1,12,13
 263 100 l 1,14,15
 263 0 l 1,16,17
 87 0 l 1,18,19
 87 100 l 1,20,21
 63 100 l 1,22,23
 63 700 l 1,0,1
EndSplineSet
Validated: 1
EndChar

StartChar: V
Encoding: 86 86 57
Width: 300
GlyphClass: 2
Flags: W
LayerCount: 2
Back
Fore
SplineSet
75 700 m 1,0,1
 125 700 l 1,2,3
 125 500 l 1,4,5
 150 500 l 1,6,7
 150 300 l 1,8,9
 175 300 l 1,10,11
 175 200 l 1,12,13
 225 200 l 1,14,15
 225 300 l 1,16,17
 250 300 l 1,18,19
 250 500 l 1,20,21
 275 500 l 1,22,23
 275 700 l 1,24,25
 325 700 l 1,26,27
 325 500 l 1,28,29
 300 500 l 1,30,31
 300 300 l 1,32,33
 275 300 l 1,34,35
 275 200 l 1,36,37
 250 200 l 1,38,39
 250 100 l 1,40,41
 225 100 l 1,42,43
 225 0 l 1,44,45
 175 0 l 1,46,47
 175 100 l 1,48,49
 150 100 l 1,50,51
 150 200 l 1,52,53
 125 200 l 1,54,55
 125 300 l 1,56,57
 100 300 l 1,58,59
 100 500 l 1,60,61
 75 500 l 1,62,63
 75 700 l 1,0,1
EndSplineSet
Validated: 1
EndChar

StartChar: W
Encoding: 87 87 58
Width: 300
GlyphClass: 2
Flags: W
LayerCount: 2
Back
Fore
SplineSet
25 700 m 1,0,1
 75 700 l 1,2,3
 75 200 l 1,4,5
 100 200 l 1,6,7
 100 300 l 1,8,9
 125 300 l 1,10,11
 125 400 l 1,12,13
 175 400 l 1,14,15
 175 300 l 1,16,17
 200 300 l 1,18,19
 200 200 l 1,20,21
 225 200 l 1,22,23
 225 700 l 1,24,25
 275 700 l 1,26,27
 275 200 l 1,28,29
 250 200 l 1,30,31
 250 0 l 1,32,33
 200 0 l 1,34,35
 200 100 l 1,36,37
 175 100 l 1,38,39
 175 200 l 1,40,41
 125 200 l 1,42,43
 125 100 l 1,44,45
 100 100 l 1,46,47
 100 0 l 1,48,49
 50 0 l 1,50,51
 50 200 l 1,52,53
 25 200 l 1,54,55
 25 700 l 1,0,1
EndSplineSet
Validated: 1
EndChar

StartChar: X
Encoding: 88 88 59
Width: 300
GlyphClass: 2
Flags: W
LayerCount: 2
Back
Fore
SplineSet
50 700 m 1,0,1
 100 700 l 1,2,3
 100 600 l 1,4,5
 125 600 l 1,6,7
 125 500 l 1,8,9
 175 500 l 1,10,11
 175 600 l 1,12,13
 200 600 l 1,14,15
 200 700 l 1,16,17
 250 700 l 1,18,19
 250 600 l 1,20,21
 225 600 l 1,22,23
 225 500 l 1,24,25
 200 500 l 1,26,27
 200 400 l 1,28,29
 175 400 l 1,30,31
 175 300 l 1,32,33
 200 300 l 1,34,35
 200 200 l 1,36,37
 225 200 l 1,38,39
 225 100 l 1,40,41
 250 100 l 1,42,43
 250 0 l 1,44,45
 200 0 l 1,46,47
 200 100 l 1,48,49
 175 100 l 1,50,51
 175 200 l 1,52,53
 125 200 l 1,54,55
 125 100 l 1,56,57
 100 100 l 1,58,59
 100 0 l 1,60,61
 50 0 l 1,62,63
 50 100 l 1,64,65
 75 100 l 1,66,67
 75 200 l 1,68,69
 100 200 l 1,70,71
 100 300 l 1,72,73
 125 300 l 1,74,75
 125 400 l 1,76,77
 100 400 l 1,78,79
 100 500 l 1,80,81
 75 500 l 1,82,83
 75 600 l 1,84,85
 50 600 l 1,86,87
 50 700 l 1,0,1
EndSplineSet
Validated: 1
EndChar

StartChar: Y
Encoding: 89 89 60
Width: 300
GlyphClass: 2
Flags: W
LayerCount: 2
Back
Fore
SplineSet
25 700 m 1,0,1
 75 700 l 1,2,3
 75 600 l 1,4,5
 100 600 l 1,6,7
 100 500 l 1,8,9
 125 500 l 1,10,11
 125 400 l 1,12,13
 175 400 l 1,14,15
 175 500 l 1,16,17
 200 500 l 1,18,19
 200 600 l 1,20,21
 225 600 l 1,22,23
 225 700 l 1,24,25
 275 700 l 1,26,27
 275 600 l 1,28,29
 250 600 l 1,30,31
 250 500 l 1,32,33
 225 500 l 1,34,35
 225 400 l 1,36,37
 200 400 l 1,38,39
 200 300 l 1,40,41
 175 300 l 1,42,43
 175 0 l 1,44,45
 125 0 l 1,46,47
 125 300 l 1,48,49
 100 300 l 1,50,51
 100 400 l 1,52,53
 75 400 l 1,54,55
 75 500 l 1,56,57
 50 500 l 1,58,59
 50 600 l 1,60,61
 25 600 l 1,62,63
 25 700 l 1,0,1
EndSplineSet
Validated: 1
EndChar

StartChar: Z
Encoding: 90 90 61
Width: 300
GlyphClass: 2
Flags: W
LayerCount: 2
Back
Fore
SplineSet
50 700 m 1,0,1
 250 700 l 1,2,3
 250 600 l 1,4,5
 225 600 l 1,6,7
 225 500 l 1,8,9
 200 500 l 1,10,11
 200 400 l 1,12,13
 175 400 l 1,14,15
 175 300 l 1,16,17
 150 300 l 1,18,19
 150 200 l 1,20,21
 125 200 l 1,22,23
 125 100 l 1,24,25
 250 100 l 1,26,27
 250 0 l 1,28,29
 50 0 l 1,30,31
 50 100 l 1,32,33
 75 100 l 1,34,35
 75 200 l 1,36,37
 100 200 l 1,38,39
 100 300 l 1,40,41
 125 300 l 1,42,43
 125 400 l 1,44,45
 150 400 l 1,46,47
 150 500 l 1,48,49
 175 500 l 1,50,51
 175 600 l 1,52,53
 50 600 l 1,54,55
 50 700 l 1,0,1
EndSplineSet
Validated: 1
EndChar

StartChar: bracketleft
Encoding: 91 91 62
Width: 300
GlyphClass: 2
Flags: W
LayerCount: 2
Back
Fore
SplineSet
200 600 m 1,0,1
 150 600 l 1,2,3
 150 100 l 1,4,5
 200 100 l 1,6,7
 200 0 l 1,8,9
 100 0 l 1,10,11
 100 700 l 1,12,13
 200 700 l 1,14,15
 200 600 l 1,0,1
EndSplineSet
Validated: 1
EndChar

StartChar: backslash
Encoding: 92 92 63
Width: 300
GlyphClass: 2
Flags: W
LayerCount: 2
Back
Fore
SplineSet
50 600 m 1,0,1
 50 700 l 1,2,3
 100 700 l 1,4,5
 100 600 l 1,6,7
 125 600 l 1,8,9
 125 500 l 1,10,11
 150 500 l 1,12,13
 150 400 l 1,14,15
 175 400 l 1,16,17
 175 300 l 1,18,19
 200 300 l 1,20,21
 200 200 l 1,22,23
 225 200 l 1,24,25
 225 100 l 1,26,27
 250 100 l 1,28,29
 250 0 l 1,30,31
 200 0 l 1,32,33
 200 100 l 1,34,35
 175 100 l 1,36,37
 175 200 l 1,38,39
 150 200 l 1,40,41
 150 300 l 1,42,43
 125 300 l 1,44,45
 125 400 l 1,46,47
 100 400 l 1,48,49
 100 500 l 1,50,51
 75 500 l 1,52,53
 75 600 l 1,54,55
 50 600 l 1,0,1
EndSplineSet
Validated: 1
EndChar

StartChar: bracketright
Encoding: 93 93 64
Width: 300
GlyphClass: 2
Flags: W
LayerCount: 2
Back
Fore
SplineSet
100 700 m 1,0,1
 199 700 l 1,2,3
 199 584 199 584 199.5 350.5 c 0
 200 117 200 117 200 0 c 1,4,5
 100 0 l 1,6,7
 100 100 l 1,8,9
 150 100 l 1,10,11
 150 600 l 1,12,13
 100 600 l 1,14,15
 100 700 l 1,0,1
EndSplineSet
Validated: 1
EndChar

StartChar: asciicircum
Encoding: 94 94 65
Width: 300
GlyphClass: 2
Flags: W
LayerCount: 2
Back
Fore
SplineSet
87 400 m 1,0,1
 87 500 l 1,2,3
 113 500 l 1,4,5
 113 600 l 1,6,7
 137 600 l 1,8,9
 137 700 l 1,10,11
 213 700 l 1,12,13
 213 600 l 1,14,15
 237 600 l 1,16,17
 237 500 l 1,18,19
 263 500 l 1,20,21
 263 400 l 1,22,23
 213 400 l 1,24,25
 213 500 l 1,26,27
 187 500 l 1,28,29
 187 600 l 1,30,31
 163 600 l 1,32,33
 163 500 l 1,34,35
 137 500 l 1,36,37
 137 400 l 1,38,39
 87 400 l 1,0,1
EndSplineSet
Validated: 1
EndChar

StartChar: underscore
Encoding: 95 95 66
Width: 300
GlyphClass: 2
Flags: W
LayerCount: 2
Back
Fore
SplineSet
25 -100 m 1,0,1
 25 0 l 1,2,3
 275 0 l 1,4,5
 275 -100 l 1,6,7
 25 -100 l 1,0,1
EndSplineSet
Validated: 1
EndChar

StartChar: grave
Encoding: 96 96 67
Width: 300
GlyphClass: 2
Flags: W
LayerCount: 2
Back
Fore
SplineSet
50 700 m 1,0,1
 100 700 l 1,2,3
 100 600 l 1,4,5
 125 600 l 1,6,7
 125 500 l 1,8,9
 150 500 l 1,10,11
 150 400 l 1,12,13
 100 400 l 1,14,15
 100 500 l 1,16,17
 75 500 l 1,18,19
 75 600 l 1,20,21
 50 600 l 1,22,23
 50 700 l 1,0,1
EndSplineSet
Validated: 1
EndChar

StartChar: a
Encoding: 97 97 68
Width: 300
GlyphClass: 2
Flags: W
LayerCount: 2
Back
Fore
SplineSet
75 200 m 1,0,1
 75 100 l 1,2,3
 200 100 l 1,4,5
 200 200 l 1,6,7
 75 200 l 1,0,1
50 500 m 1,8,9
 225 500 l 1,10,11
 225 400 l 1,12,13
 250 400 l 1,14,15
 250 100 l 1,16,17
 275 100 l 1,18,19
 275 0 l 1,20,21
 50 0 l 1,22,23
 50 100 l 1,24,25
 25 100 l 1,26,27
 25 200 l 1,28,29
 50 200 l 1,30,31
 50 300 l 1,32,33
 200 300 l 1,34,35
 200 400 l 1,36,37
 50 400 l 1,38,39
 50 500 l 1,8,9
EndSplineSet
Validated: 1
EndChar

StartChar: b
Encoding: 98 98 69
Width: 300
GlyphClass: 2
Flags: W
LayerCount: 2
Back
Fore
SplineSet
237 400 m 1,0,1
 137 400 l 1,2,3
 137 300 l 1,4,5
 113 300 l 1,6,7
 113 100 l 1,8,9
 237 100 l 1,10,11
 237 400 l 1,0,1
63 700 m 1,12,13
 113 700 l 1,14,15
 113 400 l 1,16,17
 137 400 l 1,18,19
 137 500 l 1,20,21
 263 500 l 1,22,23
 263 400 l 1,24,25
 287 400 l 1,26,27
 287 100 l 1,28,29
 263 100 l 1,30,31
 263 0 l 1,32,33
 63 0 l 1,34,35
 63 700 l 1,12,13
EndSplineSet
Validated: 5
EndChar

StartChar: c
Encoding: 99 99 70
Width: 300
GlyphClass: 2
Flags: W
LayerCount: 2
Back
Fore
SplineSet
113 500 m 1,0,1
 287 500 l 1,2,3
 287 400 l 1,4,5
 137 400 l 1,6,7
 137 300 l 1,8,9
 113 300 l 1,10,11
 113 200 l 1,12,13
 137 200 l 1,14,15
 137 100 l 1,16,17
 287 100 l 1,18,19
 287 0 l 1,20,21
 113 0 l 1,22,23
 113 100 l 1,24,25
 87 100 l 1,26,27
 87 200 l 1,28,29
 63 200 l 1,30,31
 63 300 l 1,32,33
 87 300 l 1,34,35
 87 400 l 1,36,37
 113 400 l 1,38,39
 113 500 l 1,0,1
EndSplineSet
Validated: 1
EndChar

StartChar: d
Encoding: 100 100 71
Width: 300
GlyphClass: 2
Flags: W
LayerCount: 2
Back
Fore
SplineSet
113 100 m 1,0,1
 237 100 l 1,2,3
 237 300 l 1,4,5
 213 300 l 1,6,7
 213 400 l 1,8,9
 113 400 l 1,10,11
 113 100 l 1,0,1
237 700 m 1,12,13
 287 700 l 1,14,15
 287 0 l 1,16,17
 87 0 l 1,18,19
 87 100 l 1,20,21
 63 100 l 1,22,23
 63 400 l 1,24,25
 87 400 l 1,26,27
 87 500 l 1,28,29
 213 500 l 1,30,31
 213 400 l 1,32,33
 237 400 l 1,34,35
 237 700 l 1,12,13
EndSplineSet
Validated: 5
EndChar

StartChar: e
Encoding: 101 101 72
Width: 300
GlyphClass: 2
Flags: W
LayerCount: 2
Back
Fore
SplineSet
113 400 m 1,0,1
 113 300 l 1,2,3
 237 300 l 1,4,5
 237 400 l 1,6,7
 113 400 l 1,0,1
87 400 m 1,8,9
 87 500 l 1,10,11
 262 500 l 1,12,13
 262 484 262 484 262.5 450 c 0
 263 416 263 416 263 400 c 1,14,15
 287 400 l 1,16,17
 287 200 l 1,18,19
 113 200 l 1,20,21
 113 100 l 1,22,23
 263 100 l 1,24,25
 263 0 l 1,26,27
 87 0 l 1,28,29
 87 100 l 1,30,31
 63 100 l 1,32,33
 63 400 l 1,34,35
 87 400 l 1,8,9
EndSplineSet
Validated: 1
EndChar

StartChar: f
Encoding: 102 102 73
Width: 300
GlyphClass: 2
Flags: W
LayerCount: 2
Back
Fore
SplineSet
137 600 m 1,0,1
 137 700 l 1,2,3
 287 700 l 1,4,5
 287 600 l 1,6,7
 163 600 l 1,8,9
 163 400 l 1,10,11
 237 400 l 1,12,13
 237 300 l 1,14,15
 163 300 l 1,16,17
 163 0 l 1,18,19
 113 0 l 1,20,21
 113 300 l 1,22,23
 63 300 l 1,24,25
 63 400 l 1,26,27
 113 400 l 1,28,29
 113 600 l 1,30,31
 137 600 l 1,0,1
EndSplineSet
Validated: 1
EndChar

StartChar: g
Encoding: 103 103 74
Width: 300
GlyphClass: 2
Flags: W
LayerCount: 2
Back
Fore
SplineSet
113 400 m 1,0,1
 113 100 l 1,2,3
 213 100 l 1,4,5
 213 200 l 1,6,7
 237 200 l 1,8,9
 237 300 l 1,10,11
 213 300 l 1,12,13
 213 400 l 1,14,15
 113 400 l 1,0,1
87 400 m 1,16,17
 87 498 l 1,18,19
 108 498 108 498 150 499 c 0
 192 500 192 500 213 500 c 1,20,21
 213 400 l 1,22,23
 237 400 l 1,24,25
 237 500 l 1,26,27
 287 500 l 1,28,29
 287 -100 l 1,30,31
 263 -100 l 1,32,33
 263 -200 l 1,34,35
 87 -200 l 1,36,37
 87 -100 l 1,38,39
 237 -100 l 1,40,41
 237 100 l 1,42,43
 213 100 l 1,44,45
 213 0 l 1,46,47
 87 0 l 1,48,49
 87 100 l 1,50,51
 63 100 l 1,52,53
 63 400 l 1,54,55
 87 400 l 1,16,17
EndSplineSet
Validated: 5
EndChar

StartChar: h
Encoding: 104 104 75
Width: 300
GlyphClass: 2
Flags: W
LayerCount: 2
Back
Fore
SplineSet
63 700 m 1,0,1
 113 700 l 1,2,3
 113 400 l 1,4,5
 137 400 l 1,6,7
 137 500 l 1,8,9
 263 500 l 1,10,11
 263 400 l 1,12,13
 287 400 l 1,14,15
 287 0 l 1,16,17
 237 0 l 1,18,19
 237 400 l 1,20,21
 137 400 l 1,22,23
 137 300 l 1,24,25
 113 300 l 1,26,27
 113 0 l 1,28,29
 63 0 l 1,30,31
 63 700 l 1,0,1
EndSplineSet
Validated: 5
EndChar

StartChar: i
Encoding: 105 105 76
Width: 300
GlyphClass: 2
Flags: W
LayerCount: 2
Back
Fore
SplineSet
100 500 m 1,0,1
 175 500 l 1,2,3
 175 100 l 1,4,5
 225 100 l 1,6,7
 225 0 l 1,8,9
 75 0 l 1,10,11
 75 100 l 1,12,13
 125 100 l 1,14,15
 125 400 l 1,16,17
 100 400 l 1,18,19
 100 500 l 1,0,1
100 700 m 1,20,21
 175 700 l 1,22,23
 175 600 l 1,24,25
 100 600 l 1,26,27
 100 700 l 1,20,21
EndSplineSet
Validated: 1
EndChar

StartChar: j
Encoding: 106 106 77
Width: 300
GlyphClass: 2
Flags: W
LayerCount: 2
Back
Fore
SplineSet
213 400 m 1,0,1
 213 500 l 1,2,3
 287 500 l 1,4,5
 287 -100 l 1,6,7
 263 -100 l 1,8,9
 263 -200 l 1,10,11
 87 -200 l 1,12,13
 87 -100 l 1,14,15
 63 -100 l 1,16,17
 63 0 l 1,18,19
 113 0 l 1,20,21
 113 -100 l 1,22,23
 237 -100 l 1,24,25
 237 400 l 1,26,27
 213 400 l 1,0,1
213 700 m 1,28,29
 287 700 l 1,30,31
 287 600 l 1,32,33
 213 600 l 1,34,35
 213 700 l 1,28,29
EndSplineSet
Validated: 1
EndChar

StartChar: k
Encoding: 107 107 78
Width: 300
GlyphClass: 2
Flags: W
LayerCount: 2
Back
Fore
SplineSet
50 700 m 1,0,1
 100 700 l 1,2,3
 100 300 l 1,4,5
 150 300 l 1,6,7
 150 400 l 1,8,9
 175 400 l 1,10,11
 175 500 l 1,12,13
 250 500 l 1,14,15
 250 400 l 1,16,17
 200 400 l 1,18,19
 200 300 l 1,20,21
 175 300 l 1,22,23
 175 200 l 1,24,25
 200 200 l 1,26,27
 200 100 l 1,28,29
 250 100 l 1,30,31
 250 0 l 1,32,33
 175 0 l 1,34,35
 175 100 l 1,36,37
 150 100 l 1,38,39
 150 200 l 1,40,41
 100 200 l 1,42,43
 100 0 l 1,44,45
 50 0 l 1,46,47
 50 700 l 1,0,1
EndSplineSet
Validated: 1
EndChar

StartChar: l
Encoding: 108 108 79
Width: 300
GlyphClass: 2
Flags: W
LayerCount: 2
Back
Fore
SplineSet
75 750 m 1,0,1
 175 750 l 1,2,3
 175 100 l 1,4,5
 250 100 l 1,6,7
 250 0 l 1,8,9
 50 0 l 1,10,11
 50 100 l 1,12,13
 125 100 l 1,14,15
 125 650 l 1,16,17
 75 650 l 1,18,19
 75 750 l 1,0,1
EndSplineSet
Validated: 1
EndChar

StartChar: m
Encoding: 109 109 80
Width: 300
GlyphClass: 2
Flags: W
LayerCount: 2
Back
Fore
SplineSet
25 0 m 1,0,1
 25 500 l 1,2,3
 249 500 l 1,4,5
 249 484 249 484 249.5 450 c 0
 250 416 250 416 250 400 c 1,6,7
 275 400 l 1,8,9
 275 0 l 1,10,11
 225 0 l 1,12,13
 225 400 l 1,14,15
 175 400 l 1,16,17
 175 0 l 1,18,19
 125 0 l 1,20,21
 125 400 l 1,22,23
 75 400 l 1,24,25
 75 0 l 1,26,27
 25 0 l 1,0,1
EndSplineSet
Validated: 1
EndChar

StartChar: n
Encoding: 110 110 81
Width: 300
GlyphClass: 2
Flags: W
LayerCount: 2
Back
Fore
SplineSet
63 0 m 1,0,1
 63 500 l 1,2,3
 113 500 l 1,4,5
 113 400 l 1,6,7
 137 400 l 1,8,9
 137 500 l 1,10,11
 263 500 l 1,12,13
 263 400 l 1,14,15
 287 400 l 1,16,17
 287 0 l 1,18,19
 237 0 l 1,20,21
 237 400 l 1,22,23
 137 400 l 1,24,25
 137 300 l 1,26,27
 113 300 l 1,28,29
 113 0 l 1,30,31
 63 0 l 1,0,1
EndSplineSet
Validated: 5
EndChar

StartChar: o
Encoding: 111 111 82
Width: 300
GlyphClass: 2
Flags: W
LayerCount: 2
Back
Fore
SplineSet
113 400 m 1,0,1
 113 100 l 1,2,3
 237 100 l 1,4,5
 237 400 l 1,6,7
 113 400 l 1,0,1
87 500 m 1,8,9
 263 500 l 1,10,11
 263 400 l 1,12,13
 287 400 l 1,14,15
 287 100 l 1,16,17
 263 100 l 1,18,19
 263 0 l 1,20,21
 87 0 l 1,22,23
 87 100 l 1,24,25
 63 100 l 1,26,27
 63 400 l 1,28,29
 87 400 l 1,30,31
 87 500 l 1,8,9
EndSplineSet
Validated: 1
EndChar

StartChar: p
Encoding: 112 112 83
Width: 300
GlyphClass: 2
Flags: W
LayerCount: 2
Back
Fore
SplineSet
137 300 m 1,0,1
 113 300 l 1,2,3
 113 200 l 1,4,5
 137 200 l 1,6,7
 137 100 l 1,8,9
 237 100 l 1,10,11
 237 400 l 1,12,13
 137 400 l 1,14,15
 137 300 l 1,0,1
63 500 m 1,16,17
 113 500 l 1,18,19
 113 400 l 1,20,21
 137 400 l 1,22,23
 137 500 l 1,24,25
 263 500 l 1,26,27
 263 400 l 1,28,29
 287 400 l 1,30,31
 287 100 l 1,32,33
 263 100 l 1,34,35
 263 0 l 1,36,37
 137 0 l 1,38,39
 137 100 l 1,40,41
 113 100 l 1,42,43
 113 -200 l 1,44,45
 63 -200 l 1,46,47
 63 500 l 1,16,17
EndSplineSet
Validated: 5
EndChar

StartChar: q
Encoding: 113 113 84
Width: 300
GlyphClass: 2
Flags: W
LayerCount: 2
Back
Fore
SplineSet
113 400 m 1,0,1
 113 100 l 1,2,3
 213 100 l 1,4,5
 213 200 l 1,6,7
 237 200 l 1,8,9
 237 300 l 1,10,11
 213 300 l 1,12,13
 213 400 l 1,14,15
 113 400 l 1,0,1
87 500 m 1,16,17
 213 500 l 1,18,19
 213 400 l 1,20,21
 237 400 l 1,22,23
 237 500 l 1,24,25
 287 500 l 1,26,27
 287 -200 l 1,28,29
 237 -200 l 1,30,31
 237 100 l 1,32,33
 213 100 l 1,34,35
 213 0 l 1,36,37
 87 0 l 1,38,39
 87 100 l 1,40,41
 63 100 l 1,42,43
 63 400 l 1,44,45
 87 400 l 1,46,47
 87 500 l 1,16,17
EndSplineSet
Validated: 5
EndChar

StartChar: r
Encoding: 114 114 85
Width: 300
GlyphClass: 2
Flags: W
LayerCount: 2
Back
Fore
SplineSet
63 0 m 1,0,1
 63 500 l 1,2,3
 113 500 l 1,4,5
 113 400 l 1,6,7
 163 400 l 1,8,9
 163 500 l 1,10,11
 287 500 l 1,12,13
 287 400 l 1,14,15
 163 400 l 1,16,17
 163 300 l 1,18,19
 113 300 l 1,20,21
 113 0 l 1,22,23
 63 0 l 1,0,1
EndSplineSet
Validated: 5
EndChar

StartChar: s
Encoding: 115 115 86
Width: 300
GlyphClass: 2
Flags: W
LayerCount: 2
Back
Fore
SplineSet
263 400 m 1,0,1
 113 400 l 1,2,3
 113 300 l 1,4,5
 263 300 l 1,6,7
 263 200 l 1,8,9
 287 200 l 1,10,11
 287 100 l 1,12,13
 263 100 l 1,14,15
 263 0 l 1,16,17
 87 0 l 1,18,19
 87 100 l 1,20,21
 237 100 l 1,22,23
 237 200 l 1,24,25
 87 200 l 1,26,27
 87 300 l 1,28,29
 63 300 l 1,30,31
 63 400 l 1,32,33
 87 400 l 1,34,35
 87 500 l 1,36,37
 263 500 l 1,38,39
 263 400 l 1,0,1
EndSplineSet
Validated: 1
EndChar

StartChar: t
Encoding: 116 116 87
Width: 300
GlyphClass: 2
Flags: W
LayerCount: 2
Back
Fore
SplineSet
113 700 m 1,0,1
 163 700 l 1,2,3
 163 500 l 1,4,5
 237 500 l 1,6,7
 237 400 l 1,8,9
 163 400 l 1,10,11
 163 100 l 1,12,13
 287 100 l 1,14,15
 287 0 l 1,16,17
 137 0 l 1,18,19
 137 100 l 1,20,21
 113 100 l 1,22,23
 113 400 l 1,24,25
 63 400 l 1,26,27
 63 500 l 1,28,29
 113 500 l 1,30,31
 113 700 l 1,0,1
EndSplineSet
Validated: 1
EndChar

StartChar: u
Encoding: 117 117 88
Width: 300
GlyphClass: 2
Flags: W
LayerCount: 2
Back
Fore
SplineSet
63 500 m 1,0,1
 113 500 l 1,2,3
 113 100 l 1,4,5
 213 100 l 1,6,7
 213 200 l 1,8,9
 237 200 l 1,10,11
 237 500 l 1,12,13
 287 500 l 1,14,15
 287 0 l 1,16,17
 237 0 l 1,18,19
 237 100 l 1,20,21
 213 100 l 1,22,23
 213 0 l 1,24,25
 87 0 l 1,26,27
 87 100 l 1,28,29
 63 100 l 1,30,31
 63 500 l 1,0,1
EndSplineSet
Validated: 5
EndChar

StartChar: v
Encoding: 118 118 89
Width: 300
GlyphClass: 2
Flags: W
LayerCount: 2
Back
Fore
SplineSet
25 500 m 1,0,1
 75 500 l 1,2,3
 75 400 l 1,4,5
 100 400 l 1,6,7
 100 300 l 1,8,9
 125 300 l 1,10,11
 125 200 l 1,12,13
 175 200 l 1,14,15
 175 300 l 1,16,17
 200 300 l 1,18,19
 200 400 l 1,20,21
 225 400 l 1,22,23
 225 500 l 1,24,25
 275 500 l 1,26,27
 275 400 l 1,28,29
 250 400 l 1,30,31
 250 300 l 1,32,33
 225 300 l 1,34,35
 225 200 l 1,36,37
 200 200 l 1,38,39
 200 100 l 1,40,41
 175 100 l 1,42,43
 175 0 l 1,44,45
 125 0 l 1,46,47
 125 100 l 1,48,49
 100 100 l 1,50,51
 100 200 l 1,52,53
 75 200 l 1,54,55
 75 300 l 1,56,57
 50 300 l 1,58,59
 50 400 l 1,60,61
 25 400 l 1,62,63
 25 500 l 1,0,1
EndSplineSet
Validated: 1
EndChar

StartChar: w
Encoding: 119 119 90
Width: 300
GlyphClass: 2
Flags: W
LayerCount: 2
Back
Fore
SplineSet
225 500 m 1,0,1
 275 500 l 1,2,3
 275 200 l 1,4,5
 250 200 l 1,6,7
 250 100 l 1,8,9
 225 100 l 1,10,11
 225 0 l 1,12,13
 175 0 l 1,14,15
 175 100 l 1,16,17
 125 100 l 1,18,19
 125 0 l 1,20,21
 75 0 l 1,22,23
 75 100 l 1,24,25
 50 100 l 1,26,27
 50 200 l 1,28,29
 25 200 l 1,30,31
 25 500 l 1,32,33
 75 500 l 1,34,35
 75 200 l 1,36,37
 100 200 l 1,38,39
 100 100 l 1,40,41
 125 100 l 1,42,43
 125 400 l 1,44,45
 175 400 l 1,46,47
 175 100 l 1,48,49
 200 100 l 1,50,51
 200 200 l 1,52,53
 225 200 l 1,54,55
 225 500 l 1,0,1
EndSplineSet
Validated: 5
EndChar

StartChar: x
Encoding: 120 120 91
Width: 300
GlyphClass: 2
Flags: W
LayerCount: 2
Back
Fore
SplineSet
25 500 m 1,0,1
 100 500 l 1,2,3
 100 400 l 1,4,5
 125 400 l 1,6,7
 125 300 l 1,8,9
 175 300 l 1,10,11
 175 400 l 1,12,13
 200 400 l 1,14,15
 200 500 l 1,16,17
 275 500 l 1,18,19
 275 400 l 1,20,21
 225 400 l 1,22,23
 225 300 l 1,24,25
 200 300 l 1,26,27
 200 200 l 1,28,29
 225 200 l 1,30,31
 225 100 l 1,32,33
 275 100 l 1,34,35
 275 0 l 1,36,37
 200 0 l 1,38,39
 200 100 l 1,40,41
 175 100 l 1,42,43
 175 200 l 1,44,45
 125 200 l 1,46,47
 125 100 l 1,48,49
 100 100 l 1,50,51
 100 0 l 1,52,53
 25 0 l 1,54,55
 25 100 l 1,56,57
 75 100 l 1,58,59
 75 200 l 1,60,61
 100 200 l 1,62,63
 100 300 l 1,64,65
 75 300 l 1,66,67
 75 400 l 1,68,69
 25 400 l 1,70,71
 25 500 l 1,0,1
EndSplineSet
Validated: 1
EndChar

StartChar: y
Encoding: 121 121 92
Width: 300
GlyphClass: 2
Flags: W
LayerCount: 2
Back
Fore
SplineSet
63 500 m 1,0,1
 113 500 l 1,2,3
 113 400 l 1,4,5
 137 400 l 1,6,7
 137 300 l 1,8,9
 163 300 l 1,10,11
 163 200 l 1,12,13
 187 200 l 1,14,15
 187 300 l 1,16,17
 213 300 l 1,18,19
 213 400 l 1,20,21
 237 400 l 1,22,23
 237 500 l 1,24,25
 287 500 l 1,26,27
 287 400 l 1,28,29
 263 400 l 1,30,31
 263 300 l 1,32,33
 237 300 l 1,34,35
 237 200 l 1,36,37
 213 200 l 1,38,39
 213 100 l 1,40,41
 187 100 l 1,42,43
 187 0 l 1,44,45
 163 0 l 1,46,47
 163 -100 l 1,48,49
 137 -100 l 1,50,51
 137 -200 l 1,52,53
 63 -200 l 1,54,55
 63 -100 l 1,56,57
 113 -100 l 1,58,59
 113 0 l 1,60,61
 137 0 l 1,62,63
 137 200 l 1,64,65
 113 200 l 1,66,67
 113 300 l 1,68,69
 87 300 l 1,70,71
 87 400 l 1,72,73
 63 400 l 1,74,75
 63 500 l 1,0,1
EndSplineSet
Validated: 1
EndChar

StartChar: z
Encoding: 122 122 93
Width: 300
GlyphClass: 2
Flags: W
LayerCount: 2
Back
Fore
SplineSet
50 500 m 1,0,1
 250 500 l 1,2,3
 250 400 l 1,4,5
 200 400 l 1,6,7
 200 300 l 1,8,9
 175 300 l 1,10,11
 175 200 l 1,12,13
 150 200 l 1,14,15
 150 100 l 1,16,17
 250 100 l 1,18,19
 250 0 l 1,20,21
 50 0 l 1,22,23
 50 100 l 1,24,25
 100 100 l 1,26,27
 100 200 l 1,28,29
 125 200 l 1,30,31
 125 300 l 1,32,33
 150 300 l 1,34,35
 150 400 l 1,36,37
 50 400 l 1,38,39
 50 500 l 1,0,1
EndSplineSet
Validated: 1
EndChar

StartChar: braceleft
Encoding: 123 123 94
Width: 300
GlyphClass: 2
Flags: W
LayerCount: 2
Back
Fore
SplineSet
225 700 m 1,0,1
 225 600 l 1,2,3
 175 600 l 1,4,5
 175 400 l 1,6,7
 150 400 l 1,8,9
 150 300 l 1,10,11
 175 300 l 1,12,13
 175 100 l 1,14,15
 225 100 l 1,16,17
 225 0 l 1,18,19
 150 0 l 1,20,21
 150 100 l 1,22,23
 125 100 l 1,24,25
 125 300 l 1,26,27
 75 300 l 1,28,29
 75 400 l 1,30,31
 125 400 l 1,32,33
 125 600 l 1,34,35
 150 600 l 1,36,37
 150 700 l 1,38,39
 225 700 l 1,0,1
EndSplineSet
Validated: 1
EndChar

StartChar: bar
Encoding: 124 124 95
Width: 300
GlyphClass: 2
Flags: W
LayerCount: 2
Back
Fore
SplineSet
125 700 m 1,0,1
 175 700 l 1,2,3
 175 0 l 1,4,5
 125 0 l 1,6,7
 125 700 l 1,0,1
EndSplineSet
Validated: 1
EndChar

StartChar: braceright
Encoding: 125 125 96
Width: 300
GlyphClass: 2
Flags: W
LayerCount: 2
Back
Fore
SplineSet
75 700 m 1,0,1
 150 700 l 1,2,3
 150 600 l 1,4,5
 175 600 l 1,6,7
 175 400 l 1,8,9
 225 400 l 1,10,11
 225 300 l 1,12,13
 175 300 l 1,14,15
 175 100 l 1,16,17
 150 100 l 1,18,19
 150 0 l 1,20,21
 75 0 l 1,22,23
 75 100 l 1,24,25
 125 100 l 1,26,27
 125 300 l 1,28,29
 150 300 l 1,30,31
 150 400 l 1,32,33
 125 400 l 1,34,35
 125 600 l 1,36,37
 75 600 l 1,38,39
 75 700 l 1,0,1
EndSplineSet
Validated: 1
EndChar

StartChar: asciitilde
Encoding: 126 126 97
Width: 300
GlyphClass: 2
Flags: W
LayerCount: 2
Back
Fore
SplineSet
63 600 m 1,0,1
 87 600 l 1,2,3
 87 700 l 1,4,5
 187 700 l 1,6,7
 187 600 l 1,8,9
 237 600 l 1,10,11
 237 700 l 1,12,13
 287 700 l 1,14,15
 287 600 l 1,16,17
 263 600 l 1,18,19
 263 500 l 1,20,21
 163 500 l 1,22,23
 163 600 l 1,24,25
 113 600 l 1,26,27
 113 500 l 1,28,29
 104 500 104 500 88 500.5 c 0
 72 501 72 501 63 501 c 1,30,31
 63 600 l 1,0,1
EndSplineSet
Validated: 1
EndChar

StartChar: exclamdown
Encoding: 161 161 111
Width: 300
GlyphClass: 2
Flags: W
LayerCount: 2
Back
Fore
SplineSet
125 500 m 1,0,1
 175 500 l 1,2,3
 175 0 l 1,4,5
 125 0 l 1,6,7
 125 500 l 1,0,1
175 600 m 1,8,9
 125 600 l 1,10,11
 125 700 l 1,12,13
 175 700 l 1,14,15
 175 600 l 1,8,9
EndSplineSet
Validated: 1
EndChar

StartChar: cent
Encoding: 162 162 112
Width: 300
GlyphClass: 2
Flags: W
LayerCount: 2
Back
Fore
SplineSet
113 500 m 1,0,1
 287 500 l 1,2,3
 287 400 l 1,4,5
 137 400 l 1,6,7
 137 300 l 1,8,9
 113 300 l 1,10,11
 113 200 l 1,12,13
 137 200 l 1,14,15
 137 100 l 1,16,17
 287 100 l 1,18,19
 287 0 l 1,20,21
 113 0 l 1,22,23
 113 100 l 1,24,25
 87 100 l 1,26,27
 87 200 l 1,28,29
 63 200 l 1,30,31
 63 300 l 1,32,33
 87 300 l 1,34,35
 87 400 l 1,36,37
 113 400 l 1,38,39
 113 500 l 1,0,1
EndSplineSet
Validated: 1
EndChar

StartChar: sterling
Encoding: 163 163 113
Width: 300
GlyphClass: 2
Flags: W
LayerCount: 2
Back
Fore
SplineSet
63 0 m 1,0,1
 63 100 l 1,2,3
 87 100 l 1,4,5
 87 200 l 1,6,7
 113 200 l 1,8,9
 113 300 l 1,10,11
 63 300 l 1,12,13
 63 400 l 1,14,15
 113 400 l 1,16,17
 113 600 l 1,18,19
 137 600 l 1,20,21
 137 700 l 1,22,23
 237 700 l 1,24,25
 237 600 l 1,26,27
 263 600 l 1,28,29
 263 500 l 1,30,31
 213 500 l 1,32,33
 213 600 l 1,34,35
 163 600 l 1,36,37
 163 400 l 1,38,39
 213 400 l 1,40,41
 213 300 l 1,42,43
 163 300 l 1,44,45
 163 200 l 1,46,47
 137 200 l 1,48,49
 137 100 l 1,50,51
 287 100 l 1,52,53
 287 0 l 1,54,55
 63 0 l 1,0,1
EndSplineSet
Validated: 1
EndChar

StartChar: currency
Encoding: 164 164 114
Width: 300
GlyphClass: 2
Flags: W
LayerCount: 2
Back
Fore
SplineSet
100 300 m 1,0,1
 200 300 l 1,2,3
 200 500 l 1,4,5
 100 500 l 1,6,7
 100 300 l 1,0,1
0 700 m 1,8,9
 0 800 l 1,10,11
 50 800 l 1,12,13
 50 700 l 1,14,15
 75 700 l 1,16,17
 75 600 l 1,18,19
 225 600 l 1,20,21
 225 700 l 1,22,23
 250 700 l 1,24,25
 250 800 l 1,26,27
 300 800 l 1,28,29
 300 700 l 1,30,31
 275 700 l 1,32,33
 275 600 l 1,34,35
 250 600 l 1,36,37
 250 200 l 1,38,39
 275 200 l 1,40,41
 275 100 l 1,42,43
 300 100 l 1,44,45
 300 0 l 1,46,47
 250 0 l 1,48,49
 250 100 l 1,50,51
 225 100 l 1,52,53
 225 200 l 1,54,55
 75 200 l 1,56,57
 75 100 l 1,58,59
 50 100 l 1,60,61
 50 0 l 1,62,63
 0 0 l 1,64,65
 0 100 l 1,66,67
 25 100 l 1,68,69
 25 200 l 1,70,71
 50 200 l 1,72,73
 50 600 l 1,74,75
 25 600 l 1,76,77
 25 700 l 1,78,79
 0 700 l 1,8,9
EndSplineSet
Validated: 1
EndChar

StartChar: yen
Encoding: 165 165 115
Width: 300
GlyphClass: 2
Flags: W
LayerCount: 2
Back
Fore
SplineSet
50 600 m 1,0,1
 50 700 l 1,2,3
 100 700 l 1,4,5
 100 600 l 1,6,7
 125 600 l 1,8,9
 125 500 l 1,10,11
 175 500 l 1,12,13
 175 600 l 1,14,15
 200 600 l 1,16,17
 200 700 l 1,18,19
 250 700 l 1,20,21
 250 600 l 1,22,23
 225 600 l 1,24,25
 225 500 l 1,26,27
 200 500 l 1,28,29
 200 400 l 1,30,31
 175 400 l 1,32,33
 175 300 l 1,34,35
 275 300 l 1,36,37
 275 200 l 1,38,39
 175 200 l 1,40,41
 175 0 l 1,42,43
 125 0 l 1,44,45
 125 200 l 1,46,47
 25 200 l 1,48,49
 25 300 l 1,50,51
 125 300 l 1,52,53
 125 400 l 1,54,55
 100 400 l 1,56,57
 100 500 l 1,58,59
 75 500 l 1,60,61
 75 600 l 1,62,63
 50 600 l 1,0,1
EndSplineSet
Validated: 1
EndChar

StartChar: brokenbar
Encoding: 166 166 116
Width: 300
GlyphClass: 2
Flags: W
LayerCount: 2
Back
Fore
SplineSet
125 700 m 1,0,1
 175 700 l 1,2,3
 175 0 l 1,4,5
 125 0 l 1,6,7
 125 700 l 1,0,1
EndSplineSet
Validated: 1
EndChar

StartChar: section
Encoding: 167 167 117
Width: 300
GlyphClass: 2
Flags: W
LayerCount: 2
Back
Fore
SplineSet
175 400 m 1,0,1
 125 400 l 1,2,3
 125 300 l 1,4,5
 175 300 l 1,6,7
 175 400 l 1,0,1
225 500 m 1,8,9
 225 600 l 1,10,11
 150 600 l 1,12,13
 150 500 l 1,14,15
 200 500 l 1,16,17
 200 400 l 1,18,19
 225 400 l 1,20,21
 225 300 l 1,22,23
 200 300 l 1,24,25
 200 100 l 1,26,27
 175 100 l 1,28,29
 175 0 l 1,30,31
 50 0 l 1,32,33
 50 100 l 1,34,35
 25 100 l 1,36,37
 25 200 l 1,38,39
 75 200 l 1,40,41
 75 100 l 1,42,43
 150 100 l 1,44,45
 150 200 l 1,46,47
 100 200 l 1,48,49
 100 300 l 1,50,51
 75 300 l 1,52,53
 75 400 l 1,54,55
 100 400 l 1,56,57
 100 600 l 1,58,59
 125 600 l 1,60,61
 125 700 l 1,62,63
 250 700 l 1,64,65
 250 600 l 1,66,67
 275 600 l 1,68,69
 275 500 l 1,70,71
 225 500 l 1,8,9
EndSplineSet
Validated: 1
EndChar

StartChar: copyright
Encoding: 169 169 118
Width: 300
GlyphClass: 2
Flags: W
LayerCount: 2
Back
Fore
SplineSet
100 400 m 1,0,1
 100 500 l 1,2,3
 200 500 l 1,4,5
 200 400 l 1,6,7
 125 400 l 1,8,9
 125 300 l 1,10,11
 200 300 l 1,12,13
 200 200 l 1,14,15
 100 200 l 1,16,17
 100 300 l 1,18,19
 75 300 l 1,20,21
 75 400 l 1,22,23
 100 400 l 1,0,1
75 500 m 1,24,25
 50 500 l 1,26,27
 50 200 l 1,28,29
 75 200 l 1,30,31
 75 100 l 1,32,33
 225 100 l 1,34,35
 225 200 l 1,36,37
 250 200 l 1,38,39
 250 500 l 1,40,41
 225 500 l 1,42,43
 225 600 l 1,44,45
 75 600 l 1,46,47
 75 500 l 1,24,25
50 600 m 1,48,49
 50 700 l 1,50,51
 250 700 l 1,52,53
 250 600 l 1,54,55
 275 600 l 1,56,57
 275 500 l 1,58,59
 300 500 l 1,60,61
 300 200 l 1,62,63
 275 200 l 1,64,65
 275 100 l 1,66,67
 250 100 l 1,68,69
 250 0 l 1,70,71
 50 0 l 1,72,73
 50 100 l 1,74,75
 25 100 l 1,76,77
 25 200 l 1,78,79
 0 200 l 1,80,81
 0 500 l 1,82,83
 25 500 l 1,84,85
 25 600 l 1,86,87
 50 600 l 1,48,49
EndSplineSet
Validated: 1
EndChar

StartChar: guillemotleft
Encoding: 171 171 120
Width: 300
GlyphClass: 2
Flags: W
LayerCount: 2
Back
Fore
SplineSet
225 0 m 1,0,1
 225 100 l 1,2,3
 175 100 l 1,4,5
 175 200 l 1,6,7
 150 200 l 1,8,9
 150 300 l 1,10,11
 175 300 l 1,12,13
 175 400 l 1,14,15
 225 400 l 1,16,17
 225 500 l 1,18,19
 300 500 l 1,20,21
 300 400 l 1,22,23
 250 400 l 1,24,25
 250 300 l 1,26,27
 200 300 l 1,28,29
 200 200 l 1,30,31
 250 200 l 1,32,33
 250 100 l 1,34,35
 300 100 l 1,36,37
 300 0 l 1,38,39
 225 0 l 1,0,1
150 0 m 1,40,41
 75 0 l 1,42,43
 75 100 l 1,44,45
 25 100 l 1,46,47
 25 200 l 1,48,49
 0 200 l 1,50,51
 0 300 l 1,52,53
 25 300 l 1,54,55
 25 400 l 1,56,57
 75 400 l 1,58,59
 75 500 l 1,60,61
 150 500 l 1,62,63
 150 400 l 1,64,65
 100 400 l 1,66,67
 100 300 l 1,68,69
 50 300 l 1,70,71
 50 200 l 1,72,73
 100 200 l 1,74,75
 100 100 l 1,76,77
 150 100 l 1,78,79
 150 0 l 1,40,41
EndSplineSet
Validated: 1
EndChar

StartChar: logicalnot
Encoding: 172 172 121
Width: 300
GlyphClass: 2
Flags: W
LayerCount: 2
Back
Fore
SplineSet
25 -100 m 1,0,1
 25 0 l 1,2,3
 275 0 l 1,4,5
 275 -100 l 1,6,7
 25 -100 l 1,0,1
EndSplineSet
Validated: 1
EndChar

StartChar: registered
Encoding: 174 174 123
Width: 300
GlyphClass: 2
Flags: W
LayerCount: 2
Back
Fore
SplineSet
100 200 m 1,0,1
 100 500 l 1,2,3
 200 500 l 1,4,5
 200 400 l 1,6,7
 175 400 l 1,8,9
 175 300 l 1,10,11
 225 300 l 1,12,13
 225 200 l 1,14,15
 175 200 l 1,16,17
 175 300 l 1,18,19
 150 300 l 1,20,21
 150 200 l 1,22,23
 100 200 l 1,0,1
75 500 m 1,24,25
 50 500 l 1,26,27
 50 200 l 1,28,29
 75 200 l 1,30,31
 75 100 l 1,32,33
 225 100 l 1,34,35
 225 200 l 1,36,37
 250 200 l 1,38,39
 250 500 l 1,40,41
 225 500 l 1,42,43
 225 600 l 1,44,45
 75 600 l 1,46,47
 75 500 l 1,24,25
50 600 m 1,48,49
 50 700 l 1,50,51
 250 700 l 1,52,53
 250 600 l 1,54,55
 275 600 l 1,56,57
 275 500 l 1,58,59
 300 500 l 1,60,61
 300 200 l 1,62,63
 275 200 l 1,64,65
 275 100 l 1,66,67
 250 100 l 1,68,69
 250 0 l 1,70,71
 50 0 l 1,72,73
 50 100 l 1,74,75
 25 100 l 1,76,77
 25 200 l 1,78,79
 0 200 l 1,80,81
 0 500 l 1,82,83
 25 500 l 1,84,85
 25 600 l 1,86,87
 50 600 l 1,48,49
EndSplineSet
Validated: 5
EndChar

StartChar: degree
Encoding: 176 176 124
Width: 300
GlyphClass: 2
Flags: W
LayerCount: 2
Back
Fore
SplineSet
125 600 m 1,0,1
 125 500 l 1,2,3
 175 500 l 1,4,5
 175 600 l 1,6,7
 125 600 l 1,0,1
100 600 m 1,8,9
 100 700 l 1,10,11
 200 700 l 1,12,13
 200 600 l 1,14,15
 225 600 l 1,16,17
 225 500 l 1,18,19
 200 500 l 1,20,21
 200 400 l 1,22,23
 100 400 l 1,24,25
 100 500 l 1,26,27
 75 500 l 1,28,29
 75 600 l 1,30,31
 100 600 l 1,8,9
EndSplineSet
Validated: 1
EndChar

StartChar: plusminus
Encoding: 177 177 125
Width: 300
GlyphClass: 2
Flags: W
LayerCount: 2
Back
Fore
SplineSet
50 200 m 1,0,1
 250 200 l 1,2,3
 250 101 l 1,4,5
 216 101 216 101 150 100.5 c 0
 84 100 84 100 50 100 c 1,6,7
 50 200 l 1,0,1
50 550 m 1,8,9
 125 550 l 1,10,11
 125 700 l 1,12,13
 175 700 l 1,14,15
 175 550 l 1,16,17
 188 550 188 550 213 550.5 c 0
 238 551 238 551 250 551 c 1,18,19
 250 450 l 1,20,21
 175 450 l 1,22,23
 175 300 l 1,24,25
 125 300 l 1,26,27
 125 451 l 1,28,29
 50 451 l 1,30,31
 50 550 l 1,8,9
EndSplineSet
Validated: 1
EndChar

StartChar: uni00B2
Encoding: 178 178 126
Width: 300
GlyphClass: 2
Flags: W
LayerCount: 2
Back
Fore
SplineSet
100 700 m 1,0,1
 100 800 l 1,2,3
 200 800 l 1,4,5
 200 700 l 1,6,7
 225 700 l 1,8,9
 225 600 l 1,10,11
 200 600 l 1,12,13
 200 500 l 1,14,15
 150 500 l 1,16,17
 150 400 l 1,18,19
 225 400 l 1,20,21
 225 300 l 1,22,23
 75 300 l 1,24,25
 75 400 l 1,26,27
 100 400 l 1,28,29
 100 500 l 1,30,31
 150 500 l 1,32,33
 150 600 l 1,34,35
 175 600 l 1,36,37
 175 700 l 1,38,39
 125 700 l 1,40,41
 125 600 l 1,42,43
 75 600 l 1,44,45
 75 700 l 1,46,47
 100 700 l 1,0,1
EndSplineSet
Validated: 5
EndChar

StartChar: uni00B3
Encoding: 179 179 127
Width: 300
GlyphClass: 2
Flags: W
LayerCount: 2
Back
Fore
SplineSet
75 700 m 1,0,1
 75 800 l 1,2,3
 225 800 l 1,4,5
 225 600 l 1,6,7
 200 600 l 1,8,9
 200 500 l 1,10,11
 225 500 l 1,12,13
 225 400 l 1,14,15
 200 400 l 1,16,17
 200 300 l 1,18,19
 75 300 l 1,20,21
 75 400 l 1,22,23
 175 400 l 1,24,25
 175 500 l 1,26,27
 125 500 l 1,28,29
 125 600 l 1,30,31
 175 600 l 1,32,33
 175 700 l 1,34,35
 75 700 l 1,0,1
EndSplineSet
Validated: 1
EndChar

StartChar: acute
Encoding: 180 180 128
Width: 300
GlyphClass: 2
Flags: W
LayerCount: 2
Back
Fore
SplineSet
100 600 m 1,0,1
 100 700 l 1,2,3
 150 700 l 1,4,5
 150 600 l 1,6,7
 125 600 l 1,8,9
 125 500 l 1,10,11
 100 500 l 1,12,13
 100 400 l 1,14,15
 50 400 l 1,16,17
 50 500 l 1,18,19
 75 500 l 1,20,21
 75 600 l 1,22,23
 100 600 l 1,0,1
EndSplineSet
Validated: 1
EndChar

StartChar: mu
Encoding: 181 181 129
Width: 300
GlyphClass: 2
Flags: W
LayerCount: 2
Back
Fore
SplineSet
63 -200 m 1,0,1
 63 500 l 1,2,3
 113 500 l 1,4,5
 113 200 l 1,6,7
 137 200 l 1,8,9
 137 100 l 1,10,11
 213 100 l 1,12,13
 213 200 l 1,14,15
 237 200 l 1,16,17
 237 500 l 1,18,19
 287 500 l 1,20,21
 287 0 l 1,22,23
 237 0 l 1,24,25
 237 100 l 1,26,27
 213 100 l 1,28,29
 213 0 l 1,30,31
 137 0 l 1,32,33
 137 100 l 1,34,35
 113 100 l 1,36,37
 113 -200 l 1,38,39
 63 -200 l 1,0,1
EndSplineSet
Validated: 5
EndChar

StartChar: periodcentered
Encoding: 183 183 131
Width: 300
GlyphClass: 2
Flags: W
LayerCount: 2
Back
Fore
SplineSet
100 600 m 1,0,1
 100 700 l 1,2,3
 150 700 l 1,4,5
 150 600 l 1,6,7
 125 600 l 1,8,9
 125 500 l 1,10,11
 100 500 l 1,12,13
 100 400 l 1,14,15
 50 400 l 1,16,17
 50 500 l 1,18,19
 75 500 l 1,20,21
 75 600 l 1,22,23
 100 600 l 1,0,1
EndSplineSet
Validated: 1
EndChar

StartChar: uni00B9
Encoding: 185 185 132
Width: 300
GlyphClass: 2
Flags: W
LayerCount: 2
Back
Fore
SplineSet
163 700 m 1,0,1
 163 800 l 1,2,3
 213 800 l 1,4,5
 213 400 l 1,6,7
 163 400 l 1,8,9
 163 600 l 1,10,11
 137 600 l 1,12,13
 137 700 l 1,14,15
 163 700 l 1,0,1
EndSplineSet
Validated: 1
EndChar

StartChar: guillemotright
Encoding: 187 187 133
Width: 300
GlyphClass: 2
Flags: W
LayerCount: 2
Back
Fore
SplineSet
150 400 m 1,0,1
 150 500 l 1,2,3
 225 500 l 1,4,5
 225 400 l 1,6,7
 275 400 l 1,8,9
 275 300 l 1,10,11
 300 300 l 1,12,13
 300 200 l 1,14,15
 275 200 l 1,16,17
 275 100 l 1,18,19
 225 100 l 1,20,21
 225 0 l 1,22,23
 150 0 l 1,24,25
 150 100 l 1,26,27
 200 100 l 1,28,29
 200 200 l 1,30,31
 225 200 l 1,32,33
 225 300 l 1,34,35
 200 300 l 1,36,37
 200 400 l 1,38,39
 150 400 l 1,0,1
0 400 m 1,40,41
 0 500 l 1,42,43
 75 500 l 1,44,45
 75 400 l 1,46,47
 125 400 l 1,48,49
 125 300 l 1,50,51
 150 300 l 1,52,53
 150 200 l 1,54,55
 125 200 l 1,56,57
 125 100 l 1,58,59
 75 100 l 1,60,61
 75 0 l 1,62,63
 0 0 l 1,64,65
 0 100 l 1,66,67
 50 100 l 1,68,69
 50 200 l 1,70,71
 75 200 l 1,72,73
 75 300 l 1,74,75
 50 300 l 1,76,77
 50 400 l 1,78,79
 0 400 l 1,40,41
EndSplineSet
Validated: 1
EndChar

StartChar: onequarter
Encoding: 188 188 134
Width: 300
GlyphClass: 2
Flags: W
LayerCount: 2
Back
Fore
SplineSet
175 200 m 1,0,1
 175 300 l 1,2,3
 225 300 l 1,4,5
 225 200 l 1,6,7
 200 200 l 1,8,9
 200 100 l 1,10,11
 175 100 l 1,12,13
 175 0 l 1,14,15
 225 0 l 1,16,17
 225 100 l 1,18,19
 275 100 l 1,20,21
 275 -200 l 1,22,23
 225 -200 l 1,24,25
 225 -100 l 1,26,27
 125 -100 l 1,28,29
 125 100 l 1,30,31
 150 100 l 1,32,33
 150 200 l 1,34,35
 175 200 l 1,0,1
50 600 m 1,36,37
 50 700 l 1,38,39
 100 700 l 1,40,41
 100 200 l 1,42,43
 50 200 l 1,44,45
 50 500 l 1,46,47
 25 500 l 1,48,49
 25 600 l 1,50,51
 50 600 l 1,36,37
EndSplineSet
Validated: 1
EndChar

StartChar: onehalf
Encoding: 189 189 135
Width: 300
GlyphClass: 2
Flags: W
LayerCount: 2
Back
Fore
SplineSet
200 100 m 1,0,1
 200 200 l 1,2,3
 225 200 l 1,4,5
 225 300 l 1,6,7
 325 300 l 1,8,9
 325 200 l 1,10,11
 350 200 l 1,12,13
 350 100 l 1,14,15
 325 100 l 1,16,17
 325 0 l 1,18,19
 275 0 l 1,20,21
 275 -100 l 1,22,23
 350 -100 l 1,24,25
 350 -200 l 1,26,27
 200 -200 l 1,28,29
 200 -100 l 1,30,31
 225 -100 l 1,32,33
 225 0 l 1,34,35
 275 0 l 1,36,37
 275 100 l 1,38,39
 300 100 l 1,40,41
 300 200 l 1,42,43
 250 200 l 1,44,45
 250 100 l 1,46,47
 200 100 l 1,0,1
125 600 m 1,48,49
 125 700 l 1,50,51
 175 700 l 1,52,53
 175 200 l 1,54,55
 125 200 l 1,56,57
 125 500 l 1,58,59
 100 500 l 1,60,61
 100 600 l 1,62,63
 125 600 l 1,48,49
EndSplineSet
Validated: 5
EndChar

StartChar: threequarters
Encoding: 190 190 136
Width: 300
GlyphClass: 2
Flags: W
LayerCount: 2
Back
Fore
SplineSet
213 200 m 1,0,1
 213 300 l 1,2,3
 263 300 l 1,4,5
 263 200 l 1,6,7
 237 200 l 1,8,9
 237 100 l 1,10,11
 213 100 l 1,12,13
 213 0 l 1,14,15
 263 0 l 1,16,17
 263 100 l 1,18,19
 313 100 l 1,20,21
 313 -200 l 1,22,23
 263 -200 l 1,24,25
 263 -100 l 1,26,27
 163 -100 l 1,28,29
 163 100 l 1,30,31
 187 100 l 1,32,33
 187 200 l 1,34,35
 213 200 l 1,0,1
37 600 m 1,36,37
 37 700 l 1,38,39
 163 700 l 1,40,41
 163 500 l 1,42,43
 137 500 l 1,44,45
 137 400 l 1,46,47
 163 400 l 1,48,49
 163 300 l 1,50,51
 137 300 l 1,52,53
 137 200 l 1,54,55
 37 200 l 1,56,57
 37 300 l 1,58,59
 113 300 l 1,60,61
 113 400 l 1,62,63
 63 400 l 1,64,65
 63 500 l 1,66,67
 113 500 l 1,68,69
 113 600 l 1,70,71
 37 600 l 1,36,37
EndSplineSet
Validated: 1
EndChar

StartChar: questiondown
Encoding: 191 191 137
Width: 300
GlyphClass: 2
Flags: W
LayerCount: 2
Back
Fore
SplineSet
137 600 m 1,0,1
 137 700 l 1,2,3
 187 700 l 1,4,5
 187 600 l 1,6,7
 137 600 l 1,0,1
87 0 m 1,8,9
 87 100 l 1,10,11
 63 100 l 1,12,13
 63 300 l 1,14,15
 87 300 l 1,16,17
 87 400 l 1,18,19
 137 400 l 1,20,21
 137 500 l 1,22,23
 187 500 l 1,24,25
 187 400 l 1,26,27
 137 400 l 1,28,29
 137 300 l 1,30,31
 113 300 l 1,32,33
 113 100 l 1,34,35
 237 100 l 1,36,37
 237 300 l 1,38,39
 287 300 l 1,40,41
 287 100 l 1,42,43
 263 100 l 1,44,45
 263 0 l 1,46,47
 87 0 l 1,8,9
EndSplineSet
Validated: 5
EndChar

StartChar: Agrave
Encoding: 192 192 138
Width: 300
GlyphClass: 2
Flags: W
LayerCount: 2
Back
Fore
SplineSet
175 700 m 1,0,1
 175 800 l 1,2,3
 225 800 l 1,4,5
 225 700 l 1,6,7
 175 700 l 1,0,1
75 700 m 1,8,9
 75 800 l 1,10,11
 125 800 l 1,12,13
 125 700 l 1,14,15
 75 700 l 1,8,9
75 300 m 1,16,17
 225 300 l 1,18,19
 225 400 l 1,20,21
 200 400 l 1,22,23
 200 416 200 416 199.5 450 c 0
 199 484 199 484 199 500 c 1,24,25
 100 500 l 1,26,27
 100 484 100 484 99.5 450 c 0
 99 416 99 416 99 400 c 1,28,29
 75 400 l 1,30,31
 75 300 l 1,16,17
25 0 m 1,32,33
 25 400 l 1,34,35
 50 400 l 1,36,37
 50 500 l 1,38,39
 75 500 l 1,40,41
 75 600 l 1,42,43
 225 600 l 1,44,45
 225 500 l 1,46,47
 250 500 l 1,48,49
 250 400 l 1,50,51
 275 400 l 1,52,53
 275 0 l 1,54,55
 225 0 l 1,56,57
 225 200 l 1,58,59
 75 200 l 1,60,61
 75 0 l 1,62,63
 25 0 l 1,32,33
EndSplineSet
Validated: 1
EndChar

StartChar: Aacute
Encoding: 193 193 139
Width: 300
GlyphClass: 2
Flags: W
LayerCount: 2
Back
Fore
SplineSet
175 700 m 1,0,1
 175 800 l 1,2,3
 225 800 l 1,4,5
 225 700 l 1,6,7
 175 700 l 1,0,1
75 700 m 1,8,9
 75 800 l 1,10,11
 125 800 l 1,12,13
 125 700 l 1,14,15
 75 700 l 1,8,9
75 300 m 1,16,17
 225 300 l 1,18,19
 225 400 l 1,20,21
 200 400 l 1,22,23
 200 416 200 416 199.5 450 c 0
 199 484 199 484 199 500 c 1,24,25
 100 500 l 1,26,27
 100 484 100 484 99.5 450 c 0
 99 416 99 416 99 400 c 1,28,29
 75 400 l 1,30,31
 75 300 l 1,16,17
25 0 m 1,32,33
 25 400 l 1,34,35
 50 400 l 1,36,37
 50 500 l 1,38,39
 75 500 l 1,40,41
 75 600 l 1,42,43
 225 600 l 1,44,45
 225 500 l 1,46,47
 250 500 l 1,48,49
 250 400 l 1,50,51
 275 400 l 1,52,53
 275 0 l 1,54,55
 225 0 l 1,56,57
 225 200 l 1,58,59
 75 200 l 1,60,61
 75 0 l 1,62,63
 25 0 l 1,32,33
EndSplineSet
Validated: 1
EndChar

StartChar: Acircumflex
Encoding: 194 194 140
Width: 300
GlyphClass: 2
Flags: W
LayerCount: 2
Back
Fore
SplineSet
125 600 m 1,0,1
 175 600 l 1,2,3
 175 700 l 1,4,5
 125 700 l 1,6,7
 125 600 l 1,0,1
75 300 m 1,8,9
 225 300 l 1,10,11
 225 400 l 1,12,13
 200 400 l 1,14,15
 200 500 l 1,16,17
 100 500 l 1,18,19
 100 400 l 1,20,21
 75 400 l 1,22,23
 75 300 l 1,8,9
225 500 m 1,24,25
 250 500 l 1,26,27
 250 400 l 1,28,29
 275 400 l 1,30,31
 275 0 l 1,32,33
 225 0 l 1,34,35
 225 200 l 1,36,37
 75 200 l 1,38,39
 75 0 l 1,40,41
 25 0 l 1,42,43
 25 400 l 1,44,45
 50 400 l 1,46,47
 50 500 l 1,48,49
 75 500 l 1,50,51
 75 800 l 1,52,53
 225 800 l 1,54,55
 225 500 l 1,24,25
EndSplineSet
Validated: 1
EndChar

StartChar: Atilde
Encoding: 195 195 141
Width: 300
GlyphClass: 2
Flags: W
LayerCount: 2
Back
Fore
SplineSet
75 700 m 1,0,1
 75 800 l 1,2,3
 225 800 l 1,4,5
 225 700 l 1,6,7
 75 700 l 1,0,1
75 300 m 1,8,9
 225 300 l 1,10,11
 225 400 l 1,12,13
 200 400 l 1,14,15
 200 500 l 1,16,17
 100 500 l 1,18,19
 100 400 l 1,20,21
 75 400 l 1,22,23
 75 300 l 1,8,9
25 0 m 1,24,25
 25 400 l 1,26,27
 50 400 l 1,28,29
 50 500 l 1,30,31
 75 500 l 1,32,33
 75 600 l 1,34,35
 225 600 l 1,36,37
 225 500 l 1,38,39
 250 500 l 1,40,41
 250 400 l 1,42,43
 275 400 l 1,44,45
 275 0 l 1,46,47
 225 0 l 1,48,49
 225 200 l 1,50,51
 75 200 l 1,52,53
 75 0 l 1,54,55
 25 0 l 1,24,25
EndSplineSet
Validated: 1
EndChar

StartChar: Adieresis
Encoding: 196 196 142
Width: 300
GlyphClass: 2
Flags: W
LayerCount: 2
Back
Fore
SplineSet
175 700 m 1,0,1
 175 800 l 1,2,3
 225 800 l 1,4,5
 225 700 l 1,6,7
 175 700 l 1,0,1
75 700 m 1,8,9
 75 800 l 1,10,11
 125 800 l 1,12,13
 125 700 l 1,14,15
 75 700 l 1,8,9
75 300 m 1,16,17
 225 300 l 1,18,19
 225 400 l 1,20,21
 200 400 l 1,22,23
 200 500 l 1,24,25
 100 500 l 1,26,27
 100 400 l 1,28,29
 75 400 l 1,30,31
 75 300 l 1,16,17
25 0 m 1,32,33
 25 400 l 1,34,35
 50 400 l 1,36,37
 50 500 l 1,38,39
 75 500 l 1,40,41
 75 600 l 1,42,43
 225 600 l 1,44,45
 225 500 l 1,46,47
 250 500 l 1,48,49
 250 400 l 1,50,51
 275 400 l 1,52,53
 275 0 l 1,54,55
 225 0 l 1,56,57
 225 200 l 1,58,59
 75 200 l 1,60,61
 75 0 l 1,62,63
 25 0 l 1,32,33
EndSplineSet
Validated: 1
EndChar

StartChar: Aring
Encoding: 197 197 143
Width: 300
GlyphClass: 2
Flags: W
LayerCount: 2
Back
Fore
SplineSet
175 600 m 1,0,1
 175 700 l 1,2,3
 125 700 l 1,4,5
 125 600 l 1,6,7
 175 600 l 1,0,1
75 300 m 1,8,9
 225 300 l 1,10,11
 225 400 l 1,12,13
 200 400 l 1,14,15
 200 500 l 1,16,17
 100 500 l 1,18,19
 100 400 l 1,20,21
 75 400 l 1,22,23
 75 300 l 1,8,9
225 500 m 1,24,25
 250 500 l 1,26,27
 250 400 l 1,28,29
 275 400 l 1,30,31
 275 0 l 1,32,33
 225 0 l 1,34,35
 225 200 l 1,36,37
 75 200 l 1,38,39
 75 0 l 1,40,41
 25 0 l 1,42,43
 25 400 l 1,44,45
 50 400 l 1,46,47
 50 500 l 1,48,49
 75 500 l 1,50,51
 75 700 l 1,52,53
 100 700 l 1,54,55
 100 800 l 1,56,57
 200 800 l 1,58,59
 200 700 l 1,60,61
 225 700 l 1,62,63
 225 500 l 1,24,25
EndSplineSet
Validated: 1
EndChar

StartChar: AE
Encoding: 198 198 144
Width: 300
GlyphClass: 2
Flags: W
LayerCount: 2
Back
Fore
SplineSet
125 600 m 1,0,1
 125 500 l 1,2,3
 100 500 l 1,4,5
 100 400 l 1,6,7
 75 400 l 1,8,9
 75 300 l 1,10,11
 150 300 l 1,12,13
 150 600 l 1,14,15
 125 600 l 1,0,1
75 200 m 1,16,17
 75 0 l 1,18,19
 25 0 l 1,20,21
 25 400 l 1,22,23
 50 400 l 1,24,25
 50 500 l 1,26,27
 75 500 l 1,28,29
 75 600 l 1,30,31
 100 600 l 1,32,33
 100 700 l 1,34,35
 275 700 l 1,36,37
 275 600 l 1,38,39
 200 600 l 1,40,41
 200 400 l 1,42,43
 275 400 l 1,44,45
 275 300 l 1,46,47
 200 300 l 1,48,49
 200 100 l 1,50,51
 275 100 l 1,52,53
 275 0 l 1,54,55
 150 0 l 1,56,57
 150 200 l 1,58,59
 75 200 l 1,16,17
EndSplineSet
Validated: 1
EndChar

StartChar: Ccedilla
Encoding: 199 199 145
Width: 300
GlyphClass: 2
Flags: W
LayerCount: 2
Back
Fore
SplineSet
113 700 m 1,0,1
 263 700 l 1,2,3
 263 600 l 1,4,5
 287 600 l 1,6,7
 287 500 l 1,8,9
 237 500 l 1,10,11
 237 600 l 1,12,13
 137 600 l 1,14,15
 137 500 l 1,16,17
 113 500 l 1,18,19
 113 200 l 1,20,21
 137 200 l 1,22,23
 137 100 l 1,24,25
 237 100 l 1,26,27
 237 200 l 1,28,29
 287 200 l 1,30,31
 287 100 l 1,32,33
 263 100 l 1,34,35
 263 0 l 1,36,37
 113 0 l 1,38,39
 113 100 l 1,40,41
 87 100 l 1,42,43
 87 200 l 1,44,45
 63 200 l 1,46,47
 63 500 l 1,48,49
 87 500 l 1,50,51
 87 600 l 1,52,53
 113 600 l 1,54,55
 113 700 l 1,0,1
EndSplineSet
Validated: 1
EndChar

StartChar: Egrave
Encoding: 200 200 146
Width: 300
GlyphClass: 2
Flags: W
LayerCount: 2
Back
Fore
SplineSet
213 700 m 1,0,1
 213 800 l 1,2,3
 263 800 l 1,4,5
 263 700 l 1,6,7
 213 700 l 1,0,1
87 700 m 1,8,9
 87 800 l 1,10,11
 137 800 l 1,12,13
 137 700 l 1,14,15
 87 700 l 1,8,9
287 500 m 1,16,17
 113 500 l 1,18,19
 113 400 l 1,20,21
 237 400 l 1,22,23
 237 300 l 1,24,25
 113 300 l 1,26,27
 113 100 l 1,28,29
 287 100 l 1,30,31
 287 0 l 1,32,33
 63 0 l 1,34,35
 63 600 l 1,36,37
 287 600 l 1,38,39
 287 500 l 1,16,17
EndSplineSet
Validated: 1
EndChar

StartChar: Eacute
Encoding: 201 201 147
Width: 300
GlyphClass: 2
Flags: W
LayerCount: 2
Back
Fore
SplineSet
213 700 m 1,0,1
 213 800 l 1,2,3
 263 800 l 1,4,5
 263 700 l 1,6,7
 213 700 l 1,0,1
87 700 m 1,8,9
 87 800 l 1,10,11
 137 800 l 1,12,13
 137 700 l 1,14,15
 87 700 l 1,8,9
287 500 m 1,16,17
 113 500 l 1,18,19
 113 400 l 1,20,21
 237 400 l 1,22,23
 237 300 l 1,24,25
 113 300 l 1,26,27
 113 100 l 1,28,29
 287 100 l 1,30,31
 287 0 l 1,32,33
 63 0 l 1,34,35
 63 600 l 1,36,37
 287 600 l 1,38,39
 287 500 l 1,16,17
EndSplineSet
Validated: 1
EndChar

StartChar: Ecircumflex
Encoding: 202 202 148
Width: 300
GlyphClass: 2
Flags: W
LayerCount: 2
Back
Fore
SplineSet
213 700 m 1,0,1
 213 800 l 1,2,3
 263 800 l 1,4,5
 263 700 l 1,6,7
 213 700 l 1,0,1
87 700 m 1,8,9
 87 800 l 1,10,11
 137 800 l 1,12,13
 137 700 l 1,14,15
 87 700 l 1,8,9
287 500 m 1,16,17
 113 500 l 1,18,19
 113 400 l 1,20,21
 237 400 l 1,22,23
 237 300 l 1,24,25
 113 300 l 1,26,27
 113 100 l 1,28,29
 287 100 l 1,30,31
 287 0 l 1,32,33
 63 0 l 1,34,35
 63 600 l 1,36,37
 287 600 l 1,38,39
 287 500 l 1,16,17
EndSplineSet
Validated: 1
EndChar

StartChar: Edieresis
Encoding: 203 203 149
Width: 300
GlyphClass: 2
Flags: W
LayerCount: 2
Back
Fore
SplineSet
213 700 m 1,0,1
 213 800 l 1,2,3
 263 800 l 1,4,5
 263 700 l 1,6,7
 213 700 l 1,0,1
87 700 m 1,8,9
 87 800 l 1,10,11
 137 800 l 1,12,13
 137 700 l 1,14,15
 87 700 l 1,8,9
287 500 m 1,16,17
 113 500 l 1,18,19
 113 400 l 1,20,21
 237 400 l 1,22,23
 237 300 l 1,24,25
 113 300 l 1,26,27
 113 100 l 1,28,29
 287 100 l 1,30,31
 287 0 l 1,32,33
 63 0 l 1,34,35
 63 600 l 1,36,37
 287 600 l 1,38,39
 287 500 l 1,16,17
EndSplineSet
Validated: 1
EndChar

StartChar: Igrave
Encoding: 204 204 150
Width: 300
GlyphClass: 2
Flags: W
LayerCount: 2
Back
Fore
SplineSet
50 700 m 1,0,1
 250 700 l 1,2,3
 250 600 l 1,4,5
 175 600 l 1,6,7
 175 100 l 1,8,9
 250 100 l 1,10,11
 250 0 l 1,12,13
 50 0 l 1,14,15
 50 100 l 1,16,17
 125 100 l 1,18,19
 125 600 l 1,20,21
 50 600 l 1,22,23
 50 700 l 1,0,1
EndSplineSet
Validated: 1
EndChar

StartChar: Iacute
Encoding: 205 205 151
Width: 300
GlyphClass: 2
Flags: W
LayerCount: 2
Back
Fore
SplineSet
50 700 m 1,0,1
 250 700 l 1,2,3
 250 600 l 1,4,5
 175 600 l 1,6,7
 175 100 l 1,8,9
 250 100 l 1,10,11
 250 0 l 1,12,13
 50 0 l 1,14,15
 50 100 l 1,16,17
 125 100 l 1,18,19
 125 600 l 1,20,21
 50 600 l 1,22,23
 50 700 l 1,0,1
EndSplineSet
Validated: 1
EndChar

StartChar: Icircumflex
Encoding: 206 206 152
Width: 300
GlyphClass: 2
Flags: W
LayerCount: 2
Back
Fore
SplineSet
50 700 m 1,0,1
 250 700 l 1,2,3
 250 600 l 1,4,5
 175 600 l 1,6,7
 175 100 l 1,8,9
 250 100 l 1,10,11
 250 0 l 1,12,13
 50 0 l 1,14,15
 50 100 l 1,16,17
 125 100 l 1,18,19
 125 600 l 1,20,21
 50 600 l 1,22,23
 50 700 l 1,0,1
EndSplineSet
Validated: 1
EndChar

StartChar: Idieresis
Encoding: 207 207 153
Width: 300
GlyphClass: 2
Flags: W
LayerCount: 2
Back
Fore
SplineSet
50 700 m 1,0,1
 250 700 l 1,2,3
 250 600 l 1,4,5
 175 600 l 1,6,7
 175 100 l 1,8,9
 250 100 l 1,10,11
 250 0 l 1,12,13
 50 0 l 1,14,15
 50 100 l 1,16,17
 125 100 l 1,18,19
 125 600 l 1,20,21
 50 600 l 1,22,23
 50 700 l 1,0,1
EndSplineSet
Validated: 1
EndChar

StartChar: Eth
Encoding: 208 208 154
Width: 300
GlyphClass: 2
Flags: W
LayerCount: 2
Back
Fore
SplineSet
113 600 m 1,0,1
 113 100 l 1,2,3
 213 100 l 1,4,5
 213 200 l 1,6,7
 237 200 l 1,8,9
 237 500 l 1,10,11
 213 500 l 1,12,13
 213 600 l 1,14,15
 113 600 l 1,0,1
63 700 m 1,16,17
 237 700 l 1,18,19
 237 600 l 1,20,21
 263 600 l 1,22,23
 263 500 l 1,24,25
 287 500 l 1,26,27
 287 200 l 1,28,29
 263 200 l 1,30,31
 263 100 l 1,32,33
 237 100 l 1,34,35
 237 0 l 1,36,37
 63 0 l 1,38,39
 63 700 l 1,16,17
EndSplineSet
Validated: 1
EndChar

StartChar: Ntilde
Encoding: 209 209 155
Width: 300
GlyphClass: 2
Flags: W
LayerCount: 2
Back
Fore
SplineSet
75 700 m 1,0,1
 75 800 l 1,2,3
 225 800 l 1,4,5
 225 700 l 1,6,7
 75 700 l 1,0,1
25 0 m 1,8,9
 25 600 l 1,10,11
 125 600 l 1,12,13
 125 500 l 1,14,15
 150 500 l 1,16,17
 150 400 l 1,18,19
 175 400 l 1,20,21
 175 200 l 1,22,23
 200 200 l 1,24,25
 200 100 l 1,26,27
 225 100 l 1,28,29
 225 600 l 1,30,31
 275 600 l 1,32,33
 275 0 l 1,34,35
 175 0 l 1,36,37
 175 100 l 1,38,39
 150 100 l 1,40,41
 150 200 l 1,42,43
 125 200 l 1,44,45
 125 400 l 1,46,47
 100 400 l 1,48,49
 100 500 l 1,50,51
 75 500 l 1,52,53
 75 0 l 1,54,55
 25 0 l 1,8,9
EndSplineSet
Validated: 1
EndChar

StartChar: Ograve
Encoding: 210 210 156
Width: 300
GlyphClass: 2
Flags: W
LayerCount: 2
Back
Fore
SplineSet
100 500 m 1,0,1
 100 400 l 1,2,3
 75 400 l 1,4,5
 75 200 l 1,6,7
 100 200 l 1,8,9
 100 100 l 1,10,11
 200 100 l 1,12,13
 200 200 l 1,14,15
 225 200 l 1,16,17
 225 400 l 1,18,19
 200 400 l 1,20,21
 200 500 l 1,22,23
 100 500 l 1,0,1
225 500 m 1,24,25
 250 500 l 1,26,27
 250 400 l 1,28,29
 275 400 l 1,30,31
 275 200 l 1,32,33
 250 200 l 1,34,35
 250 100 l 1,36,37
 225 100 l 1,38,39
 225 0 l 1,40,41
 75 0 l 1,42,43
 75 100 l 1,44,45
 50 100 l 1,46,47
 50 200 l 1,48,49
 25 200 l 1,50,51
 25 400 l 1,52,53
 50 400 l 1,54,55
 50 500 l 1,56,57
 75 500 l 1,58,59
 75 600 l 1,60,61
 125 600 l 1,62,63
 125 700 l 1,64,65
 100 700 l 1,66,67
 100 800 l 1,68,69
 150 800 l 1,70,71
 150 700 l 1,72,73
 175 700 l 1,74,75
 175 600 l 1,76,77
 225 600 l 1,78,79
 225 500 l 1,24,25
EndSplineSet
Validated: 1
EndChar

StartChar: Oacute
Encoding: 211 211 157
Width: 300
GlyphClass: 2
Flags: W
LayerCount: 2
Back
Fore
SplineSet
100 500 m 1,0,1
 100 400 l 1,2,3
 75 400 l 1,4,5
 75 200 l 1,6,7
 100 200 l 1,8,9
 100 100 l 1,10,11
 200 100 l 1,12,13
 200 200 l 1,14,15
 225 200 l 1,16,17
 225 400 l 1,18,19
 200 400 l 1,20,21
 200 500 l 1,22,23
 100 500 l 1,0,1
225 500 m 1,24,25
 250 500 l 1,26,27
 250 400 l 1,28,29
 275 400 l 1,30,31
 275 200 l 1,32,33
 250 200 l 1,34,35
 250 100 l 1,36,37
 225 100 l 1,38,39
 225 0 l 1,40,41
 75 0 l 1,42,43
 75 100 l 1,44,45
 50 100 l 1,46,47
 50 200 l 1,48,49
 25 200 l 1,50,51
 25 400 l 1,52,53
 50 400 l 1,54,55
 50 500 l 1,56,57
 75 500 l 1,58,59
 75 600 l 1,60,61
 125 600 l 1,62,63
 125 700 l 1,64,65
 150 700 l 1,66,67
 150 800 l 1,68,69
 200 800 l 1,70,71
 200 700 l 1,72,73
 175 700 l 1,74,75
 175 600 l 1,76,77
 225 600 l 1,78,79
 225 500 l 1,24,25
EndSplineSet
Validated: 1
EndChar

StartChar: Ocircumflex
Encoding: 212 212 158
Width: 300
GlyphClass: 2
Flags: W
LayerCount: 2
Back
Fore
SplineSet
100 500 m 1,0,1
 100 400 l 1,2,3
 75 400 l 1,4,5
 75 200 l 1,6,7
 100 200 l 1,8,9
 100 100 l 1,10,11
 200 100 l 1,12,13
 200 200 l 1,14,15
 225 200 l 1,16,17
 225 400 l 1,18,19
 200 400 l 1,20,21
 200 500 l 1,22,23
 100 500 l 1,0,1
75 600 m 1,24,25
 225 600 l 1,26,27
 225 500 l 1,28,29
 250 500 l 1,30,31
 250 400 l 1,32,33
 275 400 l 1,34,35
 275 200 l 1,36,37
 250 200 l 1,38,39
 250 100 l 1,40,41
 225 100 l 1,42,43
 225 0 l 1,44,45
 75 0 l 1,46,47
 75 100 l 1,48,49
 50 100 l 1,50,51
 50 200 l 1,52,53
 25 200 l 1,54,55
 25 400 l 1,56,57
 50 400 l 1,58,59
 50 500 l 1,60,61
 75 500 l 1,62,63
 75 600 l 1,24,25
125 700 m 1,64,65
 125 800 l 1,66,67
 175 800 l 1,68,69
 175 700 l 1,70,71
 125 700 l 1,64,65
EndSplineSet
Validated: 1
EndChar

StartChar: Otilde
Encoding: 213 213 159
Width: 300
GlyphClass: 2
Flags: W
LayerCount: 2
Back
Fore
SplineSet
100 500 m 1,0,1
 100 400 l 1,2,3
 75 400 l 1,4,5
 75 200 l 1,6,7
 100 200 l 1,8,9
 100 100 l 1,10,11
 200 100 l 1,12,13
 200 200 l 1,14,15
 225 200 l 1,16,17
 225 400 l 1,18,19
 200 400 l 1,20,21
 200 500 l 1,22,23
 100 500 l 1,0,1
75 600 m 1,24,25
 225 600 l 1,26,27
 225 500 l 1,28,29
 250 500 l 1,30,31
 250 400 l 1,32,33
 275 400 l 1,34,35
 275 200 l 1,36,37
 250 200 l 1,38,39
 250 100 l 1,40,41
 225 100 l 1,42,43
 225 0 l 1,44,45
 75 0 l 1,46,47
 75 100 l 1,48,49
 50 100 l 1,50,51
 50 200 l 1,52,53
 25 200 l 1,54,55
 25 400 l 1,56,57
 50 400 l 1,58,59
 50 500 l 1,60,61
 75 500 l 1,62,63
 75 600 l 1,24,25
75 700 m 1,64,65
 75 800 l 1,66,67
 225 800 l 1,68,69
 225 700 l 1,70,71
 75 700 l 1,64,65
EndSplineSet
Validated: 1
EndChar

StartChar: Odieresis
Encoding: 214 214 160
Width: 300
GlyphClass: 2
Flags: W
LayerCount: 2
Back
Fore
SplineSet
100 500 m 1,0,1
 100 400 l 1,2,3
 75 400 l 1,4,5
 75 200 l 1,6,7
 100 200 l 1,8,9
 100 100 l 1,10,11
 200 100 l 1,12,13
 200 200 l 1,14,15
 225 200 l 1,16,17
 225 400 l 1,18,19
 200 400 l 1,20,21
 200 500 l 1,22,23
 100 500 l 1,0,1
75 600 m 1,24,25
 225 600 l 1,26,27
 225 500 l 1,28,29
 250 500 l 1,30,31
 250 400 l 1,32,33
 275 400 l 1,34,35
 275 200 l 1,36,37
 250 200 l 1,38,39
 250 100 l 1,40,41
 225 100 l 1,42,43
 225 0 l 1,44,45
 75 0 l 1,46,47
 75 100 l 1,48,49
 50 100 l 1,50,51
 50 200 l 1,52,53
 25 200 l 1,54,55
 25 400 l 1,56,57
 50 400 l 1,58,59
 50 500 l 1,60,61
 75 500 l 1,62,63
 75 600 l 1,24,25
175 700 m 1,64,65
 175 800 l 1,66,67
 225 800 l 1,68,69
 225 700 l 1,70,71
 175 700 l 1,64,65
75 700 m 1,72,73
 75 800 l 1,74,75
 125 800 l 1,76,77
 125 700 l 1,78,79
 75 700 l 1,72,73
EndSplineSet
Validated: 1
EndChar

StartChar: multiply
Encoding: 215 215 161
Width: 300
GlyphClass: 2
Flags: W
LayerCount: 2
Back
Fore
SplineSet
75 200 m 1,0,1
 75 300 l 1,2,3
 125 300 l 1,4,5
 125 400 l 1,6,7
 75 400 l 1,8,9
 75 500 l 1,10,11
 125 500 l 1,12,13
 125 400 l 1,14,15
 175 400 l 1,16,17
 175 500 l 1,18,19
 225 500 l 1,20,21
 225 400 l 1,22,23
 175 400 l 1,24,25
 175 300 l 1,26,27
 225 300 l 1,28,29
 225 200 l 1,30,31
 175 200 l 1,32,33
 175 300 l 1,34,35
 125 300 l 1,36,37
 125 200 l 1,38,39
 75 200 l 1,0,1
EndSplineSet
Validated: 5
EndChar

StartChar: Oslash
Encoding: 216 216 162
Width: 300
GlyphClass: 2
Flags: W
LayerCount: 2
Back
Fore
SplineSet
200 100 m 1,0,1
 200 200 l 1,2,3
 225 200 l 1,4,5
 225 500 l 1,6,7
 200 500 l 1,8,9
 200 600 l 1,10,11
 100 600 l 1,12,13
 100 500 l 1,14,15
 75 500 l 1,16,17
 75 200 l 1,18,19
 100 200 l 1,20,21
 100 100 l 1,22,23
 200 100 l 1,0,1
225 0 m 1,24,25
 75 0 l 1,26,27
 75 100 l 1,28,29
 50 100 l 1,30,31
 50 200 l 1,32,33
 25 200 l 1,34,35
 25 500 l 1,36,37
 50 500 l 1,38,39
 50 600 l 1,40,41
 75 600 l 1,42,43
 75 700 l 1,44,45
 225 700 l 1,46,47
 225 600 l 1,48,49
 250 600 l 1,50,51
 250 500 l 1,52,53
 275 500 l 1,54,55
 275 200 l 1,56,57
 250 200 l 1,58,59
 250 100 l 1,60,61
 225 100 l 1,62,63
 225 0 l 1,24,25
EndSplineSet
Validated: 1
EndChar

StartChar: Ugrave
Encoding: 217 217 163
Width: 300
GlyphClass: 2
Flags: W
LayerCount: 2
Back
Fore
SplineSet
163 600 m 1,0,1
 163 700 l 1,2,3
 137 700 l 1,4,5
 137 800 l 1,6,7
 187 800 l 1,8,9
 187 700 l 1,10,11
 213 700 l 1,12,13
 213 600 l 1,14,15
 163 600 l 1,0,1
63 600 m 1,16,17
 113 600 l 1,18,19
 113 100 l 1,20,21
 237 100 l 1,22,23
 237 600 l 1,24,25
 287 600 l 1,26,27
 287 100 l 1,28,29
 263 100 l 1,30,31
 263 0 l 1,32,33
 87 0 l 1,34,35
 87 100 l 1,36,37
 63 100 l 1,38,39
 63 600 l 1,16,17
EndSplineSet
Validated: 1
EndChar

StartChar: Uacute
Encoding: 218 218 164
Width: 300
GlyphClass: 2
Flags: W
LayerCount: 2
Back
Fore
SplineSet
63 600 m 1,0,1
 113 600 l 1,2,3
 113 100 l 1,4,5
 237 100 l 1,6,7
 237 600 l 1,8,9
 287 600 l 1,10,11
 287 100 l 1,12,13
 263 100 l 1,14,15
 263 0 l 1,16,17
 87 0 l 1,18,19
 87 100 l 1,20,21
 63 100 l 1,22,23
 63 600 l 1,0,1
EndSplineSet
Validated: 1
EndChar

StartChar: Ucircumflex
Encoding: 219 219 165
Width: 300
GlyphClass: 2
Flags: W
LayerCount: 2
Back
Fore
SplineSet
213 800 m 1,0,1
 263 800 l 1,2,3
 263 700 l 1,4,5
 213 700 l 1,6,7
 213 800 l 1,0,1
87 700 m 1,8,9
 87 800 l 1,10,11
 137 800 l 1,12,13
 137 700 l 1,14,15
 87 700 l 1,8,9
63 600 m 1,16,17
 113 600 l 1,18,19
 113 100 l 1,20,21
 237 100 l 1,22,23
 237 600 l 1,24,25
 287 600 l 1,26,27
 287 100 l 1,28,29
 263 100 l 1,30,31
 263 0 l 1,32,33
 87 0 l 1,34,35
 87 100 l 1,36,37
 63 100 l 1,38,39
 63 600 l 1,16,17
EndSplineSet
Validated: 1
EndChar

StartChar: Udieresis
Encoding: 220 220 166
Width: 300
GlyphClass: 2
Flags: W
LayerCount: 2
Back
Fore
SplineSet
213 800 m 1,0,1
 263 800 l 1,2,3
 263 700 l 1,4,5
 213 700 l 1,6,7
 213 800 l 1,0,1
87 700 m 1,8,9
 87 800 l 1,10,11
 137 800 l 1,12,13
 137 700 l 1,14,15
 87 700 l 1,8,9
63 600 m 1,16,17
 113 600 l 1,18,19
 113 100 l 1,20,21
 237 100 l 1,22,23
 237 600 l 1,24,25
 287 600 l 1,26,27
 287 100 l 1,28,29
 263 100 l 1,30,31
 263 0 l 1,32,33
 87 0 l 1,34,35
 87 100 l 1,36,37
 63 100 l 1,38,39
 63 600 l 1,16,17
EndSplineSet
Validated: 1
EndChar

StartChar: germandbls
Encoding: 223 223 167
Width: 300
GlyphClass: 2
Flags: W
LayerCount: 2
Back
Fore
SplineSet
113 600 m 1,0,1
 113 700 l 1,2,3
 237 700 l 1,4,5
 237 600 l 1,6,7
 263 600 l 1,8,9
 263 400 l 1,10,11
 237 400 l 1,12,13
 237 300 l 1,14,15
 287 300 l 1,16,17
 287 100 l 1,18,19
 263 100 l 1,20,21
 263 0 l 1,22,23
 137 0 l 1,24,25
 137 100 l 1,26,27
 237 100 l 1,28,29
 237 300 l 1,30,31
 163 300 l 1,32,33
 163 400 l 1,34,35
 213 400 l 1,36,37
 213 600 l 1,38,39
 137 600 l 1,40,41
 137 500 l 1,42,43
 113 500 l 1,44,45
 113 0 l 1,46,47
 63 0 l 1,48,49
 63 500 l 1,50,51
 87 500 l 1,52,53
 87 600 l 1,54,55
 113 600 l 1,0,1
EndSplineSet
Validated: 5
EndChar

StartChar: agrave
Encoding: 224 224 168
Width: 300
GlyphClass: 2
Flags: W
LayerCount: 2
Back
Fore
SplineSet
125 600 m 1,0,1
 125 700 l 1,2,3
 100 700 l 1,4,5
 100 800 l 1,6,7
 150 800 l 1,8,9
 150 700 l 1,10,11
 175 700 l 1,12,13
 175 600 l 1,14,15
 125 600 l 1,0,1
75 200 m 1,16,17
 75 100 l 1,18,19
 200 100 l 1,20,21
 200 200 l 1,22,23
 75 200 l 1,16,17
50 500 m 1,24,25
 225 500 l 1,26,27
 225 400 l 1,28,29
 250 400 l 1,30,31
 250 100 l 1,32,33
 275 100 l 1,34,35
 275 0 l 1,36,37
 50 0 l 1,38,39
 50 100 l 1,40,41
 25 100 l 1,42,43
 25 200 l 1,44,45
 50 200 l 1,46,47
 50 300 l 1,48,49
 200 300 l 1,50,51
 200 400 l 1,52,53
 50 400 l 1,54,55
 50 500 l 1,24,25
EndSplineSet
Validated: 1
EndChar

StartChar: aacute
Encoding: 225 225 169
Width: 300
GlyphClass: 2
Flags: W
LayerCount: 2
Back
Fore
SplineSet
100 600 m 1,0,1
 100 700 l 1,2,3
 125 700 l 1,4,5
 125 800 l 1,6,7
 175 800 l 1,8,9
 175 700 l 1,10,11
 150 700 l 1,12,13
 150 600 l 1,14,15
 100 600 l 1,0,1
75 200 m 1,16,17
 75 100 l 1,18,19
 200 100 l 1,20,21
 200 200 l 1,22,23
 75 200 l 1,16,17
50 500 m 1,24,25
 225 500 l 1,26,27
 225 400 l 1,28,29
 250 400 l 1,30,31
 250 100 l 1,32,33
 275 100 l 1,34,35
 275 0 l 1,36,37
 50 0 l 1,38,39
 50 100 l 1,40,41
 25 100 l 1,42,43
 25 200 l 1,44,45
 50 200 l 1,46,47
 50 300 l 1,48,49
 200 300 l 1,50,51
 200 400 l 1,52,53
 50 400 l 1,54,55
 50 500 l 1,24,25
EndSplineSet
Validated: 1
EndChar

StartChar: acircumflex
Encoding: 226 226 170
Width: 300
GlyphClass: 2
Flags: W
LayerCount: 2
Back
Fore
SplineSet
75 600 m 1,0,1
 75 700 l 1,2,3
 100 700 l 1,4,5
 100 800 l 1,6,7
 175 800 l 1,8,9
 175 700 l 1,10,11
 200 700 l 1,12,13
 200 600 l 1,14,15
 150 600 l 1,16,17
 150 700 l 1,18,19
 125 700 l 1,20,21
 125 600 l 1,22,23
 75 600 l 1,0,1
75 200 m 1,24,25
 75 100 l 1,26,27
 200 100 l 1,28,29
 200 200 l 1,30,31
 75 200 l 1,24,25
50 500 m 1,32,33
 225 500 l 1,34,35
 225 400 l 1,36,37
 250 400 l 1,38,39
 250 100 l 1,40,41
 275 100 l 1,42,43
 275 0 l 1,44,45
 50 0 l 1,46,47
 50 100 l 1,48,49
 25 100 l 1,50,51
 25 200 l 1,52,53
 50 200 l 1,54,55
 50 300 l 1,56,57
 200 300 l 1,58,59
 200 400 l 1,60,61
 50 400 l 1,62,63
 50 500 l 1,32,33
EndSplineSet
Validated: 1
EndChar

StartChar: atilde
Encoding: 227 227 171
Width: 300
GlyphClass: 2
Flags: W
LayerCount: 2
Back
Fore
SplineSet
50 600 m 1,0,1
 50 700 l 1,2,3
 75 700 l 1,4,5
 75 800 l 1,6,7
 150 800 l 1,8,9
 150 700 l 1,10,11
 175 700 l 1,12,13
 175 800 l 1,14,15
 225 800 l 1,16,17
 225 700 l 1,18,19
 200 700 l 1,20,21
 200 600 l 1,22,23
 125 600 l 1,24,25
 125 700 l 1,26,27
 100 700 l 1,28,29
 100 600 l 1,30,31
 50 600 l 1,0,1
75 200 m 1,32,33
 75 100 l 1,34,35
 200 100 l 1,36,37
 200 200 l 1,38,39
 75 200 l 1,32,33
50 500 m 1,40,41
 225 500 l 1,42,43
 225 400 l 1,44,45
 250 400 l 1,46,47
 250 100 l 1,48,49
 275 100 l 1,50,51
 275 0 l 1,52,53
 50 0 l 1,54,55
 50 100 l 1,56,57
 25 100 l 1,58,59
 25 200 l 1,60,61
 50 200 l 1,62,63
 50 300 l 1,64,65
 200 300 l 1,66,67
 200 400 l 1,68,69
 50 400 l 1,70,71
 50 500 l 1,40,41
EndSplineSet
Validated: 1
EndChar

StartChar: adieresis
Encoding: 228 228 172
Width: 300
GlyphClass: 2
Flags: W
LayerCount: 2
Back
Fore
SplineSet
175 600 m 1,0,1
 175 700 l 1,2,3
 225 700 l 1,4,5
 225 600 l 1,6,7
 175 600 l 1,0,1
75 600 m 1,8,9
 75 700 l 1,10,11
 125 700 l 1,12,13
 125 600 l 1,14,15
 75 600 l 1,8,9
75 200 m 1,16,17
 75 100 l 1,18,19
 200 100 l 1,20,21
 200 200 l 1,22,23
 75 200 l 1,16,17
50 500 m 1,24,25
 225 500 l 1,26,27
 225 400 l 1,28,29
 250 400 l 1,30,31
 250 100 l 1,32,33
 275 100 l 1,34,35
 275 0 l 1,36,37
 50 0 l 1,38,39
 50 100 l 1,40,41
 25 100 l 1,42,43
 25 200 l 1,44,45
 50 200 l 1,46,47
 50 300 l 1,48,49
 200 300 l 1,50,51
 200 400 l 1,52,53
 50 400 l 1,54,55
 50 500 l 1,24,25
EndSplineSet
Validated: 1
EndChar

StartChar: aring
Encoding: 229 229 173
Width: 300
GlyphClass: 2
Flags: W
LayerCount: 2
Back
Fore
SplineSet
175 600 m 1,0,1
 175 700 l 1,2,3
 225 700 l 1,4,5
 225 600 l 1,6,7
 175 600 l 1,0,1
75 600 m 1,8,9
 75 700 l 1,10,11
 125 700 l 1,12,13
 125 600 l 1,14,15
 75 600 l 1,8,9
75 200 m 1,16,17
 75 100 l 1,18,19
 200 100 l 1,20,21
 200 200 l 1,22,23
 75 200 l 1,16,17
50 500 m 1,24,25
 225 500 l 1,26,27
 225 400 l 1,28,29
 250 400 l 1,30,31
 250 100 l 1,32,33
 275 100 l 1,34,35
 275 0 l 1,36,37
 50 0 l 1,38,39
 50 100 l 1,40,41
 25 100 l 1,42,43
 25 200 l 1,44,45
 50 200 l 1,46,47
 50 300 l 1,48,49
 200 300 l 1,50,51
 200 400 l 1,52,53
 50 400 l 1,54,55
 50 500 l 1,24,25
EndSplineSet
Validated: 1
EndChar

StartChar: ae
Encoding: 230 230 174
Width: 300
GlyphClass: 2
Flags: W
LayerCount: 2
Back
Fore
SplineSet
213 300 m 1,0,1
 263 300 l 1,2,3
 263 400 l 1,4,5
 213 400 l 1,6,7
 213 300 l 1,0,1
87 100 m 1,8,9
 137 100 l 1,10,11
 137 200 l 1,12,13
 87 200 l 1,14,15
 87 100 l 1,8,9
63 0 m 1,16,17
 63 100 l 1,18,19
 37 100 l 1,20,21
 37 200 l 1,22,23
 63 200 l 1,24,25
 63 300 l 1,26,27
 137 300 l 1,28,29
 137 400 l 1,30,31
 63 400 l 1,32,33
 63 500 l 1,34,35
 163 500 l 1,36,37
 163 400 l 1,38,39
 213 400 l 1,40,41
 213 500 l 1,42,43
 287 500 l 1,44,45
 287 400 l 1,46,47
 313 400 l 1,48,49
 313 200 l 1,50,51
 213 200 l 1,52,53
 213 100 l 1,54,55
 313 100 l 1,56,57
 313 0 l 1,58,59
 187 0 l 1,60,61
 187 100 l 1,62,63
 163 100 l 1,64,65
 163 0 l 1,66,67
 63 0 l 1,16,17
EndSplineSet
Validated: 5
EndChar

StartChar: ccedilla
Encoding: 231 231 175
Width: 300
GlyphClass: 2
Flags: W
LayerCount: 2
Back
Fore
SplineSet
113 100 m 1,0,1
 87 100 l 1,2,3
 87 200 l 1,4,5
 63 200 l 1,6,7
 63 300 l 1,8,9
 87 300 l 1,10,11
 87 400 l 1,12,13
 113 400 l 1,14,15
 113 500 l 1,16,17
 287 500 l 1,18,19
 287 400 l 1,20,21
 137 400 l 1,22,23
 137 300 l 1,24,25
 113 300 l 1,26,27
 113 200 l 1,28,29
 137 200 l 1,30,31
 137 100 l 1,32,33
 287 100 l 1,34,35
 287 0 l 1,36,37
 213 0 l 1,38,39
 213 -100 l 1,40,41
 263 -100 l 1,42,43
 263 -200 l 1,44,45
 187 -200 l 1,46,47
 187 -100 l 1,48,49
 163 -100 l 1,50,51
 163 0 l 1,52,53
 113 0 l 1,54,55
 113 100 l 1,0,1
EndSplineSet
Validated: 1
EndChar

StartChar: egrave
Encoding: 232 232 176
Width: 300
GlyphClass: 2
Flags: W
LayerCount: 2
Back
Fore
SplineSet
113 400 m 1,0,1
 113 300 l 1,2,3
 237 300 l 1,4,5
 237 400 l 1,6,7
 113 400 l 1,0,1
87 400 m 1,8,9
 87 500 l 1,10,11
 262 500 l 1,12,13
 262 484 262 484 262.5 450 c 0
 263 416 263 416 263 400 c 1,14,15
 287 400 l 1,16,17
 287 200 l 1,18,19
 113 200 l 1,20,21
 113 100 l 1,22,23
 263 100 l 1,24,25
 263 0 l 1,26,27
 87 0 l 1,28,29
 87 100 l 1,30,31
 63 100 l 1,32,33
 63 400 l 1,34,35
 87 400 l 1,8,9
EndSplineSet
Validated: 1
EndChar

StartChar: eacute
Encoding: 233 233 177
Width: 300
GlyphClass: 2
Flags: W
LayerCount: 2
Back
Fore
SplineSet
137 600 m 1,0,1
 137 700 l 1,2,3
 163 700 l 1,4,5
 163 800 l 1,6,7
 213 800 l 1,8,9
 213 700 l 1,10,11
 187 700 l 1,12,13
 187 600 l 1,14,15
 137 600 l 1,0,1
113 400 m 1,16,17
 113 300 l 1,18,19
 237 300 l 1,20,21
 237 400 l 1,22,23
 113 400 l 1,16,17
87 400 m 1,24,25
 87 500 l 1,26,27
 262 500 l 1,28,29
 262 484 262 484 262.5 450 c 0
 263 416 263 416 263 400 c 1,30,31
 287 400 l 1,32,33
 287 200 l 1,34,35
 113 200 l 1,36,37
 113 100 l 1,38,39
 263 100 l 1,40,41
 263 0 l 1,42,43
 87 0 l 1,44,45
 87 100 l 1,46,47
 63 100 l 1,48,49
 63 400 l 1,50,51
 87 400 l 1,24,25
EndSplineSet
Validated: 1
EndChar

StartChar: ecircumflex
Encoding: 234 234 178
Width: 300
GlyphClass: 2
Flags: W
LayerCount: 2
Back
Fore
SplineSet
113 600 m 1,0,1
 113 700 l 1,2,3
 137 700 l 1,4,5
 137 800 l 1,6,7
 213 800 l 1,8,9
 213 700 l 1,10,11
 237 700 l 1,12,13
 237 600 l 1,14,15
 187 600 l 1,16,17
 187 700 l 1,18,19
 163 700 l 1,20,21
 163 600 l 1,22,23
 113 600 l 1,0,1
113 400 m 1,24,25
 113 300 l 1,26,27
 237 300 l 1,28,29
 237 400 l 1,30,31
 113 400 l 1,24,25
87 400 m 1,32,33
 87 500 l 1,34,35
 262 500 l 1,36,37
 262 484 262 484 262.5 450 c 0
 263 416 263 416 263 400 c 1,38,39
 287 400 l 1,40,41
 287 200 l 1,42,43
 113 200 l 1,44,45
 113 100 l 1,46,47
 263 100 l 1,48,49
 263 0 l 1,50,51
 87 0 l 1,52,53
 87 100 l 1,54,55
 63 100 l 1,56,57
 63 400 l 1,58,59
 87 400 l 1,32,33
EndSplineSet
Validated: 1
EndChar

StartChar: edieresis
Encoding: 235 235 179
Width: 300
GlyphClass: 2
Flags: W
LayerCount: 2
Back
Fore
SplineSet
213 700 m 1,0,1
 263 700 l 1,2,3
 263 600 l 1,4,5
 213 600 l 1,6,7
 213 700 l 1,0,1
87 700 m 1,8,9
 137 700 l 1,10,11
 137 600 l 1,12,13
 87 600 l 1,14,15
 87 700 l 1,8,9
113 400 m 1,16,17
 113 300 l 1,18,19
 237 300 l 1,20,21
 237 400 l 1,22,23
 113 400 l 1,16,17
87 400 m 1,24,25
 87 416 87 416 87.5 450 c 0
 88 484 88 484 88 500 c 1,26,27
 262 500 l 1,28,29
 262 484 262 484 262.5 450 c 0
 263 416 263 416 263 400 c 1,30,31
 287 400 l 1,32,33
 287 200 l 1,34,35
 113 200 l 1,36,37
 113 100 l 1,38,39
 263 100 l 1,40,41
 263 0 l 1,42,43
 87 0 l 1,44,45
 87 100 l 1,46,47
 63 100 l 1,48,49
 63 400 l 1,50,51
 87 400 l 1,24,25
EndSplineSet
Validated: 1
EndChar

StartChar: igrave
Encoding: 236 236 180
Width: 300
GlyphClass: 2
Flags: W
LayerCount: 2
Back
Fore
SplineSet
125 600 m 1,0,1
 125 700 l 1,2,3
 100 700 l 1,4,5
 100 800 l 1,6,7
 150 800 l 1,8,9
 150 700 l 1,10,11
 175 700 l 1,12,13
 175 600 l 1,14,15
 125 600 l 1,0,1
100 500 m 1,16,17
 175 500 l 1,18,19
 175 100 l 1,20,21
 225 100 l 1,22,23
 225 0 l 1,24,25
 75 0 l 1,26,27
 75 100 l 1,28,29
 125 100 l 1,30,31
 125 400 l 1,32,33
 100 400 l 1,34,35
 100 500 l 1,16,17
EndSplineSet
Validated: 1
EndChar

StartChar: iacute
Encoding: 237 237 181
Width: 300
GlyphClass: 2
Flags: W
LayerCount: 2
Back
Fore
SplineSet
100 500 m 1,0,1
 175 500 l 1,2,3
 175 100 l 1,4,5
 225 100 l 1,6,7
 225 0 l 1,8,9
 75 0 l 1,10,11
 75 100 l 1,12,13
 125 100 l 1,14,15
 125 400 l 1,16,17
 100 400 l 1,18,19
 100 500 l 1,0,1
EndSplineSet
Validated: 1
EndChar

StartChar: icircumflex
Encoding: 238 238 182
Width: 300
GlyphClass: 2
Flags: W
LayerCount: 2
Back
Fore
SplineSet
75 600 m 1,0,1
 75 700 l 1,2,3
 100 700 l 1,4,5
 100 800 l 1,6,7
 175 800 l 1,8,9
 175 700 l 1,10,11
 200 700 l 1,12,13
 200 600 l 1,14,15
 150 600 l 1,16,17
 150 700 l 1,18,19
 125 700 l 1,20,21
 125 600 l 1,22,23
 75 600 l 1,0,1
100 500 m 1,24,25
 175 500 l 1,26,27
 175 100 l 1,28,29
 225 100 l 1,30,31
 225 0 l 1,32,33
 75 0 l 1,34,35
 75 100 l 1,36,37
 125 100 l 1,38,39
 125 400 l 1,40,41
 100 400 l 1,42,43
 100 500 l 1,24,25
EndSplineSet
Validated: 1
EndChar

StartChar: idieresis
Encoding: 239 239 183
Width: 300
GlyphClass: 2
Flags: W
LayerCount: 2
Back
Fore
SplineSet
100 500 m 1,0,1
 175 500 l 1,2,3
 175 100 l 1,4,5
 225 100 l 1,6,7
 225 0 l 1,8,9
 75 0 l 1,10,11
 75 100 l 1,12,13
 125 100 l 1,14,15
 125 400 l 1,16,17
 100 400 l 1,18,19
 100 500 l 1,0,1
100 700 m 1,20,21
 175 700 l 1,22,23
 175 600 l 1,24,25
 100 600 l 1,26,27
 100 700 l 1,20,21
EndSplineSet
Validated: 1
EndChar

StartChar: eth
Encoding: 240 240 184
Width: 300
GlyphClass: 2
Flags: W
LayerCount: 2
Back
Fore
SplineSet
100 100 m 1,0,1
 175 100 l 1,2,3
 175 200 l 1,4,5
 200 200 l 1,6,7
 200 300 l 1,8,9
 150 300 l 1,10,11
 150 400 l 1,12,13
 100 400 l 1,14,15
 100 300 l 1,16,17
 75 300 l 1,18,19
 75 200 l 1,20,21
 100 200 l 1,22,23
 100 100 l 1,0,1
75 0 m 1,24,25
 75 100 l 1,26,27
 50 100 l 1,28,29
 50 200 l 1,30,31
 25 200 l 1,32,33
 25 300 l 1,34,35
 50 300 l 1,36,37
 50 400 l 1,38,39
 75 400 l 1,40,41
 75 500 l 1,42,43
 175 500 l 1,44,45
 175 400 l 1,46,47
 200 400 l 1,48,49
 200 500 l 1,50,51
 175 500 l 1,52,53
 175 600 l 1,54,55
 125 600 l 1,56,57
 125 700 l 1,58,59
 275 700 l 1,60,61
 275 600 l 1,62,63
 225 600 l 1,64,65
 225 500 l 1,66,67
 250 500 l 1,68,69
 250 200 l 1,70,71
 225 200 l 1,72,73
 225 100 l 1,74,75
 200 100 l 1,76,77
 200 0 l 1,78,79
 75 0 l 1,24,25
EndSplineSet
Validated: 5
EndChar

StartChar: ntilde
Encoding: 241 241 185
Width: 300
GlyphClass: 2
Flags: W
LayerCount: 2
Back
Fore
SplineSet
87 600 m 1,0,1
 87 700 l 1,2,3
 113 700 l 1,4,5
 113 800 l 1,6,7
 187 800 l 1,8,9
 187 700 l 1,10,11
 213 700 l 1,12,13
 213 800 l 1,14,15
 263 800 l 1,16,17
 263 700 l 1,18,19
 237 700 l 1,20,21
 237 600 l 1,22,23
 163 600 l 1,24,25
 163 700 l 1,26,27
 137 700 l 1,28,29
 137 600 l 1,30,31
 87 600 l 1,0,1
63 0 m 1,32,33
 63 500 l 1,34,35
 113 500 l 1,36,37
 113 400 l 1,38,39
 137 400 l 1,40,41
 137 500 l 1,42,43
 263 500 l 1,44,45
 263 400 l 1,46,47
 287 400 l 1,48,49
 287 0 l 1,50,51
 237 0 l 1,52,53
 237 400 l 1,54,55
 137 400 l 1,56,57
 137 300 l 1,58,59
 113 300 l 1,60,61
 113 0 l 1,62,63
 63 0 l 1,32,33
EndSplineSet
Validated: 5
EndChar

StartChar: ograve
Encoding: 242 242 186
Width: 300
GlyphClass: 2
Flags: W
LayerCount: 2
Back
Fore
SplineSet
113 400 m 1,0,1
 113 100 l 1,2,3
 237 100 l 1,4,5
 237 400 l 1,6,7
 113 400 l 1,0,1
87 500 m 1,8,9
 263 500 l 1,10,11
 263 400 l 1,12,13
 287 400 l 1,14,15
 287 100 l 1,16,17
 263 100 l 1,18,19
 263 0 l 1,20,21
 87 0 l 1,22,23
 87 100 l 1,24,25
 63 100 l 1,26,27
 63 400 l 1,28,29
 87 400 l 1,30,31
 87 500 l 1,8,9
EndSplineSet
Validated: 1
EndChar

StartChar: oacute
Encoding: 243 243 187
Width: 300
GlyphClass: 2
Flags: W
LayerCount: 2
Back
Fore
SplineSet
137 600 m 1,0,1
 137 700 l 1,2,3
 163 700 l 1,4,5
 163 800 l 1,6,7
 213 800 l 1,8,9
 213 700 l 1,10,11
 187 700 l 1,12,13
 187 600 l 1,14,15
 137 600 l 1,0,1
113 400 m 1,16,17
 113 100 l 1,18,19
 237 100 l 1,20,21
 237 400 l 1,22,23
 113 400 l 1,16,17
87 500 m 1,24,25
 263 500 l 1,26,27
 263 400 l 1,28,29
 287 400 l 1,30,31
 287 100 l 1,32,33
 263 100 l 1,34,35
 263 0 l 1,36,37
 87 0 l 1,38,39
 87 100 l 1,40,41
 63 100 l 1,42,43
 63 400 l 1,44,45
 87 400 l 1,46,47
 87 500 l 1,24,25
EndSplineSet
Validated: 1
EndChar

StartChar: ocircumflex
Encoding: 244 244 188
Width: 300
GlyphClass: 2
Flags: W
LayerCount: 2
Back
Fore
SplineSet
113 600 m 1,0,1
 113 700 l 1,2,3
 137 700 l 1,4,5
 137 800 l 1,6,7
 213 800 l 1,8,9
 213 700 l 1,10,11
 237 700 l 1,12,13
 237 600 l 1,14,15
 187 600 l 1,16,17
 187 700 l 1,18,19
 163 700 l 1,20,21
 163 600 l 1,22,23
 113 600 l 1,0,1
113 400 m 1,24,25
 113 100 l 1,26,27
 237 100 l 1,28,29
 237 400 l 1,30,31
 113 400 l 1,24,25
87 500 m 1,32,33
 263 500 l 1,34,35
 263 400 l 1,36,37
 287 400 l 1,38,39
 287 100 l 1,40,41
 263 100 l 1,42,43
 263 0 l 1,44,45
 87 0 l 1,46,47
 87 100 l 1,48,49
 63 100 l 1,50,51
 63 400 l 1,52,53
 87 400 l 1,54,55
 87 500 l 1,32,33
EndSplineSet
Validated: 1
EndChar

StartChar: otilde
Encoding: 245 245 189
Width: 300
GlyphClass: 2
Flags: W
LayerCount: 2
Back
Fore
SplineSet
87 600 m 1,0,1
 87 700 l 1,2,3
 113 700 l 1,4,5
 113 800 l 1,6,7
 187 800 l 1,8,9
 187 700 l 1,10,11
 213 700 l 1,12,13
 213 800 l 1,14,15
 263 800 l 1,16,17
 263 700 l 1,18,19
 237 700 l 1,20,21
 237 600 l 1,22,23
 163 600 l 1,24,25
 163 700 l 1,26,27
 137 700 l 1,28,29
 137 600 l 1,30,31
 87 600 l 1,0,1
113 400 m 1,32,33
 113 100 l 1,34,35
 237 100 l 1,36,37
 237 400 l 1,38,39
 113 400 l 1,32,33
87 500 m 1,40,41
 263 500 l 1,42,43
 263 400 l 1,44,45
 287 400 l 1,46,47
 287 100 l 1,48,49
 263 100 l 1,50,51
 263 0 l 1,52,53
 87 0 l 1,54,55
 87 100 l 1,56,57
 63 100 l 1,58,59
 63 400 l 1,60,61
 87 400 l 1,62,63
 87 500 l 1,40,41
EndSplineSet
Validated: 1
EndChar

StartChar: odieresis
Encoding: 246 246 190
Width: 300
GlyphClass: 2
Flags: W
LayerCount: 2
Back
Fore
SplineSet
213 600 m 1,0,1
 213 700 l 1,2,3
 263 700 l 1,4,5
 263 600 l 1,6,7
 213 600 l 1,0,1
87 600 m 1,8,9
 87 700 l 1,10,11
 137 700 l 1,12,13
 137 600 l 1,14,15
 87 600 l 1,8,9
113 400 m 1,16,17
 113 100 l 1,18,19
 237 100 l 1,20,21
 237 400 l 1,22,23
 113 400 l 1,16,17
87 500 m 1,24,25
 263 500 l 1,26,27
 263 400 l 1,28,29
 287 400 l 1,30,31
 287 100 l 1,32,33
 263 100 l 1,34,35
 263 0 l 1,36,37
 87 0 l 1,38,39
 87 100 l 1,40,41
 63 100 l 1,42,43
 63 400 l 1,44,45
 87 400 l 1,46,47
 87 500 l 1,24,25
EndSplineSet
Validated: 1
EndChar

StartChar: divide
Encoding: 247 247 191
Width: 300
GlyphClass: 2
Flags: W
LayerCount: 2
Back
Fore
SplineSet
125 100 m 1,0,1
 125 200 l 1,2,3
 175 200 l 1,4,5
 175 100 l 1,6,7
 125 100 l 1,0,1
50 300 m 1,8,9
 50 400 l 1,10,11
 250 400 l 1,12,13
 250 300 l 1,14,15
 50 300 l 1,8,9
125 500 m 1,16,17
 125 600 l 1,18,19
 175 600 l 1,20,21
 175 500 l 1,22,23
 125 500 l 1,16,17
EndSplineSet
Validated: 1
EndChar

StartChar: oslash
Encoding: 248 248 192
Width: 300
GlyphClass: 2
Flags: W
LayerCount: 2
Back
Fore
SplineSet
113 400 m 1,0,1
 113 100 l 1,2,3
 237 100 l 1,4,5
 237 400 l 1,6,7
 113 400 l 1,0,1
87 500 m 1,8,9
 263 500 l 1,10,11
 263 400 l 1,12,13
 287 400 l 1,14,15
 287 100 l 1,16,17
 263 100 l 1,18,19
 263 0 l 1,20,21
 87 0 l 1,22,23
 87 100 l 1,24,25
 63 100 l 1,26,27
 63 400 l 1,28,29
 87 400 l 1,30,31
 87 500 l 1,8,9
EndSplineSet
Validated: 1
EndChar

StartChar: ugrave
Encoding: 249 249 193
Width: 300
GlyphClass: 2
Flags: W
LayerCount: 2
Back
Fore
SplineSet
63 500 m 1,0,1
 113 500 l 1,2,3
 113 100 l 1,4,5
 213 100 l 1,6,7
 213 200 l 1,8,9
 237 200 l 1,10,11
 237 500 l 1,12,13
 287 500 l 1,14,15
 287 0 l 1,16,17
 237 0 l 1,18,19
 237 100 l 1,20,21
 213 100 l 1,22,23
 213 0 l 1,24,25
 87 0 l 1,26,27
 87 100 l 1,28,29
 63 100 l 1,30,31
 63 500 l 1,0,1
EndSplineSet
Validated: 5
EndChar

StartChar: uacute
Encoding: 250 250 194
Width: 300
GlyphClass: 2
Flags: W
LayerCount: 2
Back
Fore
SplineSet
137 600 m 1,0,1
 137 700 l 1,2,3
 163 700 l 1,4,5
 163 800 l 1,6,7
 213 800 l 1,8,9
 213 700 l 1,10,11
 187 700 l 1,12,13
 187 600 l 1,14,15
 137 600 l 1,0,1
63 500 m 1,16,17
 113 500 l 1,18,19
 113 100 l 1,20,21
 213 100 l 1,22,23
 213 200 l 1,24,25
 237 200 l 1,26,27
 237 500 l 1,28,29
 287 500 l 1,30,31
 287 0 l 1,32,33
 237 0 l 1,34,35
 237 100 l 1,36,37
 213 100 l 1,38,39
 213 0 l 1,40,41
 87 0 l 1,42,43
 87 100 l 1,44,45
 63 100 l 1,46,47
 63 500 l 1,16,17
EndSplineSet
Validated: 5
EndChar

StartChar: ucircumflex
Encoding: 251 251 195
Width: 300
GlyphClass: 2
Flags: W
LayerCount: 2
Back
Fore
SplineSet
113 600 m 1,0,1
 113 700 l 1,2,3
 137 700 l 1,4,5
 137 800 l 1,6,7
 213 800 l 1,8,9
 213 700 l 1,10,11
 237 700 l 1,12,13
 237 600 l 1,14,15
 187 600 l 1,16,17
 187 700 l 1,18,19
 163 700 l 1,20,21
 163 600 l 1,22,23
 113 600 l 1,0,1
63 500 m 1,24,25
 113 500 l 1,26,27
 113 100 l 1,28,29
 213 100 l 1,30,31
 213 200 l 1,32,33
 237 200 l 1,34,35
 237 500 l 1,36,37
 287 500 l 1,38,39
 287 0 l 1,40,41
 237 0 l 1,42,43
 237 100 l 1,44,45
 213 100 l 1,46,47
 213 0 l 1,48,49
 87 0 l 1,50,51
 87 100 l 1,52,53
 63 100 l 1,54,55
 63 500 l 1,24,25
EndSplineSet
Validated: 5
EndChar

StartChar: udieresis
Encoding: 252 252 196
Width: 300
GlyphClass: 2
Flags: W
LayerCount: 2
Back
Fore
SplineSet
63 500 m 1,0,1
 113 500 l 1,2,3
 113 100 l 1,4,5
 213 100 l 1,6,7
 213 200 l 1,8,9
 237 200 l 1,10,11
 237 500 l 1,12,13
 287 500 l 1,14,15
 287 0 l 1,16,17
 237 0 l 1,18,19
 237 100 l 1,20,21
 213 100 l 1,22,23
 213 0 l 1,24,25
 87 0 l 1,26,27
 87 100 l 1,28,29
 63 100 l 1,30,31
 63 500 l 1,0,1
EndSplineSet
Validated: 5
EndChar

StartChar: yacute
Encoding: 253 253 197
Width: 300
GlyphClass: 2
Flags: W
LayerCount: 2
Back
Fore
SplineSet
137 600 m 1,0,1
 137 700 l 1,2,3
 163 700 l 1,4,5
 163 800 l 1,6,7
 213 800 l 1,8,9
 213 700 l 1,10,11
 187 700 l 1,12,13
 187 600 l 1,14,15
 137 600 l 1,0,1
63 500 m 1,16,17
 113 500 l 1,18,19
 113 400 l 1,20,21
 137 400 l 1,22,23
 137 300 l 1,24,25
 163 300 l 1,26,27
 163 200 l 1,28,29
 187 200 l 1,30,31
 187 300 l 1,32,33
 213 300 l 1,34,35
 213 400 l 1,36,37
 237 400 l 1,38,39
 237 500 l 1,40,41
 287 500 l 1,42,43
 287 400 l 1,44,45
 263 400 l 1,46,47
 263 300 l 1,48,49
 237 300 l 1,50,51
 237 200 l 1,52,53
 213 200 l 1,54,55
 213 100 l 1,56,57
 187 100 l 1,58,59
 187 0 l 1,60,61
 163 0 l 1,62,63
 163 -100 l 1,64,65
 137 -100 l 1,66,67
 137 -200 l 1,68,69
 63 -200 l 1,70,71
 63 -100 l 1,72,73
 113 -100 l 1,74,75
 113 0 l 1,76,77
 137 0 l 1,78,79
 137 200 l 1,80,81
 113 200 l 1,82,83
 113 300 l 1,84,85
 87 300 l 1,86,87
 87 400 l 1,88,89
 63 400 l 1,90,91
 63 500 l 1,16,17
EndSplineSet
Validated: 1
EndChar

StartChar: ydieresis
Encoding: 255 255 198
Width: 300
GlyphClass: 2
Flags: W
LayerCount: 2
Back
Fore
SplineSet
137 600 m 1,0,1
 137 700 l 1,2,3
 163 700 l 1,4,5
 163 800 l 1,6,7
 213 800 l 1,8,9
 213 700 l 1,10,11
 187 700 l 1,12,13
 187 600 l 1,14,15
 137 600 l 1,0,1
63 500 m 1,16,17
 113 500 l 1,18,19
 113 400 l 1,20,21
 137 400 l 1,22,23
 137 300 l 1,24,25
 163 300 l 1,26,27
 163 200 l 1,28,29
 187 200 l 1,30,31
 187 300 l 1,32,33
 213 300 l 1,34,35
 213 400 l 1,36,37
 237 400 l 1,38,39
 237 500 l 1,40,41
 287 500 l 1,42,43
 287 400 l 1,44,45
 263 400 l 1,46,47
 263 300 l 1,48,49
 237 300 l 1,50,51
 237 200 l 1,52,53
 213 200 l 1,54,55
 213 100 l 1,56,57
 187 100 l 1,58,59
 187 0 l 1,60,61
 163 0 l 1,62,63
 163 -100 l 1,64,65
 137 -100 l 1,66,67
 137 -200 l 1,68,69
 63 -200 l 1,70,71
 63 -100 l 1,72,73
 113 -100 l 1,74,75
 113 0 l 1,76,77
 137 0 l 1,78,79
 137 200 l 1,80,81
 113 200 l 1,82,83
 113 300 l 1,84,85
 87 300 l 1,86,87
 87 400 l 1,88,89
 63 400 l 1,90,91
 63 500 l 1,16,17
EndSplineSet
Validated: 1
EndChar

StartChar: Ccircumflex
Encoding: 264 264 199
Width: 300
GlyphClass: 2
Flags: W
LayerCount: 2
Back
Fore
SplineSet
113 700 m 1,0,1
 113 800 l 1,2,3
 263 800 l 1,4,5
 263 700 l 1,6,7
 113 700 l 1,0,1
113 600 m 1,8,9
 263 600 l 1,10,11
 263 500 l 1,12,13
 287 500 l 1,14,15
 287 400 l 1,16,17
 237 400 l 1,18,19
 237 500 l 1,20,21
 137 500 l 1,22,23
 137 400 l 1,24,25
 113 400 l 1,26,27
 113 200 l 1,28,29
 137 200 l 1,30,31
 137 100 l 1,32,33
 237 100 l 1,34,35
 237 200 l 1,36,37
 287 200 l 1,38,39
 287 100 l 1,40,41
 263 100 l 1,42,43
 263 0 l 1,44,45
 113 0 l 1,46,47
 113 100 l 1,48,49
 87 100 l 1,50,51
 87 200 l 1,52,53
 63 200 l 1,54,55
 63 400 l 1,56,57
 87 400 l 1,58,59
 87 500 l 1,60,61
 113 500 l 1,62,63
 113 600 l 1,8,9
EndSplineSet
Validated: 1
EndChar

StartChar: ccircumflex
Encoding: 265 265 200
Width: 300
GlyphClass: 2
Flags: W
LayerCount: 2
Back
Fore
SplineSet
137 600 m 1,0,1
 137 700 l 1,2,3
 163 700 l 1,4,5
 163 800 l 1,6,7
 237 800 l 1,8,9
 237 700 l 1,10,11
 263 700 l 1,12,13
 263 600 l 1,14,15
 213 600 l 1,16,17
 213 700 l 1,18,19
 187 700 l 1,20,21
 187 600 l 1,22,23
 137 600 l 1,0,1
113 500 m 1,24,25
 287 500 l 1,26,27
 287 400 l 1,28,29
 137 400 l 1,30,31
 137 300 l 1,32,33
 113 300 l 1,34,35
 113 200 l 1,36,37
 137 200 l 1,38,39
 137 100 l 1,40,41
 287 100 l 1,42,43
 287 0 l 1,44,45
 113 0 l 1,46,47
 113 100 l 1,48,49
 87 100 l 1,50,51
 87 200 l 1,52,53
 63 200 l 1,54,55
 63 300 l 1,56,57
 87 300 l 1,58,59
 87 400 l 1,60,61
 113 400 l 1,62,63
 113 500 l 1,24,25
EndSplineSet
Validated: 1
EndChar

StartChar: Cdotaccent
Encoding: 266 266 201
Width: 300
GlyphClass: 2
Flags: W
LayerCount: 2
Back
Fore
SplineSet
163 700 m 1,0,1
 163 800 l 1,2,3
 213 800 l 1,4,5
 213 700 l 1,6,7
 163 700 l 1,0,1
113 600 m 1,8,9
 263 600 l 1,10,11
 263 500 l 1,12,13
 287 500 l 1,14,15
 287 400 l 1,16,17
 237 400 l 1,18,19
 237 500 l 1,20,21
 137 500 l 1,22,23
 137 400 l 1,24,25
 113 400 l 1,26,27
 113 200 l 1,28,29
 137 200 l 1,30,31
 137 100 l 1,32,33
 237 100 l 1,34,35
 237 200 l 1,36,37
 287 200 l 1,38,39
 287 100 l 1,40,41
 263 100 l 1,42,43
 263 0 l 1,44,45
 113 0 l 1,46,47
 113 100 l 1,48,49
 87 100 l 1,50,51
 87 200 l 1,52,53
 63 200 l 1,54,55
 63 400 l 1,56,57
 87 400 l 1,58,59
 87 500 l 1,60,61
 113 500 l 1,62,63
 113 600 l 1,8,9
EndSplineSet
Validated: 1
EndChar

StartChar: cdotaccent
Encoding: 267 267 202
Width: 300
GlyphClass: 2
Flags: W
LayerCount: 2
Back
Fore
SplineSet
163 600 m 1,0,1
 163 700 l 1,2,3
 213 700 l 1,4,5
 213 600 l 1,6,7
 163 600 l 1,0,1
113 500 m 1,8,9
 287 500 l 1,10,11
 287 400 l 1,12,13
 137 400 l 1,14,15
 137 300 l 1,16,17
 113 300 l 1,18,19
 113 200 l 1,20,21
 137 200 l 1,22,23
 137 100 l 1,24,25
 287 100 l 1,26,27
 287 0 l 1,28,29
 113 0 l 1,30,31
 113 100 l 1,32,33
 87 100 l 1,34,35
 87 200 l 1,36,37
 63 200 l 1,38,39
 63 300 l 1,40,41
 87 300 l 1,42,43
 87 400 l 1,44,45
 113 400 l 1,46,47
 113 500 l 1,8,9
EndSplineSet
Validated: 1
EndChar

StartChar: Ccaron
Encoding: 268 268 203
Width: 300
GlyphClass: 2
Flags: W
LayerCount: 2
Back
Fore
SplineSet
113 500 m 1,0,1
 113 600 l 1,2,3
 137 600 l 1,4,5
 137 700 l 1,6,7
 113 700 l 1,8,9
 113 800 l 1,10,11
 163 800 l 1,12,13
 163 700 l 1,14,15
 187 700 l 1,16,17
 187 800 l 1,18,19
 237 800 l 1,20,21
 237 700 l 1,22,23
 213 700 l 1,24,25
 213 600 l 1,26,27
 263 600 l 1,28,29
 263 500 l 1,30,31
 287 500 l 1,32,33
 287 400 l 1,34,35
 237 400 l 1,36,37
 237 500 l 1,38,39
 137 500 l 1,40,41
 137 400 l 1,42,43
 113 400 l 1,44,45
 113 200 l 1,46,47
 137 200 l 1,48,49
 137 100 l 1,50,51
 237 100 l 1,52,53
 237 200 l 1,54,55
 287 200 l 1,56,57
 287 100 l 1,58,59
 263 100 l 1,60,61
 263 0 l 1,62,63
 113 0 l 1,64,65
 113 100 l 1,66,67
 87 100 l 1,68,69
 87 200 l 1,70,71
 63 200 l 1,72,73
 63 400 l 1,74,75
 87 400 l 1,76,77
 87 500 l 1,78,79
 113 500 l 1,0,1
EndSplineSet
Validated: 1
EndChar

StartChar: ccaron
Encoding: 269 269 204
Width: 300
GlyphClass: 2
Flags: W
LayerCount: 2
Back
Fore
SplineSet
137 700 m 1,0,1
 137 800 l 1,2,3
 187 800 l 1,4,5
 187 700 l 1,6,7
 213 700 l 1,8,9
 213 800 l 1,10,11
 263 800 l 1,12,13
 263 700 l 1,14,15
 237 700 l 1,16,17
 237 600 l 1,18,19
 163 600 l 1,20,21
 163 700 l 1,22,23
 137 700 l 1,0,1
113 500 m 1,24,25
 287 500 l 1,26,27
 287 400 l 1,28,29
 137 400 l 1,30,31
 137 300 l 1,32,33
 113 300 l 1,34,35
 113 200 l 1,36,37
 137 200 l 1,38,39
 137 100 l 1,40,41
 287 100 l 1,42,43
 287 0 l 1,44,45
 113 0 l 1,46,47
 113 100 l 1,48,49
 87 100 l 1,50,51
 87 200 l 1,52,53
 63 200 l 1,54,55
 63 300 l 1,56,57
 87 300 l 1,58,59
 87 400 l 1,60,61
 113 400 l 1,62,63
 113 500 l 1,24,25
EndSplineSet
Validated: 1
EndChar

StartChar: Dcaron
Encoding: 270 270 205
Width: 300
GlyphClass: 2
Flags: W
LayerCount: 2
Back
Fore
SplineSet
113 500 m 1,0,1
 113 100 l 1,2,3
 213 100 l 1,4,5
 213 200 l 1,6,7
 237 200 l 1,8,9
 237 400 l 1,10,11
 213 400 l 1,12,13
 213 500 l 1,14,15
 113 500 l 1,0,1
237 500 m 1,16,17
 263 500 l 1,18,19
 263 400 l 1,20,21
 287 400 l 1,22,23
 287 200 l 1,24,25
 263 200 l 1,26,27
 263 100 l 1,28,29
 237 100 l 1,30,31
 237 0 l 1,32,33
 63 0 l 1,34,35
 63 600 l 1,36,37
 113 600 l 1,38,39
 113 700 l 1,40,41
 87 700 l 1,42,43
 87 800 l 1,44,45
 137 800 l 1,46,47
 137 700 l 1,48,49
 163 700 l 1,50,51
 163 800 l 1,52,53
 213 800 l 1,54,55
 213 700 l 1,56,57
 187 700 l 1,58,59
 187 600 l 1,60,61
 237 600 l 1,62,63
 237 500 l 1,16,17
EndSplineSet
Validated: 1
EndChar

StartChar: dcaron
Encoding: 271 271 206
Width: 300
GlyphClass: 2
Flags: W
LayerCount: 2
Back
Fore
SplineSet
263 600 m 1,0,1
 263 800 l 1,2,3
 313 800 l 1,4,5
 313 600 l 1,6,7
 263 600 l 1,0,1
87 100 m 1,8,9
 187 100 l 1,10,11
 187 300 l 1,12,13
 163 300 l 1,14,15
 163 400 l 1,16,17
 87 400 l 1,18,19
 87 100 l 1,8,9
187 700 m 1,20,21
 237 700 l 1,22,23
 237 0 l 1,24,25
 63 0 l 1,26,27
 63 100 l 1,28,29
 37 100 l 1,30,31
 37 400 l 1,32,33
 63 400 l 1,34,35
 63 500 l 1,36,37
 163 500 l 1,38,39
 163 400 l 1,40,41
 187 400 l 1,42,43
 187 700 l 1,20,21
EndSplineSet
Validated: 5
EndChar

StartChar: Dcroat
Encoding: 272 272 207
Width: 300
GlyphClass: 2
Flags: W
LayerCount: 2
Back
Fore
SplineSet
187 100 m 1,0,1
 187 200 l 1,2,3
 213 200 l 1,4,5
 213 500 l 1,6,7
 187 500 l 1,8,9
 187 600 l 1,10,11
 87 600 l 1,12,13
 87 400 l 1,14,15
 137 400 l 1,16,17
 137 300 l 1,18,19
 87 300 l 1,20,21
 87 100 l 1,22,23
 187 100 l 1,0,1
37 700 m 1,24,25
 213 700 l 1,26,27
 213 600 l 1,28,29
 237 600 l 1,30,31
 237 500 l 1,32,33
 263 500 l 1,34,35
 263 200 l 1,36,37
 237 200 l 1,38,39
 237 100 l 1,40,41
 213 100 l 1,42,43
 213 0 l 1,44,45
 37 0 l 1,46,47
 37 300 l 1,48,49
 -13 300 l 1,50,51
 -13 400 l 1,52,53
 37 400 l 1,54,55
 37 700 l 1,24,25
EndSplineSet
Validated: 1
EndChar

StartChar: dcroat
Encoding: 273 273 208
Width: 300
GlyphClass: 2
Flags: W
LayerCount: 2
Back
Fore
SplineSet
87 100 m 1,0,1
 213 100 l 1,2,3
 213 300 l 1,4,5
 87 300 l 1,6,7
 87 100 l 1,0,1
63 0 m 1,8,9
 63 100 l 1,10,11
 37 100 l 1,12,13
 37 300 l 1,14,15
 63 300 l 1,16,17
 63 400 l 1,18,19
 213 400 l 1,20,21
 213 500 l 1,22,23
 163 500 l 1,24,25
 163 600 l 1,26,27
 213 600 l 1,28,29
 213 700 l 1,30,31
 263 700 l 1,32,33
 263 600 l 1,34,35
 313 600 l 1,36,37
 313 500 l 1,38,39
 263 500 l 1,40,41
 263 0 l 1,42,43
 63 0 l 1,8,9
EndSplineSet
Validated: 1
EndChar

StartChar: IJ
Encoding: 306 306 209
Width: 300
GlyphClass: 2
Flags: W
LayerCount: 2
Back
Fore
SplineSet
250 700 m 1,0,1
 300 700 l 1,2,3
 300 100 l 1,4,5
 275 100 l 1,6,7
 275 0 l 1,8,9
 175 0 l 1,10,11
 175 100 l 1,12,13
 150 100 l 1,14,15
 150 200 l 1,16,17
 200 200 l 1,18,19
 200 100 l 1,20,21
 250 100 l 1,22,23
 250 700 l 1,0,1
0 700 m 1,24,25
 150 700 l 1,26,27
 150 600 l 1,28,29
 100 600 l 1,30,31
 100 100 l 1,32,33
 150 100 l 1,34,35
 150 0 l 1,36,37
 0 0 l 1,38,39
 0 100 l 1,40,41
 50 100 l 1,42,43
 50 600 l 1,44,45
 0 600 l 1,46,47
 0 700 l 1,24,25
EndSplineSet
Validated: 5
EndChar

StartChar: ij
Encoding: 307 307 210
Width: 300
GlyphClass: 2
Flags: W
LayerCount: 2
Back
Fore
SplineSet
275 600 m 1,0,1
 275 700 l 1,2,3
 200 700 l 1,4,5
 200 600 l 1,6,7
 275 600 l 1,0,1
100 600 m 1,8,9
 100 700 l 1,10,11
 25 700 l 1,12,13
 25 600 l 1,14,15
 100 600 l 1,8,9
125 0 m 1,16,17
 175 0 l 1,18,19
 175 -100 l 1,20,21
 225 -100 l 1,22,23
 225 400 l 1,24,25
 200 400 l 1,26,27
 200 500 l 1,28,29
 275 500 l 1,30,31
 275 -100 l 1,32,33
 250 -100 l 1,34,35
 250 -200 l 1,36,37
 150 -200 l 1,38,39
 150 -100 l 1,40,41
 125 -100 l 1,42,43
 125 0 l 1,16,17
25 0 m 1,44,45
 25 100 l 1,46,47
 50 100 l 1,48,49
 50 400 l 1,50,51
 25 400 l 1,52,53
 25 500 l 1,54,55
 100 500 l 1,56,57
 100 100 l 1,58,59
 125 100 l 1,60,61
 125 0 l 1,62,63
 25 0 l 1,44,45
EndSplineSet
Validated: 5
EndChar

StartChar: Rcaron
Encoding: 344 344 211
Width: 300
GlyphClass: 2
Flags: W
LayerCount: 2
Back
Fore
SplineSet
113 400 m 1,0,1
 237 400 l 1,2,3
 237 500 l 1,4,5
 113 500 l 1,6,7
 113 400 l 1,0,1
63 0 m 1,8,9
 63 600 l 1,10,11
 137 600 l 1,12,13
 137 700 l 1,14,15
 113 700 l 1,16,17
 113 800 l 1,18,19
 163 800 l 1,20,21
 163 700 l 1,22,23
 187 700 l 1,24,25
 187 800 l 1,26,27
 237 800 l 1,28,29
 237 700 l 1,30,31
 213 700 l 1,32,33
 213 600 l 1,34,35
 263 600 l 1,36,37
 263 500 l 1,38,39
 287 500 l 1,40,41
 287 400 l 1,42,43
 263 400 l 1,44,45
 263 300 l 1,46,47
 213 300 l 1,48,49
 213 200 l 1,50,51
 237 200 l 1,52,53
 237 100 l 1,54,55
 287 100 l 1,56,57
 287 0 l 1,58,59
 213 0 l 1,60,61
 213 100 l 1,62,63
 187 100 l 1,64,65
 187 200 l 1,66,67
 163 200 l 1,68,69
 163 300 l 1,70,71
 113 300 l 1,72,73
 113 0 l 1,74,75
 63 0 l 1,8,9
EndSplineSet
Validated: 1
EndChar

StartChar: rcaron
Encoding: 345 345 212
Width: 300
GlyphClass: 2
Flags: W
LayerCount: 2
Back
Fore
SplineSet
63 0 m 1,0,1
 63 500 l 1,2,3
 113 500 l 1,4,5
 113 400 l 1,6,7
 163 400 l 1,8,9
 163 500 l 1,10,11
 287 500 l 1,12,13
 287 400 l 1,14,15
 163 400 l 1,16,17
 163 300 l 1,18,19
 113 300 l 1,20,21
 113 0 l 1,22,23
 63 0 l 1,0,1
EndSplineSet
Validated: 5
EndChar

StartChar: Scaron
Encoding: 352 352 213
Width: 300
GlyphClass: 2
Flags: W
LayerCount: 2
Back
Fore
SplineSet
63 400 m 1,0,1
 63 500 l 1,2,3
 87 500 l 1,4,5
 87 600 l 1,6,7
 137 600 l 1,8,9
 137 700 l 1,10,11
 113 700 l 1,12,13
 113 800 l 1,14,15
 163 800 l 1,16,17
 163 700 l 1,18,19
 187 700 l 1,20,21
 187 800 l 1,22,23
 237 800 l 1,24,25
 237 700 l 1,26,27
 213 700 l 1,28,29
 213 600 l 1,30,31
 263 600 l 1,32,33
 263 500 l 1,34,35
 137 500 l 1,36,37
 137 400 l 1,38,39
 187 400 l 1,40,41
 187 300 l 1,42,43
 263 300 l 1,44,45
 263 200 l 1,46,47
 287 200 l 1,48,49
 287 100 l 1,50,51
 263 100 l 1,52,53
 263 0 l 1,54,55
 87 0 l 1,56,57
 87 100 l 1,58,59
 213 100 l 1,60,61
 213 200 l 1,62,63
 163 200 l 1,64,65
 163 300 l 1,66,67
 87 300 l 1,68,69
 87 400 l 1,70,71
 63 400 l 1,0,1
EndSplineSet
Validated: 1
EndChar

StartChar: scaron
Encoding: 353 353 214
Width: 300
GlyphClass: 2
Flags: W
LayerCount: 2
Back
Fore
SplineSet
113 700 m 1,0,1
 113 800 l 1,2,3
 163 800 l 1,4,5
 163 700 l 1,6,7
 187 700 l 1,8,9
 187 800 l 1,10,11
 237 800 l 1,12,13
 237 700 l 1,14,15
 213 700 l 1,16,17
 213 600 l 1,18,19
 137 600 l 1,20,21
 137 700 l 1,22,23
 113 700 l 1,0,1
263 400 m 1,24,25
 113 400 l 1,26,27
 113 300 l 1,28,29
 263 300 l 1,30,31
 263 200 l 1,32,33
 287 200 l 1,34,35
 287 100 l 1,36,37
 263 100 l 1,38,39
 263 0 l 1,40,41
 87 0 l 1,42,43
 87 100 l 1,44,45
 237 100 l 1,46,47
 237 200 l 1,48,49
 87 200 l 1,50,51
 87 300 l 1,52,53
 63 300 l 1,54,55
 63 400 l 1,56,57
 87 400 l 1,58,59
 87 500 l 1,60,61
 263 500 l 1,62,63
 263 400 l 1,24,25
EndSplineSet
Validated: 1
EndChar

StartChar: Tcaron
Encoding: 356 356 215
Width: 300
GlyphClass: 2
Flags: W
LayerCount: 2
Back
Fore
SplineSet
25 600 m 1,0,1
 100 600 l 1,2,3
 100 700 l 1,4,5
 75 700 l 1,6,7
 75 800 l 1,8,9
 125 800 l 1,10,11
 125 700 l 1,12,13
 175 700 l 1,14,15
 175 800 l 1,16,17
 225 800 l 1,18,19
 225 700 l 1,20,21
 200 700 l 1,22,23
 200 600 l 1,24,25
 275 600 l 1,26,27
 275 500 l 1,28,29
 175 500 l 1,30,31
 175 0 l 1,32,33
 125 0 l 1,34,35
 125 500 l 1,36,37
 25 500 l 1,38,39
 25 600 l 1,0,1
EndSplineSet
Validated: 1
EndChar

StartChar: tcaron
Encoding: 357 357 216
Width: 300
GlyphClass: 2
Flags: W
LayerCount: 2
Back
Fore
SplineSet
237 600 m 1,0,1
 237 800 l 1,2,3
 287 800 l 1,4,5
 287 600 l 1,6,7
 237 600 l 1,0,1
113 700 m 1,8,9
 163 700 l 1,10,11
 163 500 l 1,12,13
 237 500 l 1,14,15
 237 400 l 1,16,17
 163 400 l 1,18,19
 163 100 l 1,20,21
 287 100 l 1,22,23
 287 0 l 1,24,25
 137 0 l 1,26,27
 137 100 l 1,28,29
 113 100 l 1,30,31
 113 400 l 1,32,33
 63 400 l 1,34,35
 63 500 l 1,36,37
 113 500 l 1,38,39
 113 700 l 1,8,9
EndSplineSet
Validated: 1
EndChar

StartChar: Uring
Encoding: 366 366 217
Width: 300
GlyphClass: 2
Flags: W
LayerCount: 2
Back
Fore
SplineSet
137 600 m 1,0,1
 137 800 l 1,2,3
 213 800 l 1,4,5
 213 600 l 1,6,7
 137 600 l 1,0,1
63 600 m 1,8,9
 113 600 l 1,10,11
 113 100 l 1,12,13
 237 100 l 1,14,15
 237 600 l 1,16,17
 287 600 l 1,18,19
 287 100 l 1,20,21
 263 100 l 1,22,23
 263 0 l 1,24,25
 87 0 l 1,26,27
 87 100 l 1,28,29
 63 100 l 1,30,31
 63 600 l 1,8,9
EndSplineSet
Validated: 1
EndChar

StartChar: uring
Encoding: 367 367 218
Width: 300
GlyphClass: 2
Flags: W
LayerCount: 2
Back
Fore
SplineSet
163 600 m 1,0,1
 187 600 l 1,2,3
 187 700 l 1,4,5
 163 700 l 1,6,7
 163 600 l 1,0,1
137 500 m 1,8,9
 137 600 l 1,10,11
 113 600 l 1,12,13
 113 700 l 1,14,15
 137 700 l 1,16,17
 137 800 l 1,18,19
 213 800 l 1,20,21
 213 700 l 1,22,23
 237 700 l 1,24,25
 237 600 l 1,26,27
 213 600 l 1,28,29
 213 500 l 1,30,31
 137 500 l 1,8,9
63 500 m 1,32,33
 113 500 l 1,34,35
 113 100 l 1,36,37
 213 100 l 1,38,39
 213 200 l 1,40,41
 237 200 l 1,42,43
 237 500 l 1,44,45
 287 500 l 1,46,47
 287 0 l 1,48,49
 237 0 l 1,50,51
 237 100 l 1,52,53
 213 100 l 1,54,55
 213 0 l 1,56,57
 87 0 l 1,58,59
 87 100 l 1,60,61
 63 100 l 1,62,63
 63 500 l 1,32,33
EndSplineSet
Validated: 5
EndChar

StartChar: Uhungarumlaut
Encoding: 368 368 219
Width: 300
GlyphClass: 2
Flags: W
LayerCount: 2
Back
Fore
SplineSet
187 600 m 1,0,1
 187 700 l 1,2,3
 213 700 l 1,4,5
 213 800 l 1,6,7
 263 800 l 1,8,9
 263 700 l 1,10,11
 237 700 l 1,12,13
 237 600 l 1,14,15
 187 600 l 1,0,1
87 600 m 1,16,17
 87 700 l 1,18,19
 113 700 l 1,20,21
 113 800 l 1,22,23
 163 800 l 1,24,25
 163 700 l 1,26,27
 137 700 l 1,28,29
 137 600 l 1,30,31
 87 600 l 1,16,17
63 100 m 1,32,33
 63 500 l 1,34,35
 113 500 l 1,36,37
 113 100 l 1,38,39
 237 100 l 1,40,41
 237 500 l 1,42,43
 287 500 l 1,44,45
 287 100 l 1,46,47
 263 100 l 1,48,49
 263 0 l 1,50,51
 87 0 l 1,52,53
 87 100 l 1,54,55
 63 100 l 1,32,33
EndSplineSet
Validated: 1
EndChar

StartChar: uhungarumlaut
Encoding: 369 369 220
Width: 300
GlyphClass: 2
Flags: W
LayerCount: 2
Back
Fore
SplineSet
187 600 m 1,0,1
 187 700 l 1,2,3
 213 700 l 1,4,5
 213 800 l 1,6,7
 263 800 l 1,8,9
 263 700 l 1,10,11
 237 700 l 1,12,13
 237 600 l 1,14,15
 187 600 l 1,0,1
87 600 m 1,16,17
 87 700 l 1,18,19
 113 700 l 1,20,21
 113 800 l 1,22,23
 163 800 l 1,24,25
 163 700 l 1,26,27
 137 700 l 1,28,29
 137 600 l 1,30,31
 87 600 l 1,16,17
63 500 m 1,32,33
 113 500 l 1,34,35
 113 100 l 1,36,37
 213 100 l 1,38,39
 213 200 l 1,40,41
 237 200 l 1,42,43
 237 500 l 1,44,45
 287 500 l 1,46,47
 287 0 l 1,48,49
 237 0 l 1,50,51
 237 100 l 1,52,53
 213 100 l 1,54,55
 213 0 l 1,56,57
 87 0 l 1,58,59
 87 100 l 1,60,61
 63 100 l 1,62,63
 63 500 l 1,32,33
EndSplineSet
Validated: 5
EndChar

StartChar: Zacute
Encoding: 377 377 221
Width: 300
GlyphClass: 2
Flags: W
LayerCount: 2
Back
Fore
SplineSet
125 600 m 1,0,1
 125 700 l 1,2,3
 150 700 l 1,4,5
 150 800 l 1,6,7
 200 800 l 1,8,9
 200 700 l 1,10,11
 175 700 l 1,12,13
 175 600 l 1,14,15
 125 600 l 1,0,1
50 500 m 1,16,17
 250 500 l 1,18,19
 250 400 l 1,20,21
 200 400 l 1,22,23
 200 300 l 1,24,25
 175 300 l 1,26,27
 175 200 l 1,28,29
 150 200 l 1,30,31
 150 100 l 1,32,33
 250 100 l 1,34,35
 250 0 l 1,36,37
 50 0 l 1,38,39
 50 100 l 1,40,41
 100 100 l 1,42,43
 100 200 l 1,44,45
 125 200 l 1,46,47
 125 300 l 1,48,49
 150 300 l 1,50,51
 150 400 l 1,52,53
 50 400 l 1,54,55
 50 500 l 1,16,17
EndSplineSet
Validated: 1
EndChar

StartChar: zacute
Encoding: 378 378 222
Width: 300
GlyphClass: 2
Flags: W
LayerCount: 2
Back
Fore
SplineSet
125 600 m 1,0,1
 125 700 l 1,2,3
 150 700 l 1,4,5
 150 800 l 1,6,7
 200 800 l 1,8,9
 200 700 l 1,10,11
 175 700 l 1,12,13
 175 600 l 1,14,15
 125 600 l 1,0,1
50 500 m 1,16,17
 250 500 l 1,18,19
 250 400 l 1,20,21
 200 400 l 1,22,23
 200 300 l 1,24,25
 175 300 l 1,26,27
 175 200 l 1,28,29
 150 200 l 1,30,31
 150 100 l 1,32,33
 250 100 l 1,34,35
 250 0 l 1,36,37
 50 0 l 1,38,39
 50 100 l 1,40,41
 100 100 l 1,42,43
 100 200 l 1,44,45
 125 200 l 1,46,47
 125 300 l 1,48,49
 150 300 l 1,50,51
 150 400 l 1,52,53
 50 400 l 1,54,55
 50 500 l 1,16,17
EndSplineSet
Validated: 1
EndChar

StartChar: Zcaron
Encoding: 381 381 223
Width: 300
GlyphClass: 2
Flags: W
LayerCount: 2
Back
Fore
SplineSet
50 0 m 1,0,1
 50 100 l 1,2,3
 75 100 l 1,4,5
 75 200 l 1,6,7
 100 200 l 1,8,9
 100 300 l 1,10,11
 125 300 l 1,12,13
 125 400 l 1,14,15
 150 400 l 1,16,17
 150 500 l 1,18,19
 50 500 l 1,20,21
 50 600 l 1,22,23
 125 600 l 1,24,25
 125 700 l 1,26,27
 100 700 l 1,28,29
 100 800 l 1,30,31
 150 800 l 1,32,33
 150 700 l 1,34,35
 175 700 l 1,36,37
 175 800 l 1,38,39
 225 800 l 1,40,41
 225 700 l 1,42,43
 200 700 l 1,44,45
 200 600 l 1,46,47
 250 600 l 1,48,49
 250 500 l 1,50,51
 200 500 l 1,52,53
 200 400 l 1,54,55
 175 400 l 1,56,57
 175 300 l 1,58,59
 150 300 l 1,60,61
 150 200 l 1,62,63
 125 200 l 1,64,65
 125 100 l 1,66,67
 250 100 l 1,68,69
 250 0 l 1,70,71
 50 0 l 1,0,1
EndSplineSet
Validated: 1
EndChar

StartChar: zcaron
Encoding: 382 382 224
Width: 300
GlyphClass: 2
Flags: W
LayerCount: 2
Back
Fore
SplineSet
75 700 m 1,0,1
 75 800 l 1,2,3
 125 800 l 1,4,5
 125 700 l 1,6,7
 150 700 l 1,8,9
 150 800 l 1,10,11
 200 800 l 1,12,13
 200 700 l 1,14,15
 175 700 l 1,16,17
 175 600 l 1,18,19
 100 600 l 1,20,21
 100 700 l 1,22,23
 75 700 l 1,0,1
50 500 m 1,24,25
 250 500 l 1,26,27
 250 400 l 1,28,29
 200 400 l 1,30,31
 200 300 l 1,32,33
 175 300 l 1,34,35
 175 200 l 1,36,37
 150 200 l 1,38,39
 150 100 l 1,40,41
 250 100 l 1,42,43
 250 0 l 1,44,45
 50 0 l 1,46,47
 50 100 l 1,48,49
 100 100 l 1,50,51
 100 200 l 1,52,53
 125 200 l 1,54,55
 125 300 l 1,56,57
 150 300 l 1,58,59
 150 400 l 1,60,61
 50 400 l 1,62,63
 50 500 l 1,24,25
EndSplineSet
Validated: 1
EndChar

StartChar: uni01B5
Encoding: 437 437 225
Width: 300
GlyphClass: 2
Flags: W
LayerCount: 2
Back
Fore
SplineSet
50 600 m 1,0,1
 50 700 l 1,2,3
 250 700 l 1,4,5
 250 600 l 1,6,7
 225 600 l 1,8,9
 225 500 l 1,10,11
 200 500 l 1,12,13
 200 400 l 1,14,15
 225 400 l 1,16,17
 225 300 l 1,18,19
 150 300 l 1,20,21
 150 200 l 1,22,23
 125 200 l 1,24,25
 125 100 l 1,26,27
 250 100 l 1,28,29
 250 0 l 1,30,31
 50 0 l 1,32,33
 50 100 l 1,34,35
 75 100 l 1,36,37
 75 200 l 1,38,39
 100 200 l 1,40,41
 100 300 l 1,42,43
 75 300 l 1,44,45
 75 400 l 1,46,47
 150 400 l 1,48,49
 150 500 l 1,50,51
 175 500 l 1,52,53
 175 600 l 1,54,55
 50 600 l 1,0,1
EndSplineSet
Validated: 1
EndChar

StartChar: uni01B6
Encoding: 438 438 226
Width: 300
GlyphClass: 2
Flags: W
LayerCount: 2
Back
Fore
SplineSet
50 0 m 1,0,1
 50 100 l 1,2,3
 100 100 l 1,4,5
 100 200 l 1,6,7
 75 200 l 1,8,9
 75 300 l 1,10,11
 150 300 l 1,12,13
 150 400 l 1,14,15
 50 400 l 1,16,17
 50 500 l 1,18,19
 250 500 l 1,20,21
 250 400 l 1,22,23
 200 400 l 1,24,25
 200 300 l 1,26,27
 225 300 l 1,28,29
 225 200 l 1,30,31
 150 200 l 1,32,33
 150 100 l 1,34,35
 250 100 l 1,36,37
 250 0 l 1,38,39
 50 0 l 1,0,1
EndSplineSet
Validated: 1
EndChar

StartChar: Sigma
Encoding: 931 931 227
Width: 300
GlyphClass: 2
Flags: W
LayerCount: 2
Back
Fore
SplineSet
50 0 m 1,0,1
 50 100 l 1,2,3
 75 100 l 1,4,5
 75 200 l 1,6,7
 100 200 l 1,8,9
 100 300 l 1,10,11
 125 300 l 1,12,13
 125 400 l 1,14,15
 100 400 l 1,16,17
 100 500 l 1,18,19
 75 500 l 1,20,21
 75 600 l 1,22,23
 50 600 l 1,24,25
 50 700 l 1,26,27
 250 700 l 1,28,29
 250 600 l 1,30,31
 125 600 l 1,32,33
 125 500 l 1,34,35
 150 500 l 1,36,37
 150 400 l 1,38,39
 175 400 l 1,40,41
 175 300 l 1,42,43
 150 300 l 1,44,45
 150 200 l 1,46,47
 125 200 l 1,48,49
 125 100 l 1,50,51
 250 100 l 1,52,53
 250 0 l 1,54,55
 50 0 l 1,0,1
EndSplineSet
Validated: 1
EndChar

StartChar: Psi
Encoding: 936 936 228
Width: 300
GlyphClass: 2
Flags: W
LayerCount: 2
Back
Fore
SplineSet
125 0 m 1,0,1
 125 300 l 1,2,3
 75 300 l 1,4,5
 75 400 l 1,6,7
 50 400 l 1,8,9
 50 500 l 1,10,11
 25 500 l 1,12,13
 25 700 l 1,14,15
 75 700 l 1,16,17
 75 500 l 1,18,19
 100 500 l 1,20,21
 100 400 l 1,22,23
 125 400 l 1,24,25
 125 700 l 1,26,27
 175 700 l 1,28,29
 175 400 l 1,30,31
 200 400 l 1,32,33
 200 500 l 1,34,35
 225 500 l 1,36,37
 225 700 l 1,38,39
 275 700 l 1,40,41
 275 500 l 1,42,43
 250 500 l 1,44,45
 250 400 l 1,46,47
 225 400 l 1,48,49
 225 300 l 1,50,51
 175 300 l 1,52,53
 175 0 l 1,54,55
 125 0 l 1,0,1
EndSplineSet
Validated: 1
EndChar

StartChar: uni03A9
Encoding: 937 937 229
Width: 300
GlyphClass: 2
Flags: W
LayerCount: 2
Back
Fore
SplineSet
63 0 m 1,0,1
 63 100 l 1,2,3
 87 100 l 1,4,5
 87 200 l 1,6,7
 63 200 l 1,8,9
 63 400 l 1,10,11
 87 400 l 1,12,13
 87 500 l 1,14,15
 113 500 l 1,16,17
 113 600 l 1,18,19
 237 600 l 1,20,21
 237 500 l 1,22,23
 263 500 l 1,24,25
 263 400 l 1,26,27
 287 400 l 1,28,29
 287 200 l 1,30,31
 263 200 l 1,32,33
 263 100 l 1,34,35
 287 100 l 1,36,37
 287 0 l 1,38,39
 187 0 l 1,40,41
 187 100 l 1,42,43
 213 100 l 1,44,45
 213 200 l 1,46,47
 237 200 l 1,48,49
 237 400 l 1,50,51
 213 400 l 1,52,53
 213 500 l 1,54,55
 137 500 l 1,56,57
 137 400 l 1,58,59
 113 400 l 1,60,61
 113 200 l 1,62,63
 137 200 l 1,64,65
 137 100 l 1,66,67
 163 100 l 1,68,69
 163 0 l 1,70,71
 63 0 l 1,0,1
EndSplineSet
Validated: 1
EndChar

StartChar: alpha
Encoding: 945 945 230
Width: 300
GlyphClass: 2
Flags: W
LayerCount: 2
Back
Fore
SplineSet
187 100 m 1,0,1
 187 200 l 1,2,3
 213 200 l 1,4,5
 213 300 l 1,6,7
 187 300 l 1,8,9
 187 400 l 1,10,11
 87 400 l 1,12,13
 87 100 l 1,14,15
 187 100 l 1,0,1
213 0 m 1,16,17
 63 0 l 1,18,19
 63 100 l 1,20,21
 37 100 l 1,22,23
 37 400 l 1,24,25
 63 400 l 1,26,27
 63 500 l 1,28,29
 213 500 l 1,30,31
 213 400 l 1,32,33
 263 400 l 1,34,35
 263 500 l 1,36,37
 313 500 l 1,38,39
 313 400 l 1,40,41
 287 400 l 1,42,43
 287 300 l 1,44,45
 263 300 l 1,46,47
 263 100 l 1,48,49
 313 100 l 1,50,51
 313 0 l 1,52,53
 237 0 l 1,54,55
 237 100 l 1,56,57
 213 100 l 1,58,59
 213 0 l 1,16,17
EndSplineSet
Validated: 1
EndChar

StartChar: beta
Encoding: 946 946 231
Width: 300
GlyphClass: 2
Flags: W
LayerCount: 2
Back
Fore
SplineSet
100 100 m 1,0,1
 200 100 l 1,2,3
 200 300 l 1,4,5
 125 300 l 1,6,7
 125 400 l 1,8,9
 200 400 l 1,10,11
 200 600 l 1,12,13
 100 600 l 1,14,15
 100 100 l 1,0,1
50 -200 m 1,16,17
 50 600 l 1,18,19
 75 600 l 1,20,21
 75 700 l 1,22,23
 225 700 l 1,24,25
 225 600 l 1,26,27
 250 600 l 1,28,29
 250 400 l 1,30,31
 225 400 l 1,32,33
 225 300 l 1,34,35
 250 300 l 1,36,37
 250 100 l 1,38,39
 225 100 l 1,40,41
 225 0 l 1,42,43
 100 0 l 1,44,45
 100 -200 l 1,46,47
 50 -200 l 1,16,17
EndSplineSet
Validated: 1
EndChar

StartChar: gamma
Encoding: 947 947 232
Width: 300
GlyphClass: 2
Flags: W
LayerCount: 2
Back
Fore
SplineSet
163 -200 m 1,0,1
 163 100 l 1,2,3
 137 100 l 1,4,5
 137 200 l 1,6,7
 113 200 l 1,8,9
 113 300 l 1,10,11
 87 300 l 1,12,13
 87 400 l 1,14,15
 63 400 l 1,16,17
 63 500 l 1,18,19
 113 500 l 1,20,21
 113 400 l 1,22,23
 137 400 l 1,24,25
 137 300 l 1,26,27
 163 300 l 1,28,29
 163 200 l 1,30,31
 213 200 l 1,32,33
 213 400 l 1,34,35
 237 400 l 1,36,37
 237 500 l 1,38,39
 287 500 l 1,40,41
 287 400 l 1,42,43
 263 400 l 1,44,45
 263 200 l 1,46,47
 237 200 l 1,48,49
 237 100 l 1,50,51
 213 100 l 1,52,53
 213 -200 l 1,54,55
 163 -200 l 1,0,1
EndSplineSet
Validated: 1
EndChar

StartChar: delta
Encoding: 948 948 233
Width: 300
GlyphClass: 2
Flags: W
LayerCount: 2
Back
Fore
SplineSet
100 100 m 1,0,1
 200 100 l 1,2,3
 200 300 l 1,4,5
 150 300 l 1,6,7
 150 400 l 1,8,9
 125 400 l 1,10,11
 125 300 l 1,12,13
 100 300 l 1,14,15
 100 100 l 1,0,1
75 0 m 1,16,17
 75 100 l 1,18,19
 50 100 l 1,20,21
 50 300 l 1,22,23
 75 300 l 1,24,25
 75 500 l 1,26,27
 49 500 l 1,28,29
 49 516 49 516 49.5 550 c 0
 50 584 50 584 50 600 c 1,30,31
 75 600 l 1,32,33
 75 700 l 1,34,35
 225 700 l 1,36,37
 225 600 l 1,38,39
 250 600 l 1,40,41
 250 500 l 1,42,43
 200 500 l 1,44,45
 200 600 l 1,46,47
 100 600 l 1,48,49
 100 500 l 1,50,51
 175 500 l 1,52,53
 175 400 l 1,54,55
 225 400 l 1,56,57
 225 300 l 1,58,59
 250 300 l 1,60,61
 250 100 l 1,62,63
 225 100 l 1,64,65
 225 0 l 1,66,67
 75 0 l 1,16,17
EndSplineSet
Validated: 1
EndChar

StartChar: epsilon
Encoding: 949 949 234
Width: 300
GlyphClass: 2
Flags: W
LayerCount: 2
Back
Fore
SplineSet
87 0 m 1,0,1
 87 100 l 1,2,3
 63 100 l 1,4,5
 63 200 l 1,6,7
 87 200 l 1,8,9
 87 300 l 1,10,11
 63 300 l 1,12,13
 63 400 l 1,14,15
 87 400 l 1,16,17
 87 500 l 1,18,19
 263 500 l 1,20,21
 263 400 l 1,22,23
 287 400 l 1,24,25
 287 300 l 1,26,27
 237 300 l 1,28,29
 237 400 l 1,30,31
 113 400 l 1,32,33
 113 300 l 1,34,35
 187 300 l 1,36,37
 187 200 l 1,38,39
 113 200 l 1,40,41
 113 100 l 1,42,43
 237 100 l 1,44,45
 237 200 l 1,46,47
 287 200 l 1,48,49
 287 100 l 1,50,51
 263 100 l 1,52,53
 263 0 l 1,54,55
 87 0 l 1,0,1
EndSplineSet
Validated: 1
EndChar

StartChar: lambda
Encoding: 955 955 235
Width: 300
GlyphClass: 2
Flags: W
LayerCount: 2
Back
Fore
SplineSet
13 0 m 1,0,1
 13 100 l 1,2,3
 37 100 l 1,4,5
 37 200 l 1,6,7
 63 200 l 1,8,9
 63 300 l 1,10,11
 87 300 l 1,12,13
 87 500 l 1,14,15
 63 500 l 1,16,17
 63 600 l 1,18,19
 13 600 l 1,20,21
 13 700 l 1,22,23
 87 700 l 1,24,25
 87 600 l 1,26,27
 113 600 l 1,28,29
 113 500 l 1,30,31
 137 500 l 1,32,33
 137 400 l 1,34,35
 163 400 l 1,36,37
 163 300 l 1,38,39
 187 300 l 1,40,41
 187 200 l 1,42,43
 213 200 l 1,44,45
 213 100 l 1,46,47
 237 100 l 1,48,49
 237 0 l 1,50,51
 187 0 l 1,52,53
 187 100 l 1,54,55
 163 100 l 1,56,57
 163 200 l 1,58,59
 137 200 l 1,60,61
 137 300 l 1,62,63
 113 300 l 1,64,65
 113 200 l 1,66,67
 87 200 l 1,68,69
 87 100 l 1,70,71
 63 100 l 1,72,73
 63 0 l 1,74,75
 13 0 l 1,0,1
EndSplineSet
Validated: 1
EndChar

StartChar: uni03BC
Encoding: 956 956 236
Width: 300
GlyphClass: 2
Flags: W
LayerCount: 2
Back
Fore
SplineSet
150 100 m 1,0,1
 150 0 l 1,2,3
 250 0 l 1,4,5
 250 100 l 1,6,7
 275 100 l 1,8,9
 275 0 l 1,10,11
 325 0 l 1,12,13
 325 100 l 1,14,15
 300 100 l 1,16,17
 300 500 l 1,18,19
 250 500 l 1,20,21
 250 200 l 1,22,23
 225 200 l 1,24,25
 225 100 l 1,26,27
 150 100 l 1,0,1
75 -200 m 1,28,29
 75 500 l 1,30,31
 125 500 l 1,32,33
 125 200 l 1,34,35
 150 200 l 1,36,37
 150 100 l 1,38,39
 125 100 l 1,40,41
 125 -200 l 1,42,43
 75 -200 l 1,28,29
EndSplineSet
Validated: 5
EndChar

StartChar: uni0400
Encoding: 1024 1024 237
Width: 300
GlyphClass: 2
Flags: W
LayerCount: 2
Back
Fore
SplineSet
287 500 m 1,0,1
 113 500 l 1,2,3
 113 400 l 1,4,5
 237 400 l 1,6,7
 237 300 l 1,8,9
 113 300 l 1,10,11
 113 100 l 1,12,13
 287 100 l 1,14,15
 287 0 l 1,16,17
 63 0 l 1,18,19
 63 600 l 1,20,21
 137 600 l 1,22,23
 137 700 l 1,24,25
 113 700 l 1,26,27
 113 800 l 1,28,29
 163 800 l 1,30,31
 163 700 l 1,32,33
 187 700 l 1,34,35
 187 600 l 1,36,37
 287 600 l 1,38,39
 287 500 l 1,0,1
EndSplineSet
Validated: 1
EndChar

StartChar: uni0401
Encoding: 1025 1025 238
Width: 300
GlyphClass: 2
Flags: W
LayerCount: 2
Back
Fore
SplineSet
213 700 m 1,0,1
 213 800 l 1,2,3
 263 800 l 1,4,5
 263 700 l 1,6,7
 213 700 l 1,0,1
87 700 m 1,8,9
 87 800 l 1,10,11
 137 800 l 1,12,13
 137 700 l 1,14,15
 87 700 l 1,8,9
287 500 m 1,16,17
 113 500 l 1,18,19
 113 400 l 1,20,21
 237 400 l 1,22,23
 237 300 l 1,24,25
 113 300 l 1,26,27
 113 100 l 1,28,29
 287 100 l 1,30,31
 287 0 l 1,32,33
 63 0 l 1,34,35
 63 600 l 1,36,37
 287 600 l 1,38,39
 287 500 l 1,16,17
EndSplineSet
Validated: 1
EndChar

StartChar: uni0402
Encoding: 1026 1026 239
Width: 300
GlyphClass: 2
Flags: W
LayerCount: 2
Back
Fore
SplineSet
113 0 m 1,0,1
 113 600 l 1,2,3
 37 600 l 1,4,5
 37 700 l 1,6,7
 237 700 l 1,8,9
 237 600 l 1,10,11
 163 600 l 1,12,13
 163 400 l 1,14,15
 287 400 l 1,16,17
 287 300 l 1,18,19
 313 300 l 1,20,21
 313 100 l 1,22,23
 287 100 l 1,24,25
 287 0 l 1,26,27
 187 0 l 1,28,29
 187 100 l 1,30,31
 263 100 l 1,32,33
 263 300 l 1,34,35
 163 300 l 1,36,37
 163 0 l 1,38,39
 113 0 l 1,0,1
EndSplineSet
Validated: 1
EndChar

StartChar: uni0403
Encoding: 1027 1027 240
Width: 300
GlyphClass: 2
Flags: W
LayerCount: 2
Back
Fore
SplineSet
63 0 m 1,0,1
 63 600 l 1,2,3
 137 600 l 1,4,5
 137 700 l 1,6,7
 163 700 l 1,8,9
 163 800 l 1,10,11
 213 800 l 1,12,13
 213 700 l 1,14,15
 187 700 l 1,16,17
 187 600 l 1,18,19
 287 600 l 1,20,21
 287 500 l 1,22,23
 113 500 l 1,24,25
 113 0 l 1,26,27
 63 0 l 1,0,1
EndSplineSet
Validated: 1
EndChar

StartChar: uni0404
Encoding: 1028 1028 241
Width: 300
GlyphClass: 2
Flags: W
LayerCount: 2
Back
Fore
SplineSet
87 500 m 1,0,1
 63 500 l 1,2,3
 63 400 l 1,4,5
 163 400 l 1,6,7
 163 300 l 1,8,9
 63 300 l 1,10,11
 63 200 l 1,12,13
 87 200 l 1,14,15
 87 100 l 1,16,17
 187 100 l 1,18,19
 187 200 l 1,20,21
 237 200 l 1,22,23
 237 100 l 1,24,25
 213 100 l 1,26,27
 213 0 l 1,28,29
 63 0 l 1,30,31
 63 100 l 1,32,33
 37 100 l 1,34,35
 37 200 l 1,36,37
 13 200 l 1,38,39
 13 500 l 1,40,41
 37 500 l 1,42,43
 37 600 l 1,44,45
 63 600 l 1,46,47
 63 700 l 1,48,49
 213 700 l 1,50,51
 213 600 l 1,52,53
 237 600 l 1,54,55
 237 500 l 1,56,57
 187 500 l 1,58,59
 187 600 l 1,60,61
 87 600 l 1,62,63
 87 500 l 1,0,1
EndSplineSet
Validated: 1
EndChar

StartChar: uni0405
Encoding: 1029 1029 242
Width: 300
GlyphClass: 2
Flags: W
LayerCount: 2
Back
Fore
SplineSet
87 600 m 1,0,1
 87 700 l 1,2,3
 263 700 l 1,4,5
 263 600 l 1,6,7
 113 600 l 1,8,9
 113 400 l 1,10,11
 263 400 l 1,12,13
 263 300 l 1,14,15
 287 300 l 1,16,17
 287 100 l 1,18,19
 263 100 l 1,20,21
 263 0 l 1,22,23
 87 0 l 1,24,25
 87 100 l 1,26,27
 237 100 l 1,28,29
 237 300 l 1,30,31
 87 300 l 1,32,33
 87 400 l 1,34,35
 63 400 l 1,36,37
 63 600 l 1,38,39
 87 600 l 1,0,1
EndSplineSet
Validated: 1
EndChar

StartChar: uni0406
Encoding: 1030 1030 243
Width: 300
GlyphClass: 2
Flags: W
LayerCount: 2
Back
Fore
SplineSet
50 700 m 1,0,1
 250 700 l 1,2,3
 250 600 l 1,4,5
 175 600 l 1,6,7
 175 100 l 1,8,9
 250 100 l 1,10,11
 250 0 l 1,12,13
 50 0 l 1,14,15
 50 100 l 1,16,17
 125 100 l 1,18,19
 125 600 l 1,20,21
 50 600 l 1,22,23
 50 700 l 1,0,1
EndSplineSet
Validated: 1
EndChar

StartChar: uni0407
Encoding: 1031 1031 244
Width: 300
GlyphClass: 2
Flags: W
LayerCount: 2
Back
Fore
SplineSet
175 700 m 1,0,1
 175 800 l 1,2,3
 225 800 l 1,4,5
 225 700 l 1,6,7
 175 700 l 1,0,1
75 700 m 1,8,9
 75 800 l 1,10,11
 125 800 l 1,12,13
 125 700 l 1,14,15
 75 700 l 1,8,9
50 500 m 1,16,17
 50 600 l 1,18,19
 250 600 l 1,20,21
 250 500 l 1,22,23
 175 500 l 1,24,25
 175 100 l 1,26,27
 250 100 l 1,28,29
 250 0 l 1,30,31
 50 0 l 1,32,33
 50 100 l 1,34,35
 125 100 l 1,36,37
 125 500 l 1,38,39
 50 500 l 1,16,17
EndSplineSet
Validated: 1
EndChar

StartChar: uni0408
Encoding: 1032 1032 245
Width: 300
GlyphClass: 2
Flags: W
LayerCount: 2
Back
Fore
SplineSet
237 700 m 1,0,1
 287 700 l 1,2,3
 287 100 l 1,4,5
 263 100 l 1,6,7
 263 0 l 1,8,9
 87 0 l 1,10,11
 87 100 l 1,12,13
 63 100 l 1,14,15
 63 200 l 1,16,17
 113 200 l 1,18,19
 113 100 l 1,20,21
 237 100 l 1,22,23
 237 700 l 1,0,1
EndSplineSet
Validated: 1
EndChar

StartChar: uni0409
Encoding: 1033 1033 246
Width: 300
GlyphClass: 2
Flags: W
LayerCount: 2
Back
Fore
SplineSet
213 100 m 1,0,1
 263 100 l 1,2,3
 263 300 l 1,4,5
 213 300 l 1,6,7
 213 100 l 1,0,1
37 0 m 1,8,9
 37 100 l 1,10,11
 63 100 l 1,12,13
 63 600 l 1,14,15
 87 600 l 1,16,17
 87 700 l 1,18,19
 213 700 l 1,20,21
 213 400 l 1,22,23
 287 400 l 1,24,25
 287 300 l 1,26,27
 313 300 l 1,28,29
 313 50 l 1,30,31
 287 50 l 1,32,33
 287 0 l 1,34,35
 163 0 l 1,36,37
 163 600 l 1,38,39
 113 600 l 1,40,41
 113 100 l 1,42,43
 87 100 l 1,44,45
 87 0 l 1,46,47
 37 0 l 1,8,9
EndSplineSet
Validated: 1
EndChar

StartChar: uni040A
Encoding: 1034 1034 247
Width: 300
GlyphClass: 2
Flags: W
LayerCount: 2
Back
Fore
SplineSet
213 300 m 1,0,1
 213 100 l 1,2,3
 263 100 l 1,4,5
 263 300 l 1,6,7
 213 300 l 1,0,1
37 700 m 1,8,9
 87 700 l 1,10,11
 87 400 l 1,12,13
 163 400 l 1,14,15
 163 700 l 1,16,17
 213 700 l 1,18,19
 213 400 l 1,20,21
 287 400 l 1,22,23
 287 300 l 1,24,25
 313 300 l 1,26,27
 313 50 l 1,28,29
 287 50 l 1,30,31
 287 0 l 1,32,33
 163 0 l 1,34,35
 163 300 l 1,36,37
 87 300 l 1,38,39
 87 0 l 1,40,41
 37 0 l 1,42,43
 37 700 l 1,8,9
EndSplineSet
Validated: 1
EndChar

StartChar: uni040B
Encoding: 1035 1035 248
Width: 300
GlyphClass: 2
Flags: W
LayerCount: 2
Back
Fore
SplineSet
37 600 m 1,0,1
 37 700 l 1,2,3
 237 700 l 1,4,5
 237 600 l 1,6,7
 163 600 l 1,8,9
 163 400 l 1,10,11
 287 400 l 1,12,13
 287 300 l 1,14,15
 313 300 l 1,16,17
 313 0 l 1,18,19
 263 0 l 1,20,21
 263 300 l 1,22,23
 163 300 l 1,24,25
 163 0 l 1,26,27
 113 0 l 1,28,29
 113 600 l 1,30,31
 37 600 l 1,0,1
EndSplineSet
Validated: 1
EndChar

StartChar: uni040C
Encoding: 1036 1036 249
Width: 300
GlyphClass: 2
Flags: W
LayerCount: 2
Back
Fore
SplineSet
50 0 m 1,0,1
 50 600 l 1,2,3
 100 600 l 1,4,5
 100 400 l 1,6,7
 125 400 l 1,8,9
 125 500 l 1,10,11
 175 500 l 1,12,13
 175 600 l 1,14,15
 250 600 l 1,16,17
 250 500 l 1,18,19
 200 500 l 1,20,21
 200 400 l 1,22,23
 150 400 l 1,24,25
 150 200 l 1,26,27
 200 200 l 1,28,29
 200 100 l 1,30,31
 250 100 l 1,32,33
 250 0 l 1,34,35
 175 0 l 1,36,37
 175 100 l 1,38,39
 125 100 l 1,40,41
 125 200 l 1,42,43
 100 200 l 1,44,45
 100 0 l 1,46,47
 50 0 l 1,0,1
125 600 m 1,48,49
 125 700 l 1,50,51
 150 700 l 1,52,53
 150 800 l 1,54,55
 200 800 l 1,56,57
 200 700 l 1,58,59
 175 700 l 1,60,61
 175 600 l 1,62,63
 125 600 l 1,48,49
EndSplineSet
Validated: 5
EndChar

StartChar: uni040D
Encoding: 1037 1037 250
Width: 300
GlyphClass: 2
Flags: W
LayerCount: 2
Back
Fore
SplineSet
25 700 m 1,0,1
 75 700 l 1,2,3
 75 200 l 1,4,5
 100 200 l 1,6,7
 100 300 l 1,8,9
 125 300 l 1,10,11
 125 400 l 1,12,13
 150 400 l 1,14,15
 150 500 l 1,16,17
 175 500 l 1,18,19
 175 600 l 1,20,21
 200 600 l 1,22,23
 200 700 l 1,24,25
 275 700 l 1,26,27
 275 0 l 1,28,29
 225 0 l 1,30,31
 225 500 l 1,32,33
 200 500 l 1,34,35
 200 400 l 1,36,37
 175 400 l 1,38,39
 175 300 l 1,40,41
 150 300 l 1,42,43
 150 200 l 1,44,45
 125 200 l 1,46,47
 125 100 l 1,48,49
 100 100 l 1,50,51
 100 0 l 1,52,53
 25 0 l 1,54,55
 25 700 l 1,0,1
EndSplineSet
Validated: 1
EndChar

StartChar: uni040E
Encoding: 1038 1038 251
Width: 300
GlyphClass: 2
Flags: W
LayerCount: 2
Back
Fore
SplineSet
163 700 m 1,0,1
 163 800 l 1,2,3
 187 800 l 1,4,5
 187 700 l 1,6,7
 163 700 l 1,0,1
63 700 m 1,8,9
 113 700 l 1,10,11
 113 400 l 1,12,13
 237 400 l 1,14,15
 237 700 l 1,16,17
 287 700 l 1,18,19
 287 100 l 1,20,21
 263 100 l 1,22,23
 263 0 l 1,24,25
 87 0 l 1,26,27
 87 100 l 1,28,29
 63 100 l 1,30,31
 63 200 l 1,32,33
 113 200 l 1,34,35
 113 100 l 1,36,37
 237 100 l 1,38,39
 237 300 l 1,40,41
 87 300 l 1,42,43
 87 400 l 1,44,45
 63 400 l 1,46,47
 63 700 l 1,8,9
EndSplineSet
Validated: 1
EndChar

StartChar: uni040F
Encoding: 1039 1039 252
Width: 300
GlyphClass: 2
Flags: W
LayerCount: 2
Back
Fore
SplineSet
75 0 m 1,0,1
 75 700 l 1,2,3
 125 700 l 1,4,5
 125 100 l 1,6,7
 275 100 l 1,8,9
 275 700 l 1,10,11
 325 700 l 1,12,13
 325 0 l 1,14,15
 225 0 l 1,16,17
 225 -200 l 1,18,19
 175 -200 l 1,20,21
 175 0 l 1,22,23
 75 0 l 1,0,1
EndSplineSet
Validated: 1
EndChar

StartChar: uni0410
Encoding: 1040 1040 253
Width: 300
GlyphClass: 2
Flags: W
LayerCount: 2
Back
Fore
SplineSet
75 400 m 1,0,1
 75 300 l 1,2,3
 225 300 l 1,4,5
 225 400 l 1,6,7
 200 400 l 1,8,9
 200 500 l 1,10,11
 175 500 l 1,12,13
 175 600 l 1,14,15
 125 600 l 1,16,17
 125 500 l 1,18,19
 100 500 l 1,20,21
 100 400 l 1,22,23
 75 400 l 1,0,1
75 0 m 1,24,25
 25 0 l 1,26,27
 25 400 l 1,28,29
 50 400 l 1,30,31
 50 500 l 1,32,33
 75 500 l 1,34,35
 75 600 l 1,36,37
 100 600 l 1,38,39
 100 700 l 1,40,41
 199 700 l 1,42,43
 199 684 199 684 199.5 650 c 0
 200 616 200 616 200 600 c 1,44,45
 225 600 l 1,46,47
 225 500 l 1,48,49
 250 500 l 1,50,51
 250 400 l 1,52,53
 275 400 l 1,54,55
 275 0 l 1,56,57
 225 0 l 1,58,59
 225 200 l 1,60,61
 75 200 l 1,62,63
 75 0 l 1,24,25
EndSplineSet
Validated: 1
EndChar

StartChar: uni0411
Encoding: 1041 1041 254
Width: 300
GlyphClass: 2
Flags: W
LayerCount: 2
Back
Fore
SplineSet
113 100 m 1,0,1
 237 100 l 1,2,3
 237 300 l 1,4,5
 113 300 l 1,6,7
 113 100 l 1,0,1
63 700 m 1,8,9
 263 700 l 1,10,11
 263 600 l 1,12,13
 113 600 l 1,14,15
 113 400 l 1,16,17
 263 400 l 1,18,19
 263 300 l 1,20,21
 287 300 l 1,22,23
 287 100 l 1,24,25
 263 100 l 1,26,27
 263 0 l 1,28,29
 63 0 l 1,30,31
 63 700 l 1,8,9
EndSplineSet
Validated: 1
EndChar

StartChar: uni0412
Encoding: 1042 1042 255
Width: 300
GlyphClass: 2
Flags: W
LayerCount: 2
Back
Fore
SplineSet
113 600 m 1,0,1
 113 400 l 1,2,3
 237 400 l 1,4,5
 237 600 l 1,6,7
 113 600 l 1,0,1
113 300 m 1,8,9
 113 100 l 1,10,11
 237 100 l 1,12,13
 237 300 l 1,14,15
 113 300 l 1,8,9
63 0 m 1,16,17
 63 700 l 1,18,19
 263 700 l 1,20,21
 263 600 l 1,22,23
 287 600 l 1,24,25
 287 400 l 1,26,27
 263 400 l 1,28,29
 263 300 l 1,30,31
 287 300 l 1,32,33
 287 100 l 1,34,35
 263 100 l 1,36,37
 263 0 l 1,38,39
 63 0 l 1,16,17
EndSplineSet
Validated: 1
EndChar

StartChar: uni0413
Encoding: 1043 1043 256
Width: 300
GlyphClass: 2
Flags: W
LayerCount: 2
Back
Fore
SplineSet
63 700 m 1,0,1
 287 700 l 1,2,3
 287 600 l 1,4,5
 113 600 l 1,6,7
 113 0 l 1,8,9
 63 0 l 1,10,11
 63 700 l 1,0,1
EndSplineSet
Validated: 1
EndChar

StartChar: uni0414
Encoding: 1044 1044 257
Width: 300
GlyphClass: 2
Flags: W
LayerCount: 2
Back
Fore
SplineSet
163 600 m 1,0,1
 163 500 l 1,2,3
 137 500 l 1,4,5
 137 100 l 1,6,7
 213 100 l 1,8,9
 213 600 l 1,10,11
 163 600 l 1,0,1
113 500 m 1,12,13
 113 600 l 1,14,15
 137 600 l 1,16,17
 137 700 l 1,18,19
 263 700 l 1,20,21
 263 100 l 1,22,23
 287 100 l 1,24,25
 287 -100 l 1,26,27
 237 -100 l 1,28,29
 237 0 l 1,30,31
 113 0 l 1,32,33
 113 -100 l 1,34,35
 63 -100 l 1,36,37
 63 100 l 1,38,39
 87 100 l 1,40,41
 87 500 l 1,42,43
 113 500 l 1,12,13
EndSplineSet
Validated: 1
EndChar

StartChar: uni0415
Encoding: 1045 1045 258
Width: 300
GlyphClass: 2
Flags: W
LayerCount: 2
Back
Fore
SplineSet
287 600 m 1,0,1
 113 600 l 1,2,3
 113 400 l 1,4,5
 237 400 l 1,6,7
 237 300 l 1,8,9
 113 300 l 1,10,11
 113 100 l 1,12,13
 287 100 l 1,14,15
 287 0 l 1,16,17
 63 0 l 1,18,19
 63 700 l 1,20,21
 287 700 l 1,22,23
 287 600 l 1,0,1
EndSplineSet
Validated: 1
EndChar

StartChar: uni0416
Encoding: 1046 1046 259
Width: 300
GlyphClass: 2
Flags: W
LayerCount: 2
Back
Fore
SplineSet
25 700 m 1,0,1
 75 700 l 1,2,3
 75 500 l 1,4,5
 99 500 l 1,6,7
 99 484 99 484 99.5 450 c 0
 100 416 100 416 100 400 c 1,8,9
 125 400 l 1,10,11
 125 700 l 1,12,13
 175 700 l 1,14,15
 175 400 l 1,16,17
 200 400 l 1,18,19
 200 500 l 1,20,21
 225 500 l 1,22,23
 225 700 l 1,24,25
 275 700 l 1,26,27
 275 500 l 1,28,29
 250 500 l 1,30,31
 250 400 l 1,32,33
 225 400 l 1,34,35
 225 300 l 1,36,37
 250 300 l 1,38,39
 250 200 l 1,40,41
 275 200 l 1,42,43
 275 0 l 1,44,45
 225 0 l 1,46,47
 225 200 l 1,48,49
 200 200 l 1,50,51
 200 300 l 1,52,53
 175 300 l 1,54,55
 175 0 l 1,56,57
 125 0 l 1,58,59
 125 300 l 1,60,61
 100 300 l 1,62,63
 100 200 l 1,64,65
 75 200 l 1,66,67
 75 0 l 1,68,69
 25 0 l 1,70,71
 25 200 l 1,72,73
 50 200 l 1,74,75
 50 300 l 1,76,77
 75 300 l 1,78,79
 75 400 l 1,80,81
 50 400 l 1,82,83
 50 500 l 1,84,85
 25 500 l 1,86,87
 25 700 l 1,0,1
EndSplineSet
Validated: 1
EndChar

StartChar: uni0417
Encoding: 1047 1047 260
Width: 300
GlyphClass: 2
Flags: W
LayerCount: 2
Back
Fore
SplineSet
63 500 m 1,0,1
 63 600 l 1,2,3
 87 600 l 1,4,5
 87 700 l 1,6,7
 263 700 l 1,8,9
 263 600 l 1,10,11
 287 600 l 1,12,13
 287 400 l 1,14,15
 263 400 l 1,16,17
 263 300 l 1,18,19
 287 300 l 1,20,21
 287 100 l 1,22,23
 263 100 l 1,24,25
 263 0 l 1,26,27
 87 0 l 1,28,29
 87 100 l 1,30,31
 63 100 l 1,32,33
 63 200 l 1,34,35
 112 200 l 1,36,37
 112 184 112 184 112.5 150 c 0
 113 116 113 116 113 100 c 1,38,39
 237 100 l 1,40,41
 237 300 l 1,42,43
 137 300 l 1,44,45
 137 400 l 1,46,47
 237 400 l 1,48,49
 237 600 l 1,50,51
 113 600 l 1,52,53
 113 500 l 1,54,55
 63 500 l 1,0,1
EndSplineSet
Validated: 1
EndChar

StartChar: uni0418
Encoding: 1048 1048 261
Width: 300
GlyphClass: 2
Flags: W
LayerCount: 2
Back
Fore
SplineSet
25 700 m 1,0,1
 75 700 l 1,2,3
 75 200 l 1,4,5
 100 200 l 1,6,7
 100 300 l 1,8,9
 125 300 l 1,10,11
 125 400 l 1,12,13
 150 400 l 1,14,15
 150 500 l 1,16,17
 175 500 l 1,18,19
 175 600 l 1,20,21
 200 600 l 1,22,23
 200 700 l 1,24,25
 275 700 l 1,26,27
 275 0 l 1,28,29
 225 0 l 1,30,31
 225 500 l 1,32,33
 200 500 l 1,34,35
 200 400 l 1,36,37
 175 400 l 1,38,39
 175 300 l 1,40,41
 150 300 l 1,42,43
 150 200 l 1,44,45
 125 200 l 1,46,47
 125 100 l 1,48,49
 100 100 l 1,50,51
 100 0 l 1,52,53
 25 0 l 1,54,55
 25 700 l 1,0,1
EndSplineSet
Validated: 1
EndChar

StartChar: uni0419
Encoding: 1049 1049 262
Width: 300
GlyphClass: 2
Flags: W
LayerCount: 2
Back
Fore
SplineSet
125 700 m 1,0,1
 125 800 l 1,2,3
 150 800 l 1,4,5
 150 700 l 1,6,7
 125 700 l 1,0,1
25 700 m 1,8,9
 75 700 l 1,10,11
 75 200 l 1,12,13
 100 200 l 1,14,15
 100 300 l 1,16,17
 125 300 l 1,18,19
 125 400 l 1,20,21
 150 400 l 1,22,23
 150 500 l 1,24,25
 175 500 l 1,26,27
 175 600 l 1,28,29
 200 600 l 1,30,31
 200 700 l 1,32,33
 275 700 l 1,34,35
 275 0 l 1,36,37
 225 0 l 1,38,39
 225 500 l 1,40,41
 200 500 l 1,42,43
 200 400 l 1,44,45
 175 400 l 1,46,47
 175 300 l 1,48,49
 150 300 l 1,50,51
 150 200 l 1,52,53
 125 200 l 1,54,55
 125 100 l 1,56,57
 100 100 l 1,58,59
 100 0 l 1,60,61
 25 0 l 1,62,63
 25 700 l 1,8,9
EndSplineSet
Validated: 1
EndChar

StartChar: uni041A
Encoding: 1050 1050 263
Width: 300
GlyphClass: 2
Flags: W
LayerCount: 2
Back
Fore
SplineSet
63 700 m 1,0,1
 113 700 l 1,2,3
 113 400 l 1,4,5
 137 400 l 1,6,7
 137 500 l 1,8,9
 187 500 l 1,10,11
 187 600 l 1,12,13
 213 600 l 1,14,15
 213 700 l 1,16,17
 287 700 l 1,18,19
 287 600 l 1,20,21
 237 600 l 1,22,23
 237 500 l 1,24,25
 213 500 l 1,26,27
 213 400 l 1,28,29
 163 400 l 1,30,31
 163 300 l 1,32,33
 213 300 l 1,34,35
 213 200 l 1,36,37
 237 200 l 1,38,39
 237 100 l 1,40,41
 287 100 l 1,42,43
 287 0 l 1,44,45
 213 0 l 1,46,47
 213 100 l 1,48,49
 187 100 l 1,50,51
 187 200 l 1,52,53
 137 200 l 1,54,55
 137 300 l 1,56,57
 113 300 l 1,58,59
 113 0 l 1,60,61
 63 0 l 1,62,63
 63 700 l 1,0,1
EndSplineSet
Validated: 1
EndChar

StartChar: uni041B
Encoding: 1051 1051 264
Width: 300
GlyphClass: 2
Flags: W
LayerCount: 2
Back
Fore
SplineSet
63 0 m 1,0,1
 63 100 l 1,2,3
 87 100 l 1,4,5
 87 200 l 1,6,7
 113 200 l 1,8,9
 113 600 l 1,10,11
 137 600 l 1,12,13
 137 700 l 1,14,15
 287 700 l 1,16,17
 287 0 l 1,18,19
 237 0 l 1,20,21
 237 600 l 1,22,23
 163 600 l 1,24,25
 163 200 l 1,26,27
 137 200 l 1,28,29
 137 100 l 1,30,31
 113 100 l 1,32,33
 113 0 l 1,34,35
 63 0 l 1,0,1
EndSplineSet
Validated: 1
EndChar

StartChar: uni041C
Encoding: 1052 1052 265
Width: 300
GlyphClass: 2
Flags: W
LayerCount: 2
Back
Fore
SplineSet
75 0 m 1,0,1
 25 0 l 1,2,3
 25 700 l 1,4,5
 100 700 l 1,6,7
 100 600 l 1,8,9
 125 600 l 1,10,11
 125 500 l 1,12,13
 175 500 l 1,14,15
 175 600 l 1,16,17
 200 600 l 1,18,19
 200 700 l 1,20,21
 275 700 l 1,22,23
 275 0 l 1,24,25
 225 0 l 1,26,27
 225 500 l 1,28,29
 200 500 l 1,30,31
 200 400 l 1,32,33
 175 400 l 1,34,35
 175 300 l 1,36,37
 125 300 l 1,38,39
 125 400 l 1,40,41
 100 400 l 1,42,43
 100 500 l 1,44,45
 75 500 l 1,46,47
 75 0 l 1,0,1
EndSplineSet
Validated: 1
EndChar

StartChar: uni041D
Encoding: 1053 1053 266
Width: 300
GlyphClass: 2
Flags: W
LayerCount: 2
Back
Fore
SplineSet
63 700 m 1,0,1
 113 700 l 1,2,3
 113 400 l 1,4,5
 237 400 l 1,6,7
 237 700 l 1,8,9
 287 700 l 1,10,11
 287 0 l 1,12,13
 237 0 l 1,14,15
 237 300 l 1,16,17
 113 300 l 1,18,19
 113 0 l 1,20,21
 63 0 l 1,22,23
 63 700 l 1,0,1
EndSplineSet
Validated: 1
EndChar

StartChar: uni041E
Encoding: 1054 1054 267
Width: 300
GlyphClass: 2
Flags: W
LayerCount: 2
Back
Fore
SplineSet
200 100 m 1,0,1
 200 200 l 1,2,3
 225 200 l 1,4,5
 225 500 l 1,6,7
 200 500 l 1,8,9
 200 600 l 1,10,11
 100 600 l 1,12,13
 100 500 l 1,14,15
 75 500 l 1,16,17
 75 200 l 1,18,19
 100 200 l 1,20,21
 100 100 l 1,22,23
 200 100 l 1,0,1
225 0 m 1,24,25
 75 0 l 1,26,27
 75 100 l 1,28,29
 50 100 l 1,30,31
 50 200 l 1,32,33
 25 200 l 1,34,35
 25 500 l 1,36,37
 50 500 l 1,38,39
 50 600 l 1,40,41
 75 600 l 1,42,43
 75 700 l 1,44,45
 225 700 l 1,46,47
 225 600 l 1,48,49
 250 600 l 1,50,51
 250 500 l 1,52,53
 275 500 l 1,54,55
 275 200 l 1,56,57
 250 200 l 1,58,59
 250 100 l 1,60,61
 225 100 l 1,62,63
 225 0 l 1,24,25
EndSplineSet
Validated: 1
EndChar

StartChar: uni041F
Encoding: 1055 1055 268
Width: 300
GlyphClass: 2
Flags: W
LayerCount: 2
Back
Fore
SplineSet
63 700 m 1,0,1
 287 700 l 1,2,3
 287 0 l 1,4,5
 237 0 l 1,6,7
 237 600 l 1,8,9
 113 600 l 1,10,11
 113 0 l 1,12,13
 63 0 l 1,14,15
 63 700 l 1,0,1
EndSplineSet
Validated: 1
EndChar

StartChar: uni0420
Encoding: 1056 1056 269
Width: 300
GlyphClass: 2
Flags: W
LayerCount: 2
Back
Fore
SplineSet
113 600 m 1,0,1
 113 400 l 1,2,3
 237 400 l 1,4,5
 237 600 l 1,6,7
 113 600 l 1,0,1
63 700 m 1,8,9
 263 700 l 1,10,11
 263 650 l 1,12,13
 287 650 l 1,14,15
 287 400 l 1,16,17
 263 400 l 1,18,19
 263 300 l 1,20,21
 113 300 l 1,22,23
 113 0 l 1,24,25
 63 0 l 1,26,27
 63 700 l 1,8,9
EndSplineSet
Validated: 1
EndChar

StartChar: uni0421
Encoding: 1057 1057 270
Width: 300
GlyphClass: 2
Flags: W
LayerCount: 2
Back
Fore
SplineSet
113 700 m 1,0,1
 263 700 l 1,2,3
 263 600 l 1,4,5
 287 600 l 1,6,7
 287 500 l 1,8,9
 237 500 l 1,10,11
 237 600 l 1,12,13
 137 600 l 1,14,15
 137 500 l 1,16,17
 113 500 l 1,18,19
 113 200 l 1,20,21
 137 200 l 1,22,23
 137 100 l 1,24,25
 237 100 l 1,26,27
 237 200 l 1,28,29
 287 200 l 1,30,31
 287 100 l 1,32,33
 263 100 l 1,34,35
 263 0 l 1,36,37
 113 0 l 1,38,39
 113 100 l 1,40,41
 87 100 l 1,42,43
 87 200 l 1,44,45
 63 200 l 1,46,47
 63 500 l 1,48,49
 87 500 l 1,50,51
 87 600 l 1,52,53
 113 600 l 1,54,55
 113 700 l 1,0,1
EndSplineSet
Validated: 1
EndChar

StartChar: uni0422
Encoding: 1058 1058 271
Width: 300
GlyphClass: 2
Flags: W
LayerCount: 2
Back
Fore
SplineSet
25 700 m 1,0,1
 275 700 l 1,2,3
 275 600 l 1,4,5
 175 600 l 1,6,7
 175 0 l 1,8,9
 125 0 l 1,10,11
 125 600 l 1,12,13
 25 600 l 1,14,15
 25 700 l 1,0,1
EndSplineSet
Validated: 1
EndChar

StartChar: uni0423
Encoding: 1059 1059 272
Width: 300
GlyphClass: 2
Flags: W
LayerCount: 2
Back
Fore
SplineSet
63 700 m 1,0,1
 113 700 l 1,2,3
 113 400 l 1,4,5
 237 400 l 1,6,7
 237 700 l 1,8,9
 287 700 l 1,10,11
 287 100 l 1,12,13
 263 100 l 1,14,15
 263 0 l 1,16,17
 87 0 l 1,18,19
 87 100 l 1,20,21
 63 100 l 1,22,23
 63 200 l 1,24,25
 113 200 l 1,26,27
 113 100 l 1,28,29
 237 100 l 1,30,31
 237 300 l 1,32,33
 87 300 l 1,34,35
 87 400 l 1,36,37
 63 400 l 1,38,39
 63 700 l 1,0,1
EndSplineSet
Validated: 1
EndChar

StartChar: uni0424
Encoding: 1060 1060 273
Width: 300
GlyphClass: 2
Flags: W
LayerCount: 2
Back
Fore
SplineSet
175 500 m 1,0,1
 175 200 l 1,2,3
 225 200 l 1,4,5
 225 500 l 1,6,7
 175 500 l 1,0,1
75 500 m 1,8,9
 75 200 l 1,10,11
 125 200 l 1,12,13
 125 500 l 1,14,15
 75 500 l 1,8,9
125 600 m 1,16,17
 125 700 l 1,18,19
 175 700 l 1,20,21
 175 600 l 1,22,23
 250 600 l 1,24,25
 250 500 l 1,26,27
 275 500 l 1,28,29
 275 200 l 1,30,31
 250 200 l 1,32,33
 250 100 l 1,34,35
 175 100 l 1,36,37
 175 0 l 1,38,39
 125 0 l 1,40,41
 125 100 l 1,42,43
 50 100 l 1,44,45
 50 200 l 1,46,47
 25 200 l 1,48,49
 25 500 l 1,50,51
 50 500 l 1,52,53
 50 600 l 1,54,55
 125 600 l 1,16,17
EndSplineSet
Validated: 1
EndChar

StartChar: uni0425
Encoding: 1061 1061 274
Width: 300
GlyphClass: 2
Flags: W
LayerCount: 2
Back
Fore
SplineSet
50 700 m 1,0,1
 100 700 l 1,2,3
 100 600 l 1,4,5
 125 600 l 1,6,7
 125 500 l 1,8,9
 175 500 l 1,10,11
 175 600 l 1,12,13
 200 600 l 1,14,15
 200 700 l 1,16,17
 250 700 l 1,18,19
 250 600 l 1,20,21
 225 600 l 1,22,23
 225 500 l 1,24,25
 200 500 l 1,26,27
 200 400 l 1,28,29
 175 400 l 1,30,31
 175 300 l 1,32,33
 200 300 l 1,34,35
 200 200 l 1,36,37
 225 200 l 1,38,39
 225 100 l 1,40,41
 250 100 l 1,42,43
 250 0 l 1,44,45
 200 0 l 1,46,47
 200 100 l 1,48,49
 175 100 l 1,50,51
 175 200 l 1,52,53
 125 200 l 1,54,55
 125 100 l 1,56,57
 100 100 l 1,58,59
 100 0 l 1,60,61
 50 0 l 1,62,63
 50 100 l 1,64,65
 75 100 l 1,66,67
 75 200 l 1,68,69
 100 200 l 1,70,71
 100 300 l 1,72,73
 125 300 l 1,74,75
 125 400 l 1,76,77
 100 400 l 1,78,79
 100 500 l 1,80,81
 75 500 l 1,82,83
 75 600 l 1,84,85
 50 600 l 1,86,87
 50 700 l 1,0,1
EndSplineSet
Validated: 1
EndChar

StartChar: uni0426
Encoding: 1062 1062 275
Width: 300
GlyphClass: 2
Flags: W
LayerCount: 2
Back
Fore
SplineSet
63 700 m 1,0,1
 113 700 l 1,2,3
 113 100 l 1,4,5
 187 100 l 1,6,7
 187 700 l 1,8,9
 237 700 l 1,10,11
 237 100 l 1,12,13
 287 100 l 1,14,15
 287 -100 l 1,16,17
 237 -100 l 1,18,19
 237 0 l 1,20,21
 63 0 l 1,22,23
 63 700 l 1,0,1
EndSplineSet
Validated: 1
EndChar

StartChar: uni0427
Encoding: 1063 1063 276
Width: 300
GlyphClass: 2
Flags: W
LayerCount: 2
Back
Fore
SplineSet
63 700 m 1,0,1
 113 700 l 1,2,3
 113 500 l 1,4,5
 137 500 l 1,6,7
 137 400 l 1,8,9
 237 400 l 1,10,11
 237 700 l 1,12,13
 287 700 l 1,14,15
 287 0 l 1,16,17
 237 0 l 1,18,19
 237 300 l 1,20,21
 113 300 l 1,22,23
 113 400 l 1,24,25
 87 400 l 1,26,27
 87 500 l 1,28,29
 63 500 l 1,30,31
 63 700 l 1,0,1
EndSplineSet
Validated: 1
EndChar

StartChar: uni0428
Encoding: 1064 1064 277
Width: 300
GlyphClass: 2
Flags: W
LayerCount: 2
Back
Fore
SplineSet
25 700 m 1,0,1
 75 700 l 1,2,3
 75 100 l 1,4,5
 125 100 l 1,6,7
 125 700 l 1,8,9
 175 700 l 1,10,11
 175 100 l 1,12,13
 225 100 l 1,14,15
 225 700 l 1,16,17
 275 700 l 1,18,19
 275 0 l 1,20,21
 25 0 l 1,22,23
 25 700 l 1,0,1
EndSplineSet
Validated: 1
EndChar

StartChar: uni0429
Encoding: 1065 1065 278
Width: 300
GlyphClass: 2
Flags: W
LayerCount: 2
Back
Fore
SplineSet
37 700 m 1,0,1
 87 700 l 1,2,3
 87 100 l 1,4,5
 137 100 l 1,6,7
 137 700 l 1,8,9
 187 700 l 1,10,11
 187 100 l 1,12,13
 237 100 l 1,14,15
 237 700 l 1,16,17
 287 700 l 1,18,19
 287 100 l 1,20,21
 313 100 l 1,22,23
 313 -100 l 1,24,25
 263 -100 l 1,26,27
 263 0 l 1,28,29
 37 0 l 1,30,31
 37 700 l 1,0,1
EndSplineSet
Validated: 1
EndChar

StartChar: uni042A
Encoding: 1066 1066 279
Width: 300
GlyphClass: 2
Flags: W
LayerCount: 2
Back
Fore
SplineSet
125 300 m 1,0,1
 125 100 l 1,2,3
 225 100 l 1,4,5
 225 300 l 1,6,7
 125 300 l 1,0,1
25 700 m 1,8,9
 125 700 l 1,10,11
 125 400 l 1,12,13
 250 400 l 1,14,15
 250 300 l 1,16,17
 275 300 l 1,18,19
 275 100 l 1,20,21
 250 100 l 1,22,23
 250 0 l 1,24,25
 75 0 l 1,26,27
 75 600 l 1,28,29
 25 600 l 1,30,31
 25 700 l 1,8,9
EndSplineSet
Validated: 1
EndChar

StartChar: uni042B
Encoding: 1067 1067 280
Width: 300
GlyphClass: 2
Flags: W
LayerCount: 2
Back
Fore
SplineSet
150 300 m 1,0,1
 75 300 l 1,2,3
 75 100 l 1,4,5
 150 100 l 1,6,7
 150 300 l 1,0,1
225 700 m 1,8,9
 275 700 l 1,10,11
 275 0 l 1,12,13
 225 0 l 1,14,15
 225 700 l 1,8,9
25 700 m 1,16,17
 75 700 l 1,18,19
 75 400 l 1,20,21
 175 400 l 1,22,23
 175 300 l 1,24,25
 200 300 l 1,26,27
 200 100 l 1,28,29
 175 100 l 1,30,31
 175 0 l 1,32,33
 25 0 l 1,34,35
 25 700 l 1,16,17
EndSplineSet
Validated: 1
EndChar

StartChar: uni042C
Encoding: 1068 1068 281
Width: 300
GlyphClass: 2
Flags: W
LayerCount: 2
Back
Fore
SplineSet
150 100 m 1,0,1
 250 100 l 1,2,3
 250 300 l 1,4,5
 150 300 l 1,6,7
 150 100 l 1,0,1
100 700 m 1,8,9
 149 700 l 1,10,11
 149 400 l 1,12,13
 275 400 l 1,14,15
 275 300 l 1,16,17
 299 300 l 1,18,19
 299 267 299 267 299.5 200.5 c 0
 300 134 300 134 300 101 c 1,20,21
 296 101 296 101 287.5 100.5 c 0
 279 100 279 100 275 100 c 1,22,23
 275 0 l 1,24,25
 100 0 l 1,26,27
 100 700 l 1,8,9
EndSplineSet
Validated: 1
EndChar

StartChar: uni042D
Encoding: 1069 1069 282
Width: 300
GlyphClass: 2
Flags: W
LayerCount: 2
Back
Fore
SplineSet
63 500 m 1,0,1
 63 600 l 1,2,3
 87 600 l 1,4,5
 87 700 l 1,6,7
 237 700 l 1,8,9
 237 600 l 1,10,11
 263 600 l 1,12,13
 263 500 l 1,14,15
 287 500 l 1,16,17
 287 200 l 1,18,19
 263 200 l 1,20,21
 263 100 l 1,22,23
 237 100 l 1,24,25
 237 0 l 1,26,27
 87 0 l 1,28,29
 87 100 l 1,30,31
 63 100 l 1,32,33
 63 200 l 1,34,35
 113 200 l 1,36,37
 113 100 l 1,38,39
 213 100 l 1,40,41
 213 200 l 1,42,43
 237 200 l 1,44,45
 237 300 l 1,46,47
 137 300 l 1,48,49
 137 400 l 1,50,51
 237 400 l 1,52,53
 237 500 l 1,54,55
 213 500 l 1,56,57
 213 600 l 1,58,59
 113 600 l 1,60,61
 113 500 l 1,62,63
 63 500 l 1,0,1
EndSplineSet
Validated: 1
EndChar

StartChar: uni042E
Encoding: 1070 1070 283
Width: 300
GlyphClass: 2
Flags: W
LayerCount: 2
Back
Fore
SplineSet
187 600 m 1,0,1
 187 100 l 1,2,3
 237 100 l 1,4,5
 237 600 l 1,6,7
 187 600 l 1,0,1
63 700 m 1,8,9
 113 700 l 1,10,11
 113 400 l 1,12,13
 137 400 l 1,14,15
 137 600 l 1,16,17
 163 600 l 1,18,19
 163 700 l 1,20,21
 263 700 l 1,22,23
 263 600 l 1,24,25
 287 600 l 1,26,27
 287 100 l 1,28,29
 263 100 l 1,30,31
 263 0 l 1,32,33
 163 0 l 1,34,35
 163 100 l 1,36,37
 137 100 l 1,38,39
 137 300 l 1,40,41
 113 300 l 1,42,43
 113 0 l 1,44,45
 63 0 l 1,46,47
 63 700 l 1,8,9
EndSplineSet
Validated: 1
EndChar

StartChar: uni042F
Encoding: 1071 1071 284
Width: 300
GlyphClass: 2
Flags: W
LayerCount: 2
Back
Fore
SplineSet
113 600 m 1,0,1
 113 400 l 1,2,3
 237 400 l 1,4,5
 237 600 l 1,6,7
 113 600 l 1,0,1
87 700 m 1,8,9
 287 700 l 1,10,11
 287 0 l 1,12,13
 237 0 l 1,14,15
 237 200 l 1,16,17
 187 200 l 1,18,19
 187 100 l 1,20,21
 163 100 l 1,22,23
 163 0 l 1,24,25
 63 0 l 1,26,27
 63 100 l 1,28,29
 113 100 l 1,30,31
 113 200 l 1,32,33
 163 200 l 1,34,35
 163 300 l 1,36,37
 87 300 l 1,38,39
 87 400 l 1,40,41
 63 400 l 1,42,43
 63 600 l 1,44,45
 87 600 l 1,46,47
 87 700 l 1,8,9
EndSplineSet
Validated: 1
EndChar

StartChar: uni0430
Encoding: 1072 1072 285
Width: 300
GlyphClass: 2
Flags: W
LayerCount: 2
Back
Fore
SplineSet
75 200 m 1,0,1
 75 100 l 1,2,3
 200 100 l 1,4,5
 200 200 l 1,6,7
 75 200 l 1,0,1
50 500 m 1,8,9
 225 500 l 1,10,11
 225 400 l 1,12,13
 250 400 l 1,14,15
 250 100 l 1,16,17
 275 100 l 1,18,19
 275 0 l 1,20,21
 50 0 l 1,22,23
 50 100 l 1,24,25
 25 100 l 1,26,27
 25 200 l 1,28,29
 50 200 l 1,30,31
 50 300 l 1,32,33
 200 300 l 1,34,35
 200 400 l 1,36,37
 50 400 l 1,38,39
 50 500 l 1,8,9
EndSplineSet
Validated: 1
EndChar

StartChar: uni0431
Encoding: 1073 1073 286
Width: 300
GlyphClass: 2
Flags: W
LayerCount: 2
Back
Fore
SplineSet
113 300 m 1,0,1
 113 100 l 1,2,3
 237 100 l 1,4,5
 237 300 l 1,6,7
 113 300 l 1,0,1
87 700 m 1,8,9
 287 700 l 1,10,11
 287 600 l 1,12,13
 163 600 l 1,14,15
 163 500 l 1,16,17
 237 500 l 1,18,19
 237 400 l 1,20,21
 263 400 l 1,22,23
 263 300 l 1,24,25
 287 300 l 1,26,27
 287 100 l 1,28,29
 263 100 l 1,30,31
 263 0 l 1,32,33
 87 0 l 1,34,35
 87 100 l 1,36,37
 63 100 l 1,38,39
 63 300 l 1,40,41
 87 300 l 1,42,43
 87 400 l 1,44,45
 163 400 l 1,46,47
 163 500 l 1,48,49
 113 500 l 1,50,51
 113 600 l 1,52,53
 87 600 l 1,54,55
 87 700 l 1,8,9
EndSplineSet
Validated: 5
EndChar

StartChar: uni0432
Encoding: 1074 1074 287
Width: 300
GlyphClass: 2
Flags: W
LayerCount: 2
Back
Fore
SplineSet
113 200 m 1,0,1
 113 100 l 1,2,3
 237 100 l 1,4,5
 237 200 l 1,6,7
 113 200 l 1,0,1
113 400 m 1,8,9
 113 300 l 1,10,11
 237 300 l 1,12,13
 237 400 l 1,14,15
 113 400 l 1,8,9
63 500 m 1,16,17
 263 500 l 1,18,19
 263 400 l 1,20,21
 287 400 l 1,22,23
 287 300 l 1,24,25
 263 300 l 1,26,27
 263 200 l 1,28,29
 287 200 l 1,30,31
 287 100 l 1,32,33
 263 100 l 1,34,35
 263 0 l 1,36,37
 63 0 l 1,38,39
 63 500 l 1,16,17
EndSplineSet
Validated: 1
EndChar

StartChar: uni0433
Encoding: 1075 1075 288
Width: 300
GlyphClass: 2
Flags: W
LayerCount: 2
Back
Fore
SplineSet
63 0 m 1,0,1
 63 500 l 1,2,3
 287 500 l 1,4,5
 287 401 l 1,6,7
 258 401 258 401 200 400.5 c 0
 142 400 142 400 113 400 c 1,8,9
 113 0 l 1,10,11
 63 0 l 1,0,1
EndSplineSet
Validated: 1
EndChar

StartChar: uni0434
Encoding: 1076 1076 289
Width: 300
GlyphClass: 2
Flags: W
LayerCount: 2
Back
Fore
SplineSet
125 400 m 1,0,1
 125 100 l 1,2,3
 175 100 l 1,4,5
 175 400 l 1,6,7
 125 400 l 1,0,1
100 500 m 1,8,9
 225 500 l 1,10,11
 225 100 l 1,12,13
 275 100 l 1,14,15
 275 -100 l 1,16,17
 225 -100 l 1,18,19
 225 0 l 1,20,21
 200 0 200 0 150 -0.5 c 0
 100 -1 100 -1 75 -1 c 1,22,23
 75 -100 l 1,24,25
 25 -100 l 1,26,27
 25 100 l 1,28,29
 75 100 l 1,30,31
 75 400 l 1,32,33
 100 400 l 1,34,35
 100 500 l 1,8,9
EndSplineSet
Validated: 1
EndChar

StartChar: uni0435
Encoding: 1077 1077 290
Width: 300
GlyphClass: 2
Flags: W
LayerCount: 2
Back
Fore
SplineSet
113 400 m 1,0,1
 113 300 l 1,2,3
 237 300 l 1,4,5
 237 400 l 1,6,7
 113 400 l 1,0,1
87 400 m 1,8,9
 87 500 l 1,10,11
 262 500 l 1,12,13
 262 484 262 484 262.5 450 c 0
 263 416 263 416 263 400 c 1,14,15
 287 400 l 1,16,17
 287 200 l 1,18,19
 113 200 l 1,20,21
 113 100 l 1,22,23
 263 100 l 1,24,25
 263 0 l 1,26,27
 87 0 l 1,28,29
 87 100 l 1,30,31
 63 100 l 1,32,33
 63 400 l 1,34,35
 87 400 l 1,8,9
EndSplineSet
Validated: 1
EndChar

StartChar: uni0436
Encoding: 1078 1078 291
Width: 300
GlyphClass: 2
Flags: W
LayerCount: 2
Back
Fore
SplineSet
25 500 m 1,0,1
 75 500 l 1,2,3
 75 400 l 1,4,5
 100 400 l 1,6,7
 100 300 l 1,8,9
 125 300 l 1,10,11
 125 500 l 1,12,13
 175 500 l 1,14,15
 175 300 l 1,16,17
 200 300 l 1,18,19
 200 400 l 1,20,21
 225 400 l 1,22,23
 225 500 l 1,24,25
 275 500 l 1,26,27
 275 400 l 1,28,29
 250 400 l 1,30,31
 250 300 l 1,32,33
 225 300 l 1,34,35
 225 200 l 1,36,37
 250 200 l 1,38,39
 250 100 l 1,40,41
 275 100 l 1,42,43
 275 0 l 1,44,45
 225 0 l 1,46,47
 225 100 l 1,48,49
 200 100 l 1,50,51
 200 200 l 1,52,53
 175 200 l 1,54,55
 175 0 l 1,56,57
 125 0 l 1,58,59
 125 200 l 1,60,61
 100 200 l 1,62,63
 100 100 l 1,64,65
 75 100 l 1,66,67
 75 0 l 1,68,69
 25 0 l 1,70,71
 25 100 l 1,72,73
 50 100 l 1,74,75
 50 200 l 1,76,77
 75 200 l 1,78,79
 75 300 l 1,80,81
 50 300 l 1,82,83
 50 400 l 1,84,85
 25 400 l 1,86,87
 25 500 l 1,0,1
EndSplineSet
Validated: 1
EndChar

StartChar: uni0437
Encoding: 1079 1079 292
Width: 300
GlyphClass: 2
Flags: W
LayerCount: 2
Back
Fore
SplineSet
63 400 m 1,0,1
 87 400 l 1,2,3
 87 500 l 1,4,5
 263 500 l 1,6,7
 263 400 l 1,8,9
 287 400 l 1,10,11
 287 300 l 1,12,13
 263 300 l 1,14,15
 263 200 l 1,16,17
 287 200 l 1,18,19
 287 100 l 1,20,21
 263 100 l 1,22,23
 263 0 l 1,24,25
 87 0 l 1,26,27
 87 100 l 1,28,29
 63 100 l 1,30,31
 63 200 l 1,32,33
 113 200 l 1,34,35
 113 100 l 1,36,37
 237 100 l 1,38,39
 237 200 l 1,40,41
 163 200 l 1,42,43
 163 300 l 1,44,45
 237 300 l 1,46,47
 237 400 l 1,48,49
 113 400 l 1,50,51
 113 300 l 1,52,53
 63 300 l 1,54,55
 63 400 l 1,0,1
EndSplineSet
Validated: 1
EndChar

StartChar: uni0438
Encoding: 1080 1080 293
Width: 300
GlyphClass: 2
Flags: W
LayerCount: 2
Back
Fore
SplineSet
63 0 m 1,0,1
 63 500 l 1,2,3
 113 500 l 1,4,5
 113 100 l 1,6,7
 137 100 l 1,8,9
 137 200 l 1,10,11
 163 200 l 1,12,13
 163 300 l 1,14,15
 187 300 l 1,16,17
 187 400 l 1,18,19
 213 400 l 1,20,21
 213 500 l 1,22,23
 287 500 l 1,24,25
 287 0 l 1,26,27
 237 0 l 1,28,29
 237 400 l 1,30,31
 213 400 l 1,32,33
 213 300 l 1,34,35
 187 300 l 1,36,37
 187 200 l 1,38,39
 163 200 l 1,40,41
 163 100 l 1,42,43
 137 100 l 1,44,45
 137 0 l 1,46,47
 63 0 l 1,0,1
EndSplineSet
Validated: 5
EndChar

StartChar: uni0439
Encoding: 1081 1081 294
Width: 300
GlyphClass: 2
Flags: W
LayerCount: 2
Back
Fore
SplineSet
87 800 m 1,0,1
 137 800 l 1,2,3
 137 700 l 1,4,5
 213 700 l 1,6,7
 213 800 l 1,8,9
 263 800 l 1,10,11
 263 700 l 1,12,13
 237 700 l 1,14,15
 237 600 l 1,16,17
 113 600 l 1,18,19
 113 700 l 1,20,21
 87 700 l 1,22,23
 87 800 l 1,0,1
63 0 m 1,24,25
 63 500 l 1,26,27
 113 500 l 1,28,29
 113 100 l 1,30,31
 137 100 l 1,32,33
 137 200 l 1,34,35
 163 200 l 1,36,37
 163 300 l 1,38,39
 187 300 l 1,40,41
 187 400 l 1,42,43
 213 400 l 1,44,45
 213 500 l 1,46,47
 287 500 l 1,48,49
 287 0 l 1,50,51
 237 0 l 1,52,53
 237 400 l 1,54,55
 213 400 l 1,56,57
 213 300 l 1,58,59
 187 300 l 1,60,61
 187 200 l 1,62,63
 163 200 l 1,64,65
 163 100 l 1,66,67
 137 100 l 1,68,69
 137 0 l 1,70,71
 63 0 l 1,24,25
EndSplineSet
Validated: 5
EndChar

StartChar: uni043A
Encoding: 1082 1082 295
Width: 300
GlyphClass: 2
Flags: W
LayerCount: 2
Back
Fore
SplineSet
63 500 m 1,0,1
 113 500 l 1,2,3
 113 300 l 1,4,5
 187 300 l 1,6,7
 187 400 l 1,8,9
 213 400 l 1,10,11
 213 500 l 1,12,13
 287 500 l 1,14,15
 287 400 l 1,16,17
 237 400 l 1,18,19
 237 300 l 1,20,21
 213 300 l 1,22,23
 213 200 l 1,24,25
 237 200 l 1,26,27
 237 100 l 1,28,29
 287 100 l 1,30,31
 287 0 l 1,32,33
 213 0 l 1,34,35
 213 100 l 1,36,37
 187 100 l 1,38,39
 187 200 l 1,40,41
 113 200 l 1,42,43
 113 0 l 1,44,45
 63 0 l 1,46,47
 63 500 l 1,0,1
EndSplineSet
Validated: 1
EndChar

StartChar: uni043B
Encoding: 1083 1083 296
Width: 300
GlyphClass: 2
Flags: W
LayerCount: 2
Back
Fore
SplineSet
63 100 m 1,0,1
 87 100 l 1,2,3
 87 400 l 1,4,5
 113 400 l 1,6,7
 113 500 l 1,8,9
 287 500 l 1,10,11
 287 0 l 1,12,13
 237 0 l 1,14,15
 237 400 l 1,16,17
 137 400 l 1,18,19
 137 100 l 1,20,21
 113 100 l 1,22,23
 113 0 l 1,24,25
 63 0 l 1,26,27
 63 100 l 1,0,1
EndSplineSet
Validated: 1
EndChar

StartChar: uni043C
Encoding: 1084 1084 297
Width: 300
GlyphClass: 2
Flags: W
LayerCount: 2
Back
Fore
SplineSet
63 0 m 1,0,1
 63 500 l 1,2,3
 137 500 l 1,4,5
 137 400 l 1,6,7
 163 400 l 1,8,9
 163 300 l 1,10,11
 187 300 l 1,12,13
 187 400 l 1,14,15
 213 400 l 1,16,17
 213 500 l 1,18,19
 287 500 l 1,20,21
 287 0 l 1,22,23
 237 0 l 1,24,25
 237 300 l 1,26,27
 213 300 l 1,28,29
 213 200 l 1,30,31
 187 200 l 1,32,33
 187 100 l 1,34,35
 163 100 l 1,36,37
 163 200 l 1,38,39
 137 200 l 1,40,41
 137 300 l 1,42,43
 113 300 l 1,44,45
 113 0 l 1,46,47
 63 0 l 1,0,1
EndSplineSet
Validated: 1
EndChar

StartChar: uni043D
Encoding: 1085 1085 298
Width: 300
GlyphClass: 2
Flags: W
LayerCount: 2
Back
Fore
SplineSet
50 500 m 1,0,1
 100 500 l 1,2,3
 100 300 l 1,4,5
 200 300 l 1,6,7
 200 500 l 1,8,9
 250 500 l 1,10,11
 250 0 l 1,12,13
 200 0 l 1,14,15
 200 200 l 1,16,17
 100 200 l 1,18,19
 100 0 l 1,20,21
 50 0 l 1,22,23
 50 500 l 1,0,1
EndSplineSet
Validated: 1
EndChar

StartChar: uni043E
Encoding: 1086 1086 299
Width: 300
GlyphClass: 2
Flags: W
LayerCount: 2
Back
Fore
SplineSet
113 400 m 1,0,1
 113 100 l 1,2,3
 237 100 l 1,4,5
 237 400 l 1,6,7
 113 400 l 1,0,1
87 500 m 1,8,9
 263 500 l 1,10,11
 263 400 l 1,12,13
 287 400 l 1,14,15
 287 100 l 1,16,17
 263 100 l 1,18,19
 263 0 l 1,20,21
 87 0 l 1,22,23
 87 100 l 1,24,25
 63 100 l 1,26,27
 63 400 l 1,28,29
 87 400 l 1,30,31
 87 500 l 1,8,9
EndSplineSet
Validated: 1
EndChar

StartChar: uni043F
Encoding: 1087 1087 300
Width: 300
GlyphClass: 2
Flags: W
LayerCount: 2
Back
Fore
SplineSet
63 0 m 1,0,1
 63 500 l 1,2,3
 287 500 l 1,4,5
 287 0 l 1,6,7
 237 0 l 1,8,9
 237 400 l 1,10,11
 113 400 l 1,12,13
 113 0 l 1,14,15
 63 0 l 1,0,1
EndSplineSet
Validated: 1
EndChar

StartChar: uni0440
Encoding: 1088 1088 301
Width: 300
GlyphClass: 2
Flags: W
LayerCount: 2
Back
Fore
SplineSet
137 300 m 1,0,1
 113 300 l 1,2,3
 113 200 l 1,4,5
 137 200 l 1,6,7
 137 100 l 1,8,9
 237 100 l 1,10,11
 237 400 l 1,12,13
 137 400 l 1,14,15
 137 300 l 1,0,1
63 500 m 1,16,17
 113 500 l 1,18,19
 113 400 l 1,20,21
 137 400 l 1,22,23
 137 500 l 1,24,25
 263 500 l 1,26,27
 263 400 l 1,28,29
 287 400 l 1,30,31
 287 100 l 1,32,33
 263 100 l 1,34,35
 263 0 l 1,36,37
 137 0 l 1,38,39
 137 100 l 1,40,41
 113 100 l 1,42,43
 113 -200 l 1,44,45
 63 -200 l 1,46,47
 63 500 l 1,16,17
EndSplineSet
Validated: 5
EndChar

StartChar: uni0441
Encoding: 1089 1089 302
Width: 300
GlyphClass: 2
Flags: W
LayerCount: 2
Back
Fore
SplineSet
113 500 m 1,0,1
 287 500 l 1,2,3
 287 400 l 1,4,5
 137 400 l 1,6,7
 137 300 l 1,8,9
 113 300 l 1,10,11
 113 200 l 1,12,13
 137 200 l 1,14,15
 137 100 l 1,16,17
 287 100 l 1,18,19
 287 0 l 1,20,21
 113 0 l 1,22,23
 113 100 l 1,24,25
 87 100 l 1,26,27
 87 200 l 1,28,29
 63 200 l 1,30,31
 63 300 l 1,32,33
 87 300 l 1,34,35
 87 400 l 1,36,37
 113 400 l 1,38,39
 113 500 l 1,0,1
EndSplineSet
Validated: 1
EndChar

StartChar: uni0442
Encoding: 1090 1090 303
Width: 300
GlyphClass: 2
Flags: W
LayerCount: 2
Back
Fore
SplineSet
25 500 m 1,0,1
 275 500 l 1,2,3
 275 400 l 1,4,5
 175 400 l 1,6,7
 175 0 l 1,8,9
 125 0 l 1,10,11
 125 400 l 1,12,13
 25 400 l 1,14,15
 25 500 l 1,0,1
EndSplineSet
Validated: 1
EndChar

StartChar: uni0443
Encoding: 1091 1091 304
Width: 300
GlyphClass: 2
Flags: W
LayerCount: 2
Back
Fore
SplineSet
63 500 m 1,0,1
 113 500 l 1,2,3
 113 400 l 1,4,5
 137 400 l 1,6,7
 137 300 l 1,8,9
 163 300 l 1,10,11
 163 200 l 1,12,13
 187 200 l 1,14,15
 187 300 l 1,16,17
 213 300 l 1,18,19
 213 400 l 1,20,21
 237 400 l 1,22,23
 237 500 l 1,24,25
 287 500 l 1,26,27
 287 400 l 1,28,29
 263 400 l 1,30,31
 263 300 l 1,32,33
 237 300 l 1,34,35
 237 200 l 1,36,37
 213 200 l 1,38,39
 213 100 l 1,40,41
 187 100 l 1,42,43
 187 0 l 1,44,45
 163 0 l 1,46,47
 163 -100 l 1,48,49
 137 -100 l 1,50,51
 137 -200 l 1,52,53
 63 -200 l 1,54,55
 63 -100 l 1,56,57
 113 -100 l 1,58,59
 113 0 l 1,60,61
 137 0 l 1,62,63
 137 200 l 1,64,65
 113 200 l 1,66,67
 113 300 l 1,68,69
 87 300 l 1,70,71
 87 400 l 1,72,73
 63 400 l 1,74,75
 63 500 l 1,0,1
EndSplineSet
Validated: 1
EndChar

StartChar: uni0444
Encoding: 1092 1092 305
Width: 300
GlyphClass: 2
Flags: W
LayerCount: 2
Back
Fore
SplineSet
125 400 m 1,0,1
 75 400 l 1,2,3
 75 100 l 1,4,5
 125 100 l 1,6,7
 125 400 l 1,0,1
175 400 m 1,8,9
 175 100 l 1,10,11
 225 100 l 1,12,13
 225 400 l 1,14,15
 175 400 l 1,8,9
125 700 m 1,16,17
 175 700 l 1,18,19
 175 500 l 1,20,21
 250 500 l 1,22,23
 250 400 l 1,24,25
 275 400 l 1,26,27
 275 100 l 1,28,29
 250 100 l 1,30,31
 250 0 l 1,32,33
 175 0 l 1,34,35
 175 -200 l 1,36,37
 125 -200 l 1,38,39
 125 0 l 1,40,41
 50 0 l 1,42,43
 50 100 l 1,44,45
 25 100 l 1,46,47
 25 400 l 1,48,49
 50 400 l 1,50,51
 50 500 l 1,52,53
 125 500 l 1,54,55
 125 700 l 1,16,17
EndSplineSet
Validated: 1
EndChar

StartChar: uni0445
Encoding: 1093 1093 306
Width: 300
GlyphClass: 2
Flags: W
LayerCount: 2
Back
Fore
SplineSet
25 500 m 1,0,1
 100 500 l 1,2,3
 100 400 l 1,4,5
 125 400 l 1,6,7
 125 300 l 1,8,9
 175 300 l 1,10,11
 175 400 l 1,12,13
 200 400 l 1,14,15
 200 500 l 1,16,17
 275 500 l 1,18,19
 275 400 l 1,20,21
 225 400 l 1,22,23
 225 300 l 1,24,25
 200 300 l 1,26,27
 200 200 l 1,28,29
 225 200 l 1,30,31
 225 100 l 1,32,33
 275 100 l 1,34,35
 275 0 l 1,36,37
 200 0 l 1,38,39
 200 100 l 1,40,41
 175 100 l 1,42,43
 175 200 l 1,44,45
 125 200 l 1,46,47
 125 100 l 1,48,49
 100 100 l 1,50,51
 100 0 l 1,52,53
 25 0 l 1,54,55
 25 100 l 1,56,57
 75 100 l 1,58,59
 75 200 l 1,60,61
 100 200 l 1,62,63
 100 300 l 1,64,65
 75 300 l 1,66,67
 75 400 l 1,68,69
 25 400 l 1,70,71
 25 500 l 1,0,1
EndSplineSet
Validated: 1
EndChar

StartChar: uni0446
Encoding: 1094 1094 307
Width: 300
GlyphClass: 2
Flags: W
LayerCount: 2
Back
Fore
SplineSet
63 500 m 1,0,1
 113 500 l 1,2,3
 113 100 l 1,4,5
 187 100 l 1,6,7
 187 500 l 1,8,9
 237 500 l 1,10,11
 237 100 l 1,12,13
 287 100 l 1,14,15
 287 -100 l 1,16,17
 237 -100 l 1,18,19
 237 0 l 1,20,21
 63 0 l 1,22,23
 63 500 l 1,0,1
EndSplineSet
Validated: 1
EndChar

StartChar: uni0447
Encoding: 1095 1095 308
Width: 300
GlyphClass: 2
Flags: W
LayerCount: 2
Back
Fore
SplineSet
63 500 m 1,0,1
 113 500 l 1,2,3
 113 300 l 1,4,5
 237 300 l 1,6,7
 237 500 l 1,8,9
 287 500 l 1,10,11
 287 0 l 1,12,13
 237 0 l 1,14,15
 237 200 l 1,16,17
 87 200 l 1,18,19
 87 300 l 1,20,21
 63 300 l 1,22,23
 63 500 l 1,0,1
EndSplineSet
Validated: 1
EndChar

StartChar: uni0448
Encoding: 1096 1096 309
Width: 300
GlyphClass: 2
Flags: W
LayerCount: 2
Back
Fore
SplineSet
25 500 m 1,0,1
 75 500 l 1,2,3
 75 100 l 1,4,5
 125 100 l 1,6,7
 125 500 l 1,8,9
 175 500 l 1,10,11
 175 100 l 1,12,13
 225 100 l 1,14,15
 225 500 l 1,16,17
 275 500 l 1,18,19
 275 0 l 1,20,21
 25 0 l 1,22,23
 25 500 l 1,0,1
EndSplineSet
Validated: 1
EndChar

StartChar: uni0449
Encoding: 1097 1097 310
Width: 300
GlyphClass: 2
Flags: W
LayerCount: 2
Back
Fore
SplineSet
37 500 m 1,0,1
 87 500 l 1,2,3
 87 100 l 1,4,5
 137 100 l 1,6,7
 137 500 l 1,8,9
 187 500 l 1,10,11
 187 100 l 1,12,13
 237 100 l 1,14,15
 237 500 l 1,16,17
 287 500 l 1,18,19
 287 100 l 1,20,21
 313 100 l 1,22,23
 313 -100 l 1,24,25
 263 -100 l 1,26,27
 263 0 l 1,28,29
 37 0 l 1,30,31
 37 500 l 1,0,1
EndSplineSet
Validated: 1
EndChar

StartChar: uni044A
Encoding: 1098 1098 311
Width: 300
GlyphClass: 2
Flags: W
LayerCount: 2
Back
Fore
SplineSet
125 200 m 1,0,1
 125 100 l 1,2,3
 225 100 l 1,4,5
 225 200 l 1,6,7
 125 200 l 1,0,1
25 500 m 1,8,9
 125 500 l 1,10,11
 125 300 l 1,12,13
 250 300 l 1,14,15
 250 200 l 1,16,17
 275 200 l 1,18,19
 275 100 l 1,20,21
 250 100 l 1,22,23
 250 0 l 1,24,25
 75 0 l 1,26,27
 75 400 l 1,28,29
 25 400 l 1,30,31
 25 500 l 1,8,9
EndSplineSet
Validated: 1
EndChar

StartChar: uni044B
Encoding: 1099 1099 312
Width: 300
GlyphClass: 2
Flags: W
LayerCount: 2
Back
Fore
SplineSet
225 0 m 1,0,1
 225 500 l 1,2,3
 275 500 l 1,4,5
 275 0 l 1,6,7
 225 0 l 1,0,1
75 200 m 1,8,9
 75 100 l 1,10,11
 150 100 l 1,12,13
 150 200 l 1,14,15
 75 200 l 1,8,9
25 500 m 1,16,17
 75 500 l 1,18,19
 75 300 l 1,20,21
 175 300 l 1,22,23
 175 200 l 1,24,25
 200 200 l 1,26,27
 200 100 l 1,28,29
 175 100 l 1,30,31
 175 0 l 1,32,33
 25 0 l 1,34,35
 25 500 l 1,16,17
EndSplineSet
Validated: 1
EndChar

StartChar: uni044C
Encoding: 1100 1100 313
Width: 300
GlyphClass: 2
Flags: W
LayerCount: 2
Back
Fore
SplineSet
113 100 m 1,0,1
 237 100 l 1,2,3
 237 200 l 1,4,5
 113 200 l 1,6,7
 113 100 l 1,0,1
63 500 m 1,8,9
 113 500 l 1,10,11
 113 300 l 1,12,13
 263 300 l 1,14,15
 263 200 l 1,16,17
 287 200 l 1,18,19
 287 100 l 1,20,21
 263 100 l 1,22,23
 263 0 l 1,24,25
 63 0 l 1,26,27
 63 500 l 1,8,9
EndSplineSet
Validated: 1
EndChar

StartChar: uni044D
Encoding: 1101 1101 314
Width: 300
GlyphClass: 2
Flags: W
LayerCount: 2
Back
Fore
SplineSet
63 300 m 1,0,1
 63 400 l 1,2,3
 87 400 l 1,4,5
 87 500 l 1,6,7
 263 500 l 1,8,9
 263 400 l 1,10,11
 287 400 l 1,12,13
 287 100 l 1,14,15
 263 100 l 1,16,17
 263 0 l 1,18,19
 87 0 l 1,20,21
 87 100 l 1,22,23
 63 100 l 1,24,25
 63 200 l 1,26,27
 113 200 l 1,28,29
 113 100 l 1,30,31
 237 100 l 1,32,33
 237 200 l 1,34,35
 163 200 l 1,36,37
 163 300 l 1,38,39
 237 300 l 1,40,41
 237 400 l 1,42,43
 113 400 l 1,44,45
 113 300 l 1,46,47
 63 300 l 1,0,1
EndSplineSet
Validated: 1
EndChar

StartChar: uni044E
Encoding: 1102 1102 315
Width: 300
GlyphClass: 2
Flags: W
LayerCount: 2
Back
Fore
SplineSet
187 100 m 1,0,1
 237 100 l 1,2,3
 237 400 l 1,4,5
 187 400 l 1,6,7
 187 100 l 1,0,1
63 0 m 1,8,9
 63 500 l 1,10,11
 113 500 l 1,12,13
 113 300 l 1,14,15
 137 300 l 1,16,17
 137 400 l 1,18,19
 163 400 l 1,20,21
 163 500 l 1,22,23
 263 500 l 1,24,25
 263 400 l 1,26,27
 287 400 l 1,28,29
 287 100 l 1,30,31
 263 100 l 1,32,33
 263 0 l 1,34,35
 163 0 l 1,36,37
 163 100 l 1,38,39
 137 100 l 1,40,41
 137 200 l 1,42,43
 113 200 l 1,44,45
 113 0 l 1,46,47
 63 0 l 1,8,9
EndSplineSet
Validated: 1
EndChar

StartChar: uni044F
Encoding: 1103 1103 316
Width: 300
GlyphClass: 2
Flags: W
LayerCount: 2
Back
Fore
SplineSet
113 400 m 1,0,1
 113 300 l 1,2,3
 237 300 l 1,4,5
 237 400 l 1,6,7
 113 400 l 1,0,1
63 400 m 1,8,9
 87 400 l 1,10,11
 87 500 l 1,12,13
 287 500 l 1,14,15
 287 0 l 1,16,17
 237 0 l 1,18,19
 237 200 l 1,20,21
 213 200 l 1,22,23
 213 100 l 1,24,25
 163 100 l 1,26,27
 163 0 l 1,28,29
 87 0 l 1,30,31
 87 100 l 1,32,33
 137 100 l 1,34,35
 137 200 l 1,36,37
 87 200 l 1,38,39
 87 300 l 1,40,41
 63 300 l 1,42,43
 63 400 l 1,8,9
EndSplineSet
EndChar

StartChar: uni0450
Encoding: 1104 1104 317
Width: 300
GlyphClass: 2
Flags: W
LayerCount: 2
Back
Fore
SplineSet
113 400 m 1,0,1
 113 300 l 1,2,3
 237 300 l 1,4,5
 237 400 l 1,6,7
 113 400 l 1,0,1
87 400 m 1,8,9
 87 500 l 1,10,11
 262 500 l 1,12,13
 262 484 262 484 262.5 450 c 0
 263 416 263 416 263 400 c 1,14,15
 287 400 l 1,16,17
 287 200 l 1,18,19
 113 200 l 1,20,21
 113 100 l 1,22,23
 263 100 l 1,24,25
 263 0 l 1,26,27
 87 0 l 1,28,29
 87 100 l 1,30,31
 63 100 l 1,32,33
 63 400 l 1,34,35
 87 400 l 1,8,9
EndSplineSet
Validated: 1
EndChar

StartChar: uni0451
Encoding: 1105 1105 318
Width: 300
GlyphClass: 2
Flags: W
LayerCount: 2
Back
Fore
SplineSet
213 700 m 1,0,1
 263 700 l 1,2,3
 263 600 l 1,4,5
 213 600 l 1,6,7
 213 700 l 1,0,1
87 700 m 1,8,9
 137 700 l 1,10,11
 137 600 l 1,12,13
 87 600 l 1,14,15
 87 700 l 1,8,9
113 400 m 1,16,17
 113 300 l 1,18,19
 237 300 l 1,20,21
 237 400 l 1,22,23
 113 400 l 1,16,17
87 400 m 1,24,25
 87 416 87 416 87.5 450 c 0
 88 484 88 484 88 500 c 1,26,27
 262 500 l 1,28,29
 262 484 262 484 262.5 450 c 0
 263 416 263 416 263 400 c 1,30,31
 287 400 l 1,32,33
 287 200 l 1,34,35
 113 200 l 1,36,37
 113 100 l 1,38,39
 263 100 l 1,40,41
 263 0 l 1,42,43
 87 0 l 1,44,45
 87 100 l 1,46,47
 63 100 l 1,48,49
 63 400 l 1,50,51
 87 400 l 1,24,25
EndSplineSet
Validated: 1
EndChar

StartChar: uni0452
Encoding: 1106 1106 319
Width: 300
GlyphClass: 2
Flags: W
LayerCount: 2
Back
Fore
SplineSet
37 0 m 1,0,1
 37 500 l 1,2,3
 -13 500 l 1,4,5
 -13 600 l 1,6,7
 37 600 l 1,8,9
 37 700 l 1,10,11
 87 700 l 1,12,13
 87 600 l 1,14,15
 163 600 l 1,16,17
 163 500 l 1,18,19
 87 500 l 1,20,21
 87 400 l 1,22,23
 237 400 l 1,24,25
 237 300 l 1,26,27
 263 300 l 1,28,29
 263 0 l 1,30,31
 237 0 l 1,32,33
 237 -100 l 1,34,35
 213 -100 l 1,36,37
 213 -200 l 1,38,39
 113 -200 l 1,40,41
 113 -100 l 1,42,43
 187 -100 l 1,44,45
 187 0 l 1,46,47
 213 0 l 1,48,49
 213 300 l 1,50,51
 87 300 l 1,52,53
 87 0 l 1,54,55
 37 0 l 1,0,1
EndSplineSet
Validated: 1
EndChar

StartChar: uni0453
Encoding: 1107 1107 320
Width: 300
GlyphClass: 2
Flags: W
LayerCount: 2
Back
Fore
SplineSet
137 600 m 1,0,1
 137 700 l 1,2,3
 163 700 l 1,4,5
 163 800 l 1,6,7
 213 800 l 1,8,9
 213 700 l 1,10,11
 187 700 l 1,12,13
 187 600 l 1,14,15
 137 600 l 1,0,1
63 0 m 1,16,17
 63 500 l 1,18,19
 287 500 l 1,20,21
 287 401 l 1,22,23
 258 401 258 401 200 400.5 c 0
 142 400 142 400 113 400 c 1,24,25
 113 0 l 1,26,27
 63 0 l 1,16,17
EndSplineSet
Validated: 1
EndChar

StartChar: uni0454
Encoding: 1108 1108 321
Width: 300
GlyphClass: 2
Flags: W
LayerCount: 2
Back
Fore
SplineSet
237 100 m 1,0,1
 237 200 l 1,2,3
 287 200 l 1,4,5
 287 100 l 1,6,7
 263 100 l 1,8,9
 263 0 l 1,10,11
 87 0 l 1,12,13
 87 100 l 1,14,15
 63 100 l 1,16,17
 63 400 l 1,18,19
 87 400 l 1,20,21
 87 500 l 1,22,23
 263 500 l 1,24,25
 263 400 l 1,26,27
 287 400 l 1,28,29
 287 300 l 1,30,31
 237 300 l 1,32,33
 237 400 l 1,34,35
 113 400 l 1,36,37
 113 300 l 1,38,39
 187 300 l 1,40,41
 187 200 l 1,42,43
 113 200 l 1,44,45
 113 100 l 1,46,47
 237 100 l 1,0,1
EndSplineSet
Validated: 1
EndChar

StartChar: uni0455
Encoding: 1109 1109 322
Width: 300
GlyphClass: 2
Flags: W
LayerCount: 2
Back
Fore
SplineSet
263 400 m 1,0,1
 113 400 l 1,2,3
 113 300 l 1,4,5
 263 300 l 1,6,7
 263 200 l 1,8,9
 287 200 l 1,10,11
 287 100 l 1,12,13
 263 100 l 1,14,15
 263 0 l 1,16,17
 87 0 l 1,18,19
 87 100 l 1,20,21
 237 100 l 1,22,23
 237 200 l 1,24,25
 87 200 l 1,26,27
 87 300 l 1,28,29
 63 300 l 1,30,31
 63 400 l 1,32,33
 87 400 l 1,34,35
 87 500 l 1,36,37
 263 500 l 1,38,39
 263 400 l 1,0,1
EndSplineSet
Validated: 1
EndChar

StartChar: uni0456
Encoding: 1110 1110 323
Width: 300
GlyphClass: 2
Flags: W
LayerCount: 2
Back
Fore
SplineSet
100 500 m 1,0,1
 175 500 l 1,2,3
 175 100 l 1,4,5
 225 100 l 1,6,7
 225 0 l 1,8,9
 75 0 l 1,10,11
 75 100 l 1,12,13
 125 100 l 1,14,15
 125 400 l 1,16,17
 100 400 l 1,18,19
 100 500 l 1,0,1
100 700 m 1,20,21
 175 700 l 1,22,23
 175 600 l 1,24,25
 100 600 l 1,26,27
 100 700 l 1,20,21
EndSplineSet
Validated: 1
EndChar

StartChar: uni0457
Encoding: 1111 1111 324
Width: 300
GlyphClass: 2
Flags: W
LayerCount: 2
Back
Fore
SplineSet
100 500 m 1,0,1
 175 500 l 1,2,3
 175 100 l 1,4,5
 225 100 l 1,6,7
 225 0 l 1,8,9
 75 0 l 1,10,11
 75 100 l 1,12,13
 125 100 l 1,14,15
 125 400 l 1,16,17
 100 400 l 1,18,19
 100 500 l 1,0,1
100 700 m 1,20,21
 175 700 l 1,22,23
 175 600 l 1,24,25
 100 600 l 1,26,27
 100 700 l 1,20,21
EndSplineSet
Validated: 1
EndChar

StartChar: uni0458
Encoding: 1112 1112 325
Width: 300
GlyphClass: 2
Flags: W
LayerCount: 2
Back
Fore
SplineSet
213 400 m 1,0,1
 213 500 l 1,2,3
 287 500 l 1,4,5
 287 -100 l 1,6,7
 263 -100 l 1,8,9
 263 -200 l 1,10,11
 87 -200 l 1,12,13
 87 -100 l 1,14,15
 63 -100 l 1,16,17
 63 0 l 1,18,19
 113 0 l 1,20,21
 113 -100 l 1,22,23
 237 -100 l 1,24,25
 237 400 l 1,26,27
 213 400 l 1,0,1
213 700 m 1,28,29
 287 700 l 1,30,31
 287 600 l 1,32,33
 213 600 l 1,34,35
 213 700 l 1,28,29
EndSplineSet
Validated: 1
EndChar

StartChar: uni0459
Encoding: 1113 1113 326
Width: 300
GlyphClass: 2
Flags: W
LayerCount: 2
Back
Fore
SplineSet
213 100 m 1,0,1
 263 100 l 1,2,3
 263 200 l 1,4,5
 213 200 l 1,6,7
 213 100 l 1,0,1
37 100 m 1,8,9
 63 100 l 1,10,11
 63 400 l 1,12,13
 87 400 l 1,14,15
 87 500 l 1,16,17
 213 500 l 1,18,19
 213 300 l 1,20,21
 287 300 l 1,22,23
 287 200 l 1,24,25
 313 200 l 1,26,27
 313 100 l 1,28,29
 287 100 l 1,30,31
 287 0 l 1,32,33
 163 0 l 1,34,35
 163 400 l 1,36,37
 113 400 l 1,38,39
 113 100 l 1,40,41
 87 100 l 1,42,43
 87 0 l 1,44,45
 37 0 l 1,46,47
 37 100 l 1,8,9
EndSplineSet
Validated: 1
EndChar

StartChar: uni045A
Encoding: 1114 1114 327
Width: 300
GlyphClass: 2
Flags: W
LayerCount: 2
Back
Fore
SplineSet
213 100 m 1,0,1
 263 100 l 1,2,3
 263 200 l 1,4,5
 213 200 l 1,6,7
 213 100 l 1,0,1
37 0 m 1,8,9
 37 500 l 1,10,11
 87 500 l 1,12,13
 87 300 l 1,14,15
 163 300 l 1,16,17
 163 500 l 1,18,19
 213 500 l 1,20,21
 213 300 l 1,22,23
 287 300 l 1,24,25
 287 200 l 1,26,27
 313 200 l 1,28,29
 313 100 l 1,30,31
 287 100 l 1,32,33
 287 0 l 1,34,35
 163 0 l 1,36,37
 163 200 l 1,38,39
 87 200 l 1,40,41
 87 0 l 1,42,43
 37 0 l 1,8,9
EndSplineSet
Validated: 1
EndChar

StartChar: uni045B
Encoding: 1115 1115 328
Width: 300
GlyphClass: 2
Flags: W
LayerCount: 2
Back
Fore
SplineSet
37 0 m 1,0,1
 37 500 l 1,2,3
 -13 500 l 1,4,5
 -13 600 l 1,6,7
 37 600 l 1,8,9
 37 700 l 1,10,11
 87 700 l 1,12,13
 87 600 l 1,14,15
 163 600 l 1,16,17
 163 500 l 1,18,19
 87 500 l 1,20,21
 87 400 l 1,22,23
 237 400 l 1,24,25
 237 300 l 1,26,27
 263 300 l 1,28,29
 263 0 l 1,30,31
 213 0 l 1,32,33
 213 300 l 1,34,35
 87 300 l 1,36,37
 87 0 l 1,38,39
 37 0 l 1,0,1
EndSplineSet
Validated: 1
EndChar

StartChar: uni045C
Encoding: 1116 1116 329
Width: 300
GlyphClass: 2
Flags: W
LayerCount: 2
Back
Fore
SplineSet
137 600 m 1,0,1
 137 700 l 1,2,3
 163 700 l 1,4,5
 163 800 l 1,6,7
 213 800 l 1,8,9
 213 700 l 1,10,11
 187 700 l 1,12,13
 187 600 l 1,14,15
 137 600 l 1,0,1
63 500 m 1,16,17
 113 500 l 1,18,19
 113 300 l 1,20,21
 187 300 l 1,22,23
 187 400 l 1,24,25
 213 400 l 1,26,27
 213 500 l 1,28,29
 287 500 l 1,30,31
 287 400 l 1,32,33
 237 400 l 1,34,35
 237 300 l 1,36,37
 213 300 l 1,38,39
 213 200 l 1,40,41
 237 200 l 1,42,43
 237 100 l 1,44,45
 287 100 l 1,46,47
 287 0 l 1,48,49
 213 0 l 1,50,51
 213 100 l 1,52,53
 187 100 l 1,54,55
 187 200 l 1,56,57
 113 200 l 1,58,59
 113 0 l 1,60,61
 63 0 l 1,62,63
 63 500 l 1,16,17
EndSplineSet
Validated: 1
EndChar

StartChar: uni045D
Encoding: 1117 1117 330
Width: 300
GlyphClass: 2
Flags: W
LayerCount: 2
Back
Fore
SplineSet
163 600 m 1,0,1
 163 700 l 1,2,3
 137 700 l 1,4,5
 137 800 l 1,6,7
 187 800 l 1,8,9
 187 700 l 1,10,11
 213 700 l 1,12,13
 213 600 l 1,14,15
 163 600 l 1,0,1
63 0 m 1,16,17
 63 500 l 1,18,19
 113 500 l 1,20,21
 113 100 l 1,22,23
 137 100 l 1,24,25
 137 200 l 1,26,27
 163 200 l 1,28,29
 163 300 l 1,30,31
 187 300 l 1,32,33
 187 400 l 1,34,35
 213 400 l 1,36,37
 213 500 l 1,38,39
 287 500 l 1,40,41
 287 0 l 1,42,43
 237 0 l 1,44,45
 237 400 l 1,46,47
 213 400 l 1,48,49
 213 300 l 1,50,51
 187 300 l 1,52,53
 187 200 l 1,54,55
 163 200 l 1,56,57
 163 100 l 1,58,59
 137 100 l 1,60,61
 137 0 l 1,62,63
 63 0 l 1,16,17
EndSplineSet
Validated: 5
EndChar

StartChar: uni045E
Encoding: 1118 1118 331
Width: 300
GlyphClass: 2
Flags: W
LayerCount: 2
Back
Fore
SplineSet
87 800 m 1,0,1
 137 800 l 1,2,3
 137 700 l 1,4,5
 213 700 l 1,6,7
 213 800 l 1,8,9
 263 800 l 1,10,11
 263 700 l 1,12,13
 237 700 l 1,14,15
 237 600 l 1,16,17
 113 600 l 1,18,19
 113 700 l 1,20,21
 87 700 l 1,22,23
 87 800 l 1,0,1
63 500 m 1,24,25
 113 500 l 1,26,27
 113 400 l 1,28,29
 137 400 l 1,30,31
 137 300 l 1,32,33
 163 300 l 1,34,35
 163 200 l 1,36,37
 187 200 l 1,38,39
 187 300 l 1,40,41
 213 300 l 1,42,43
 213 400 l 1,44,45
 237 400 l 1,46,47
 237 500 l 1,48,49
 287 500 l 1,50,51
 287 400 l 1,52,53
 263 400 l 1,54,55
 263 300 l 1,56,57
 237 300 l 1,58,59
 237 200 l 1,60,61
 213 200 l 1,62,63
 213 100 l 1,64,65
 187 100 l 1,66,67
 187 0 l 1,68,69
 163 0 l 1,70,71
 163 -100 l 1,72,73
 137 -100 l 1,74,75
 137 -200 l 1,76,77
 63 -200 l 1,78,79
 63 -100 l 1,80,81
 113 -100 l 1,82,83
 113 0 l 1,84,85
 137 0 l 1,86,87
 137 200 l 1,88,89
 113 200 l 1,90,91
 113 300 l 1,92,93
 87 300 l 1,94,95
 87 400 l 1,96,97
 63 400 l 1,98,99
 63 500 l 1,24,25
EndSplineSet
Validated: 1
EndChar

StartChar: uni045F
Encoding: 1119 1119 332
Width: 300
GlyphClass: 2
Flags: W
LayerCount: 2
Back
Fore
SplineSet
75 500 m 1,0,1
 125 500 l 1,2,3
 125 100 l 1,4,5
 275 100 l 1,6,7
 275 500 l 1,8,9
 325 500 l 1,10,11
 325 0 l 1,12,13
 225 0 l 1,14,15
 225 -200 l 1,16,17
 175 -200 l 1,18,19
 175 0 l 1,20,21
 75 0 l 1,22,23
 75 500 l 1,0,1
EndSplineSet
Validated: 1
EndChar

StartChar: uni0490
Encoding: 1168 1168 333
Width: 300
GlyphClass: 2
Flags: W
LayerCount: 2
Back
Fore
SplineSet
63 0 m 1,0,1
 63 700 l 1,2,3
 237 700 l 1,4,5
 237 800 l 1,6,7
 287 800 l 1,8,9
 287 600 l 1,10,11
 113 600 l 1,12,13
 113 0 l 1,14,15
 63 0 l 1,0,1
EndSplineSet
Validated: 1
EndChar

StartChar: uni0491
Encoding: 1169 1169 334
Width: 300
GlyphClass: 2
Flags: W
LayerCount: 2
Back
Fore
SplineSet
63 0 m 1,0,1
 63 500 l 1,2,3
 237 500 l 1,4,5
 237 600 l 1,6,7
 287 600 l 1,8,9
 287 400 l 1,10,11
 113 400 l 1,12,13
 113 0 l 1,14,15
 63 0 l 1,0,1
EndSplineSet
Validated: 1
EndChar

StartChar: quoteright
Encoding: 8217 8217 335
Width: 300
GlyphClass: 2
Flags: W
LayerCount: 2
Back
Fore
SplineSet
87 400 m 1,0,1
 87 500 l 1,2,3
 113 500 l 1,4,5
 113 600 l 1,6,7
 87 600 l 1,8,9
 87 700 l 1,10,11
 163 700 l 1,12,13
 163 500 l 1,14,15
 137 500 l 1,16,17
 137 400 l 1,18,19
 87 400 l 1,0,1
EndSplineSet
Validated: 1
EndChar

StartChar: quotedblright
Encoding: 8221 8221 336
Width: 300
GlyphClass: 2
Flags: W
LayerCount: 2
Back
Fore
SplineSet
175 400 m 1,0,1
 175 500 l 1,2,3
 200 500 l 1,4,5
 200 600 l 1,6,7
 175 600 l 1,8,9
 175 700 l 1,10,11
 250 700 l 1,12,13
 250 500 l 1,14,15
 225 500 l 1,16,17
 225 400 l 1,18,19
 175 400 l 1,0,1
50 600 m 1,20,21
 50 700 l 1,22,23
 125 700 l 1,24,25
 125 500 l 1,26,27
 100 500 l 1,28,29
 100 400 l 1,30,31
 50 400 l 1,32,33
 50 500 l 1,34,35
 75 500 l 1,36,37
 75 600 l 1,38,39
 50 600 l 1,20,21
EndSplineSet
Validated: 1
EndChar

StartChar: minute
Encoding: 8242 8242 337
Width: 300
GlyphClass: 2
Flags: W
LayerCount: 2
Back
Fore
SplineSet
87 400 m 1,0,1
 87 500 l 1,2,3
 113 500 l 1,4,5
 113 600 l 1,6,7
 87 600 l 1,8,9
 87 700 l 1,10,11
 163 700 l 1,12,13
 163 500 l 1,14,15
 137 500 l 1,16,17
 137 400 l 1,18,19
 87 400 l 1,0,1
EndSplineSet
Validated: 1
EndChar

StartChar: second
Encoding: 8243 8243 338
Width: 300
GlyphClass: 2
Flags: W
LayerCount: 2
Back
Fore
SplineSet
175 400 m 1,0,1
 175 500 l 1,2,3
 200 500 l 1,4,5
 200 600 l 1,6,7
 175 600 l 1,8,9
 175 700 l 1,10,11
 250 700 l 1,12,13
 250 500 l 1,14,15
 225 500 l 1,16,17
 225 400 l 1,18,19
 175 400 l 1,0,1
50 600 m 1,20,21
 50 700 l 1,22,23
 125 700 l 1,24,25
 125 500 l 1,26,27
 100 500 l 1,28,29
 100 400 l 1,30,31
 50 400 l 1,32,33
 50 500 l 1,34,35
 75 500 l 1,36,37
 75 600 l 1,38,39
 50 600 l 1,20,21
EndSplineSet
Validated: 1
EndChar

StartChar: Euro
Encoding: 8364 8364 339
Width: 300
GlyphClass: 2
Flags: W
LayerCount: 2
Back
Fore
SplineSet
125 500 m 1,0,1
 200 500 l 1,2,3
 200 400 l 1,4,5
 100 400 l 1,6,7
 100 300 l 1,8,9
 200 300 l 1,10,11
 200 200 l 1,12,13
 125 200 l 1,14,15
 125 100 l 1,16,17
 225 100 l 1,18,19
 225 200 l 1,20,21
 275 200 l 1,22,23
 275 100 l 1,24,25
 250 100 l 1,26,27
 250 0 l 1,28,29
 100 0 l 1,30,31
 100 100 l 1,32,33
 75 100 l 1,34,35
 75 200 l 1,36,37
 25 200 l 1,38,39
 25 300 l 1,40,41
 50 300 l 1,42,43
 50 400 l 1,44,45
 25 400 l 1,46,47
 25 500 l 1,48,49
 75 500 l 1,50,51
 75 600 l 1,52,53
 100 600 l 1,54,55
 100 700 l 1,56,57
 250 700 l 1,58,59
 250 600 l 1,60,61
 275 600 l 1,62,63
 275 500 l 1,64,65
 225 500 l 1,66,67
 225 600 l 1,68,69
 125 600 l 1,70,71
 125 500 l 1,0,1
EndSplineSet
Validated: 1
EndChar

StartChar: uni20B4
Encoding: 8372 8372 340
Width: 300
GlyphClass: 2
Flags: W
LayerCount: 2
Back
Fore
SplineSet
-12 500 m 1,0,1
 -12 600 l 1,2,3
 12 600 l 1,4,5
 12 700 l 1,6,7
 188 700 l 1,8,9
 188 600 l 1,10,11
 212 600 l 1,12,13
 212 400 l 1,14,15
 188 400 l 1,16,17
 188 300 l 1,18,19
 38 300 l 1,20,21
 38 100 l 1,22,23
 162 100 l 1,24,25
 162 200 l 1,26,27
 212 200 l 1,28,29
 212 100 l 1,30,31
 188 100 l 1,32,33
 188 0 l 1,34,35
 12 0 l 1,36,37
 12 100 l 1,38,39
 -12 100 l 1,40,41
 -12 300 l 1,42,43
 12 300 l 1,44,45
 12 400 l 1,46,47
 162 400 l 1,48,49
 162 600 l 1,50,51
 38 600 l 1,52,53
 38 500 l 1,54,55
 -12 500 l 1,0,1
EndSplineSet
Validated: 1
EndChar

StartChar: uni20B8
Encoding: 8376 8376 341
Width: 300
GlyphClass: 2
Flags: W
LayerCount: 2
Back
Fore
SplineSet
25 500 m 1,0,1
 275 500 l 1,2,3
 275 400 l 1,4,5
 175 400 l 1,6,7
 175 0 l 1,8,9
 125 0 l 1,10,11
 125 400 l 1,12,13
 25 400 l 1,14,15
 25 500 l 1,0,1
25 600 m 1,16,17
 25 700 l 1,18,19
 275 700 l 1,20,21
 275 600 l 1,22,23
 25 600 l 1,16,17
EndSplineSet
Validated: 1
EndChar

StartChar: uni20BD
Encoding: 8381 8381 342
Width: 300
GlyphClass: 2
Flags: W
LayerCount: 2
Back
Fore
SplineSet
87 400 m 1,0,1
 213 400 l 1,2,3
 213 600 l 1,4,5
 87 600 l 1,6,7
 87 400 l 1,0,1
37 700 m 1,8,9
 237 700 l 1,10,11
 237 650 l 1,12,13
 263 650 l 1,14,15
 263 400 l 1,16,17
 237 400 l 1,18,19
 237 300 l 1,20,21
 87 300 l 1,22,23
 87 250 l 1,24,25
 187 250 l 1,26,27
 187 150 l 1,28,29
 87 150 l 1,30,31
 87 0 l 1,32,33
 37 0 l 1,34,35
 37 150 l 1,36,37
 -13 150 l 1,38,39
 -13 250 l 1,40,41
 37 250 l 1,42,43
 37 300 l 1,44,45
 -13 300 l 1,46,47
 -13 400 l 1,48,49
 37 400 l 1,50,51
 37 700 l 1,8,9
EndSplineSet
Validated: 1
EndChar

StartChar: uni2116
Encoding: 8470 8470 343
Width: 300
GlyphClass: 2
Flags: W
LayerCount: 2
Back
Fore
SplineSet
175 300 m 1,0,1
 300 300 l 1,2,3
 300 200 l 1,4,5
 175 200 l 1,6,7
 175 300 l 1,0,1
225 600 m 1,8,9
 225 500 l 1,10,11
 250 500 l 1,12,13
 250 600 l 1,14,15
 225 600 l 1,8,9
200 600 m 1,16,17
 200 700 l 1,18,19
 275 700 l 1,20,21
 275 600 l 1,22,23
 300 600 l 1,24,25
 300 500 l 1,26,27
 275 500 l 1,28,29
 275 400 l 1,30,31
 200 400 l 1,32,33
 200 500 l 1,34,35
 175 500 l 1,36,37
 175 600 l 1,38,39
 200 600 l 1,16,17
0 0 m 1,40,41
 0 700 l 1,42,43
 50 700 l 1,44,45
 50 600 l 1,46,47
 75 600 l 1,48,49
 75 400 l 1,50,51
 100 400 l 1,52,53
 100 700 l 1,54,55
 150 700 l 1,56,57
 150 0 l 1,58,59
 100 0 l 1,60,61
 100 100 l 1,62,63
 75 100 l 1,64,65
 75 250 l 1,66,67
 50 250 l 1,68,69
 50 0 l 1,70,71
 0 0 l 1,40,41
EndSplineSet
Validated: 1
EndChar

StartChar: trademark
Encoding: 8482 8482 344
Width: 912
GlyphClass: 2
Flags: W
LayerCount: 2
Back
Fore
SplineSet
538 400 m 1,0,1
 538 700 l 1,2,3
 612 700 l 1,4,5
 612 600 l 1,6,7
 662 600 l 1,8,9
 662 700 l 1,10,11
 738 700 l 1,12,13
 738 400 l 1,14,15
 688 400 l 1,16,17
 688 600 l 1,18,19
 662 600 l 1,20,21
 662 500 l 1,22,23
 612 500 l 1,24,25
 612 600 l 1,26,27
 588 600 l 1,28,29
 588 400 l 1,30,31
 538 400 l 1,0,1
362 600 m 1,32,33
 362 701 l 1,34,35
 387 701 387 701 437 700.5 c 0
 487 700 487 700 512 700 c 1,36,37
 512 600 l 1,38,39
 462 600 l 1,40,41
 462 400 l 1,42,43
 412 400 l 1,44,45
 412 600 l 1,46,47
 362 600 l 1,32,33
EndSplineSet
Validated: 5
EndChar

StartChar: uni2139
Encoding: 8505 8505 345
Width: 925
GlyphClass: 2
Flags: W
LayerCount: 2
Back
Fore
SplineSet
550 100 m 1,0,1
 550 400 l 1,2,3
 600 400 l 1,4,5
 600 100 l 1,6,7
 550 100 l 1,0,1
550 500 m 1,8,9
 550 600 l 1,10,11
 600 600 l 1,12,13
 600 500 l 1,14,15
 550 500 l 1,8,9
725 600 m 1,16,17
 700 600 l 1,18,19
 700 700 l 1,20,21
 450 700 l 1,22,23
 450 600 l 1,24,25
 425 600 l 1,26,27
 425 100 l 1,28,29
 450 100 l 1,30,31
 450 0 l 1,32,33
 700 0 l 1,34,35
 700 100 l 1,36,37
 725 100 l 1,38,39
 725 600 l 1,16,17
375 100 m 1,40,41
 375 600 l 1,42,43
 400 600 l 1,44,45
 400 700 l 1,46,47
 425 700 l 1,48,49
 425 800 l 1,50,51
 725 800 l 1,52,53
 725 700 l 1,54,55
 750 700 l 1,56,57
 750 600 l 1,58,59
 775 600 l 1,60,61
 775 100 l 1,62,63
 750 100 l 1,64,65
 750 0 l 1,66,67
 725 0 l 1,68,69
 725 -100 l 1,70,71
 425 -100 l 1,72,73
 425 0 l 1,74,75
 400 0 l 1,76,77
 400 100 l 1,78,79
 375 100 l 1,40,41
EndSplineSet
Validated: 1
EndChar

StartChar: arrowleft
Encoding: 8592 8592 346
Width: 475
GlyphClass: 2
Flags: W
LayerCount: 2
Back
Fore
SplineSet
250 500 m 1,0,1
 250 600 l 1,2,3
 300 600 l 1,4,5
 300 500 l 1,6,7
 275 500 l 1,8,9
 275 400 l 1,10,11
 400 400 l 1,12,13
 400 300 l 1,14,15
 275 300 l 1,16,17
 275 200 l 1,18,19
 300 200 l 1,20,21
 300 100 l 1,22,23
 250 100 l 1,24,25
 250 200 l 1,26,27
 200 200 l 1,28,29
 200 300 l 1,30,31
 150 300 l 1,32,33
 150 400 l 1,34,35
 200 400 l 1,36,37
 200 500 l 1,38,39
 250 500 l 1,0,1
EndSplineSet
Validated: 1
EndChar

StartChar: arrowup
Encoding: 8593 8593 347
Width: 450
GlyphClass: 2
Flags: W
LayerCount: 2
Back
Fore
SplineSet
175 300 m 1,0,1
 125 300 l 1,2,3
 125 400 l 1,4,5
 150 400 l 1,6,7
 150 500 l 1,8,9
 175 500 l 1,10,11
 175 600 l 1,12,13
 200 600 l 1,14,15
 200 700 l 1,16,17
 250 700 l 1,18,19
 250 600 l 1,20,21
 275 600 l 1,22,23
 275 500 l 1,24,25
 300 500 l 1,26,27
 300 400 l 1,28,29
 325 400 l 1,30,31
 325 300 l 1,32,33
 275 300 l 1,34,35
 275 400 l 1,36,37
 250 400 l 1,38,39
 250 0 l 1,40,41
 200 0 l 1,42,43
 200 400 l 1,44,45
 175 400 l 1,46,47
 175 300 l 1,0,1
EndSplineSet
Validated: 1
EndChar

StartChar: arrowright
Encoding: 8594 8594 348
Width: 437
GlyphClass: 2
Flags: W
LayerCount: 2
Back
Fore
SplineSet
188 500 m 1,0,1
 188 600 l 1,2,3
 238 600 l 1,4,5
 238 500 l 1,6,7
 288 500 l 1,8,9
 288 400 l 1,10,11
 338 400 l 1,12,13
 338 300 l 1,14,15
 288 300 l 1,16,17
 288 200 l 1,18,19
 238 200 l 1,20,21
 238 100 l 1,22,23
 188 100 l 1,24,25
 188 200 l 1,26,27
 212 200 l 1,28,29
 212 300 l 1,30,31
 62 300 l 1,32,33
 62 400 l 1,34,35
 212 400 l 1,36,37
 212 500 l 1,38,39
 188 500 l 1,0,1
EndSplineSet
Validated: 1
EndChar

StartChar: arrowdown
Encoding: 8595 8595 349
Width: 450
GlyphClass: 2
Flags: W
LayerCount: 2
Back
Fore
SplineSet
200 300 m 1,0,1
 200 700 l 1,2,3
 250 700 l 1,4,5
 250 300 l 1,6,7
 275 300 l 1,8,9
 275 400 l 1,10,11
 325 400 l 1,12,13
 325 300 l 1,14,15
 300 300 l 1,16,17
 300 200 l 1,18,19
 275 200 l 1,20,21
 275 100 l 1,22,23
 250 100 l 1,24,25
 250 0 l 1,26,27
 200 0 l 1,28,29
 200 100 l 1,30,31
 175 100 l 1,32,33
 175 200 l 1,34,35
 150 200 l 1,36,37
 150 300 l 1,38,39
 125 300 l 1,40,41
 125 400 l 1,42,43
 175 400 l 1,44,45
 175 300 l 1,46,47
 200 300 l 1,0,1
EndSplineSet
Validated: 1
EndChar

StartChar: arrowboth
Encoding: 8596 8596 350
Width: 900
GlyphClass: 2
Flags: W
LayerCount: 2
Back
Fore
SplineSet
325 300 m 1,0,1
 325 400 l 1,2,3
 375 400 l 1,4,5
 375 500 l 1,6,7
 425 500 l 1,8,9
 425 600 l 1,10,11
 475 600 l 1,12,13
 475 500 l 1,14,15
 425 500 l 1,16,17
 425 400 l 1,18,19
 625 400 l 1,20,21
 625 500 l 1,22,23
 575 500 l 1,24,25
 575 600 l 1,26,27
 625 600 l 1,28,29
 625 500 l 1,30,31
 675 500 l 1,32,33
 675 400 l 1,34,35
 725 400 l 1,36,37
 725 300 l 1,38,39
 675 300 l 1,40,41
 675 200 l 1,42,43
 625 200 l 1,44,45
 625 100 l 1,46,47
 575 100 l 1,48,49
 575 200 l 1,50,51
 625 200 l 1,52,53
 625 300 l 1,54,55
 425 300 l 1,56,57
 425 200 l 1,58,59
 475 200 l 1,60,61
 475 100 l 1,62,63
 425 100 l 1,64,65
 425 200 l 1,66,67
 375 200 l 1,68,69
 375 300 l 1,70,71
 325 300 l 1,0,1
EndSplineSet
Validated: 5
EndChar

StartChar: arrowupdn
Encoding: 8597 8597 351
Width: 450
GlyphClass: 2
Flags: W
LayerCount: 2
Back
Fore
SplineSet
125 200 m 1,0,1
 125 300 l 1,2,3
 175 300 l 1,4,5
 175 200 l 1,6,7
 200 200 l 1,8,9
 200 500 l 1,10,11
 175 500 l 1,12,13
 175 400 l 1,14,15
 125 400 l 1,16,17
 125 500 l 1,18,19
 150 500 l 1,20,21
 150 600 l 1,22,23
 175 600 l 1,24,25
 175 700 l 1,26,27
 275 700 l 1,28,29
 275 600 l 1,30,31
 300 600 l 1,32,33
 300 500 l 1,34,35
 325 500 l 1,36,37
 325 400 l 1,38,39
 275 400 l 1,40,41
 275 500 l 1,42,43
 250 500 l 1,44,45
 250 200 l 1,46,47
 275 200 l 1,48,49
 275 300 l 1,50,51
 325 300 l 1,52,53
 325 200 l 1,54,55
 300 200 l 1,56,57
 300 100 l 1,58,59
 275 100 l 1,60,61
 275 0 l 1,62,63
 175 0 l 1,64,65
 175 100 l 1,66,67
 150 100 l 1,68,69
 150 200 l 1,70,71
 125 200 l 1,0,1
EndSplineSet
Validated: 1
EndChar

StartChar: radical
Encoding: 8730 8730 352
Width: 450
GlyphClass: 2
Flags: W
LayerCount: 2
Back
Fore
SplineSet
75 200 m 1,0,1
 75 400 l 1,2,3
 125 400 l 1,4,5
 125 200 l 1,6,7
 150 200 l 1,8,9
 150 100 l 1,10,11
 175 100 l 1,12,13
 175 300 l 1,14,15
 200 300 l 1,16,17
 200 600 l 1,18,19
 225 600 l 1,20,21
 225 700 l 1,22,23
 375 700 l 1,24,25
 375 600 l 1,26,27
 250 600 l 1,28,29
 250 300 l 1,30,31
 225 300 l 1,32,33
 225 100 l 1,34,35
 200 100 l 1,36,37
 200 0 l 1,38,39
 125 0 l 1,40,41
 125 100 l 1,42,43
 100 100 l 1,44,45
 100 200 l 1,46,47
 75 200 l 1,0,1
EndSplineSet
Validated: 1
EndChar

